<svg width="254" height="128" viewBox="0 0 254 128" fill="none" xmlns="http://www.w3.org/2000/svg">
<g filter="url(#filter0_b_68_133)">
<rect x="0.0908203" width="253" height="128" rx="6" fill="url(#paint0_linear_68_133)" fill-opacity="0.1"/>
</g>
<path fill-rule="evenodd" clip-rule="evenodd" d="M116.871 41.1975L128.054 30.014L139.248 41.2071L145.755 34.7001L128.054 17L110.364 34.6905L116.871 41.1975ZM99.2588 45.7951L105.764 39.2899L112.269 45.7951L105.764 52.3004L99.2588 45.7951ZM128.054 61.5809L116.871 50.3973L110.354 56.8947L110.364 56.9043L128.054 74.5949L145.755 56.8947L139.248 50.3878L128.054 61.5809ZM143.834 45.7997L150.34 39.2944L156.845 45.7997L150.34 52.305L143.834 45.7997ZM128.054 39.1946L134.657 45.7975L128.054 52.4098L121.452 45.807V45.7879L122.611 44.6283L123.177 44.0725L128.054 39.1946Z" fill="#F3BA2F"/>
<path opacity="0.7" d="M87.5315 107V104.56H90.8515C91.4648 104.56 91.9448 104.38 92.2915 104.02C92.6382 103.66 92.8115 103.22 92.8115 102.7C92.8115 102.34 92.7315 102.02 92.5715 101.74C92.4115 101.46 92.1848 101.24 91.8915 101.08C91.6115 100.92 91.2648 100.84 90.8515 100.84H87.5315V98.46H90.5915C91.1115 98.46 91.5315 98.3333 91.8515 98.08C92.1715 97.8133 92.3315 97.4133 92.3315 96.88C92.3315 96.36 92.1715 95.9733 91.8515 95.72C91.5315 95.4533 91.1115 95.32 90.5915 95.32H87.5315V92.88H91.1915C92.0982 92.88 92.8648 93.0467 93.4915 93.38C94.1315 93.7133 94.6182 94.16 94.9515 94.72C95.2848 95.28 95.4515 95.9 95.4515 96.58C95.4515 97.4467 95.1715 98.18 94.6115 98.78C94.0515 99.38 93.2248 99.7933 92.1315 100.02L92.2115 98.96C93.3982 99.1867 94.3115 99.6467 94.9515 100.34C95.6048 101.033 95.9315 101.887 95.9315 102.9C95.9315 103.673 95.7382 104.373 95.3515 105C94.9782 105.613 94.4315 106.1 93.7115 106.46C93.0048 106.82 92.1515 107 91.1515 107H87.5315ZM85.1315 107V92.88H88.2315V107H85.1315ZM99.664 107V97.28H102.724V107H99.664ZM101.204 95.94C100.724 95.94 100.324 95.78 100.004 95.46C99.6973 95.1267 99.544 94.7267 99.544 94.26C99.544 93.78 99.6973 93.38 100.004 93.06C100.324 92.74 100.724 92.58 101.204 92.58C101.684 92.58 102.077 92.74 102.384 93.06C102.691 93.38 102.844 93.78 102.844 94.26C102.844 94.7267 102.691 95.1267 102.384 95.46C102.077 95.78 101.684 95.94 101.204 95.94ZM113.299 107V101.46C113.299 100.953 113.139 100.547 112.819 100.24C112.512 99.92 112.119 99.76 111.639 99.76C111.305 99.76 111.012 99.8333 110.759 99.98C110.505 100.113 110.305 100.313 110.159 100.58C110.012 100.833 109.939 101.127 109.939 101.46L108.759 100.88C108.759 100.12 108.925 99.4533 109.259 98.88C109.592 98.3067 110.052 97.8667 110.639 97.56C111.239 97.24 111.912 97.08 112.659 97.08C113.379 97.08 114.012 97.2533 114.559 97.6C115.119 97.9333 115.559 98.38 115.879 98.94C116.199 99.5 116.359 100.113 116.359 100.78V107H113.299ZM106.879 107V97.28H109.939V107H106.879ZM124.384 107.2C123.491 107.2 122.691 106.98 121.984 106.54C121.291 106.1 120.737 105.5 120.324 104.74C119.924 103.98 119.724 103.113 119.724 102.14C119.724 101.167 119.924 100.3 120.324 99.54C120.737 98.78 121.291 98.18 121.984 97.74C122.691 97.3 123.491 97.08 124.384 97.08C125.037 97.08 125.624 97.2067 126.144 97.46C126.677 97.7133 127.111 98.0667 127.444 98.52C127.777 98.96 127.964 99.4667 128.004 100.04V104.24C127.964 104.813 127.777 105.327 127.444 105.78C127.124 106.22 126.697 106.567 126.164 106.82C125.631 107.073 125.037 107.2 124.384 107.2ZM125.004 104.44C125.657 104.44 126.184 104.227 126.584 103.8C126.984 103.36 127.184 102.807 127.184 102.14C127.184 101.687 127.091 101.287 126.904 100.94C126.731 100.593 126.477 100.327 126.144 100.14C125.824 99.94 125.451 99.84 125.024 99.84C124.597 99.84 124.217 99.94 123.884 100.14C123.564 100.327 123.304 100.593 123.104 100.94C122.917 101.287 122.824 101.687 122.824 102.14C122.824 102.58 122.917 102.973 123.104 103.32C123.291 103.667 123.551 103.94 123.884 104.14C124.217 104.34 124.591 104.44 125.004 104.44ZM127.064 107V104.38L127.524 102.02L127.064 99.66V97.28H130.064V107H127.064ZM140.639 107V101.46C140.639 100.953 140.479 100.547 140.159 100.24C139.852 99.92 139.459 99.76 138.979 99.76C138.645 99.76 138.352 99.8333 138.099 99.98C137.845 100.113 137.645 100.313 137.499 100.58C137.352 100.833 137.279 101.127 137.279 101.46L136.099 100.88C136.099 100.12 136.265 99.4533 136.599 98.88C136.932 98.3067 137.392 97.8667 137.979 97.56C138.579 97.24 139.252 97.08 139.999 97.08C140.719 97.08 141.352 97.2533 141.899 97.6C142.459 97.9333 142.899 98.38 143.219 98.94C143.539 99.5 143.699 100.113 143.699 100.78V107H140.639ZM134.219 107V97.28H137.279V107H134.219ZM152.364 107.22C151.364 107.22 150.457 107 149.644 106.56C148.831 106.12 148.191 105.513 147.724 104.74C147.257 103.967 147.024 103.1 147.024 102.14C147.024 101.167 147.257 100.3 147.724 99.54C148.204 98.7667 148.851 98.16 149.664 97.72C150.477 97.28 151.391 97.06 152.404 97.06C153.164 97.06 153.857 97.1933 154.484 97.46C155.124 97.7133 155.691 98.1 156.184 98.62L154.224 100.58C153.997 100.327 153.731 100.14 153.424 100.02C153.131 99.9 152.791 99.84 152.404 99.84C151.964 99.84 151.571 99.94 151.224 100.14C150.891 100.327 150.624 100.593 150.424 100.94C150.237 101.273 150.144 101.667 150.144 102.12C150.144 102.573 150.237 102.973 150.424 103.32C150.624 103.667 150.897 103.94 151.244 104.14C151.591 104.34 151.977 104.44 152.404 104.44C152.804 104.44 153.157 104.373 153.464 104.24C153.784 104.093 154.057 103.893 154.284 103.64L156.224 105.6C155.717 106.133 155.144 106.54 154.504 106.82C153.864 107.087 153.151 107.22 152.364 107.22ZM164.151 107.22C163.098 107.22 162.158 107.007 161.331 106.58C160.518 106.14 159.878 105.533 159.411 104.76C158.945 103.987 158.711 103.113 158.711 102.14C158.711 101.167 158.938 100.3 159.391 99.54C159.858 98.7667 160.485 98.16 161.271 97.72C162.058 97.28 162.945 97.06 163.931 97.06C164.891 97.06 165.738 97.2667 166.471 97.68C167.205 98.0933 167.778 98.6667 168.191 99.4C168.618 100.133 168.831 100.973 168.831 101.92C168.831 102.093 168.818 102.28 168.791 102.48C168.778 102.667 168.745 102.887 168.691 103.14L160.311 103.16V101.06L167.391 101.04L166.071 101.92C166.058 101.36 165.971 100.9 165.811 100.54C165.651 100.167 165.411 99.8867 165.091 99.7C164.785 99.5 164.405 99.4 163.951 99.4C163.471 99.4 163.051 99.5133 162.691 99.74C162.345 99.9533 162.071 100.26 161.871 100.66C161.685 101.06 161.591 101.547 161.591 102.12C161.591 102.693 161.691 103.187 161.891 103.6C162.105 104 162.398 104.313 162.771 104.54C163.158 104.753 163.611 104.86 164.131 104.86C164.611 104.86 165.045 104.78 165.431 104.62C165.818 104.447 166.158 104.193 166.451 103.86L168.131 105.54C167.651 106.1 167.071 106.52 166.391 106.8C165.711 107.08 164.965 107.22 164.151 107.22Z" fill="white"/>
<defs>
<filter id="filter0_b_68_133" x="-24.9092" y="-25" width="303" height="178" filterUnits="userSpaceOnUse" color-interpolation-filters="sRGB">
<feFlood flood-opacity="0" result="BackgroundImageFix"/>
<feGaussianBlur in="BackgroundImageFix" stdDeviation="12.5"/>
<feComposite in2="SourceAlpha" operator="in" result="effect1_backgroundBlur_68_133"/>
<feBlend mode="normal" in="SourceGraphic" in2="effect1_backgroundBlur_68_133" result="shape"/>
</filter>
<linearGradient id="paint0_linear_68_133" x1="-11.4826" y1="-10.2128" x2="93.7289" y2="227.682" gradientUnits="userSpaceOnUse">
<stop stop-color="white" stop-opacity="0.44"/>
<stop offset="1" stop-color="#8F8F8F" stop-opacity="0.21"/>
</linearGradient>
</defs>
</svg>
