<svg width="253" height="128" viewBox="0 0 253 128" fill="none" xmlns="http://www.w3.org/2000/svg">
<g filter="url(#filter0_b_68_80)">
<rect width="253" height="128" rx="6" fill="url(#paint0_linear_68_80)" fill-opacity="0.1"/>
</g>
<path opacity="0.7" d="M107.586 109.24C106.52 109.24 105.533 109.053 104.626 108.68C103.733 108.307 102.946 107.787 102.266 107.12C101.586 106.453 101.06 105.68 100.686 104.8C100.313 103.907 100.126 102.947 100.126 101.92C100.126 100.88 100.313 99.92 100.686 99.04C101.06 98.16 101.58 97.3933 102.246 96.74C102.913 96.0733 103.693 95.56 104.586 95.2C105.493 94.8266 106.48 94.64 107.546 94.64C108.6 94.64 109.573 94.8266 110.466 95.2C111.373 95.56 112.16 96.0733 112.826 96.74C113.506 97.3933 114.033 98.1666 114.406 99.06C114.78 99.94 114.966 100.9 114.966 101.94C114.966 102.967 114.78 103.927 114.406 104.82C114.033 105.7 113.513 106.473 112.846 107.14C112.18 107.793 111.393 108.307 110.486 108.68C109.593 109.053 108.626 109.24 107.586 109.24ZM107.546 106.38C108.386 106.38 109.12 106.193 109.746 105.82C110.386 105.447 110.88 104.927 111.226 104.26C111.573 103.58 111.746 102.8 111.746 101.92C111.746 101.253 111.646 100.653 111.446 100.12C111.246 99.5733 110.96 99.1066 110.586 98.72C110.213 98.32 109.766 98.02 109.246 97.82C108.74 97.6066 108.173 97.5 107.546 97.5C106.706 97.5 105.966 97.6866 105.326 98.06C104.7 98.42 104.213 98.9333 103.866 99.6C103.52 100.253 103.346 101.027 103.346 101.92C103.346 102.587 103.446 103.193 103.646 103.74C103.846 104.287 104.126 104.76 104.486 105.16C104.86 105.547 105.306 105.847 105.826 106.06C106.346 106.273 106.92 106.38 107.546 106.38ZM124.9 109L121.5 103.96L124.88 99.28H128.3L124.22 104.54L124.32 103.28L128.5 109H124.9ZM118.68 109V94.48H121.74V109H118.68ZM135.968 109.22C134.915 109.22 133.975 109.007 133.148 108.58C132.335 108.14 131.695 107.533 131.228 106.76C130.761 105.987 130.528 105.113 130.528 104.14C130.528 103.167 130.755 102.3 131.208 101.54C131.675 100.767 132.301 100.16 133.088 99.72C133.875 99.28 134.761 99.06 135.748 99.06C136.708 99.06 137.555 99.2666 138.288 99.68C139.021 100.093 139.595 100.667 140.008 101.4C140.435 102.133 140.648 102.973 140.648 103.92C140.648 104.093 140.635 104.28 140.608 104.48C140.595 104.667 140.561 104.887 140.508 105.14L132.128 105.16V103.06L139.208 103.04L137.888 103.92C137.875 103.36 137.788 102.9 137.628 102.54C137.468 102.167 137.228 101.887 136.908 101.7C136.601 101.5 136.221 101.4 135.768 101.4C135.288 101.4 134.868 101.513 134.508 101.74C134.161 101.953 133.888 102.26 133.688 102.66C133.501 103.06 133.408 103.547 133.408 104.12C133.408 104.693 133.508 105.187 133.708 105.6C133.921 106 134.215 106.313 134.588 106.54C134.975 106.753 135.428 106.86 135.948 106.86C136.428 106.86 136.861 106.78 137.248 106.62C137.635 106.447 137.975 106.193 138.268 105.86L139.948 107.54C139.468 108.1 138.888 108.52 138.208 108.8C137.528 109.08 136.781 109.22 135.968 109.22ZM149.891 109L147.551 105.22L146.891 104.8L143.071 99.28H146.651L148.831 102.82L149.471 103.22L153.431 109H149.891ZM142.891 109L146.871 103.34L148.611 105.3L146.231 109H142.891ZM149.451 104.78L147.711 102.82L149.911 99.28H153.231L149.451 104.78Z" fill="white"/>
<path d="M122.432 42.6183C124.448 43.0574 126.553 43.0574 128.569 42.6183C129.133 40.5809 130.312 38.7195 131.98 37.2359C133.649 35.7523 135.742 34.7031 138.033 34.2021C138.497 32.5131 138.524 30.7524 138.111 29.053C137.698 27.3535 136.856 25.7597 135.649 24.3921C134.441 23.0244 132.901 21.9186 131.143 21.1582C129.384 20.3977 127.455 20.0026 125.5 20.0026C123.545 20.0026 121.616 20.3977 119.857 21.1582C118.099 21.9186 116.558 23.0244 115.351 24.3921C114.144 25.7597 113.302 27.3535 112.889 29.053C112.476 30.7524 112.503 32.5131 112.967 34.2021C115.259 34.7025 117.352 35.7515 119.021 37.2352C120.689 38.7188 121.869 40.5806 122.432 42.6183Z" fill="#7ABDF7"/>
<path d="M128.569 48.0742C126.553 47.6352 124.448 47.6352 122.432 48.0742C121.869 50.1117 120.689 51.9731 119.021 53.4567C117.353 54.9403 115.26 55.9894 112.969 56.4905C112.505 58.1794 112.478 59.9401 112.891 61.6396C113.304 63.339 114.146 64.9328 115.353 66.3005C116.56 67.6681 118.101 68.774 119.859 69.5344C121.617 70.2948 123.546 70.6899 125.501 70.6899C127.456 70.6899 129.386 70.2948 131.144 69.5344C132.902 68.774 134.443 67.6681 135.65 66.3005C136.857 64.9328 137.699 63.339 138.112 61.6396C138.525 59.9401 138.498 58.1794 138.034 56.4905C135.743 55.99 133.649 54.9411 131.981 53.4574C130.312 51.9737 129.132 50.112 128.569 48.0742Z" fill="#0D74F5"/>
<path d="M141.101 33.8721C140.068 33.872 139.038 33.9824 138.034 34.201C137.471 36.2384 136.292 38.0998 134.624 39.5832C132.956 41.0667 130.863 42.1155 128.572 42.616C128.079 44.4089 128.079 46.2813 128.572 48.0742C130.863 48.575 132.956 49.6241 134.624 51.1078C136.292 52.5914 137.471 54.4529 138.034 56.4904C139.806 56.8753 141.65 56.9217 143.444 56.6264C145.237 56.3312 146.94 55.701 148.44 54.7774C149.94 53.8539 151.202 52.658 152.144 51.2687C153.086 49.8794 153.686 48.3282 153.904 46.7175C154.123 45.1069 153.955 43.4733 153.411 41.9247C152.867 40.376 151.961 38.9475 150.751 37.7334C149.541 36.5192 148.055 35.5471 146.392 34.8811C144.729 34.215 142.925 33.8703 141.101 33.8695V33.8721Z" fill="#4494F7"/>
<path d="M122.432 48.0736C122.926 46.2807 122.926 44.4083 122.432 42.6154C120.141 42.1149 118.048 41.066 116.38 39.5826C114.712 38.0992 113.532 36.2378 112.969 34.2005C111.07 33.7875 109.09 33.7638 107.179 34.1311C105.268 34.4984 103.476 35.2471 101.938 36.3207C100.401 37.3942 99.1573 38.7646 98.3022 40.3282C97.4472 41.8917 97.0029 43.6077 97.0029 45.3464C97.0029 47.0851 97.4472 48.8011 98.3022 50.3647C99.1573 51.9283 100.401 53.2986 101.938 54.3722C103.476 55.4457 105.268 56.1944 107.179 56.5617C109.09 56.929 111.07 56.9053 112.969 56.4923C113.531 54.4543 114.711 52.5922 116.379 51.1081C118.047 49.624 120.141 48.5746 122.432 48.0736Z" fill="#005CF4"/>
<path d="M128.569 42.6186C130.86 42.1176 132.953 41.0684 134.621 39.5848C136.29 38.1012 137.469 36.2398 138.033 34.2024C135.742 34.7034 133.649 35.7526 131.981 37.2362C130.312 38.7198 129.133 40.5812 128.569 42.6186Z" fill="#186EF9"/>
<path d="M128.569 48.0739C129.132 50.1115 130.312 51.9731 131.98 53.4568C133.648 54.9405 135.741 55.9895 138.033 56.4902C137.469 54.4527 136.29 52.5913 134.621 51.1077C132.953 49.6241 130.86 48.5749 128.569 48.0739Z" fill="#0246F2"/>
<path d="M122.432 42.6186C121.869 40.5812 120.689 38.7198 119.021 37.2362C117.353 35.7526 115.26 34.7034 112.969 34.2024C113.532 36.2398 114.712 38.1012 116.38 39.5848C118.048 41.0684 120.141 42.1176 122.432 42.6186Z" fill="#0046F8"/>
<path d="M122.432 48.0739C120.141 48.5749 118.048 49.6241 116.38 51.1077C114.712 52.5913 113.532 54.4527 112.969 56.4902C115.26 55.9891 117.353 54.94 119.021 53.4564C120.689 51.9728 121.869 50.1113 122.432 48.0739Z" fill="#0729F1"/>
<path d="M122.432 42.6183C124.448 43.0574 126.553 43.0574 128.569 42.6183C129.133 40.5809 130.312 38.7195 131.98 37.2359C133.649 35.7523 135.742 34.7031 138.033 34.2021C138.497 32.5131 138.524 30.7524 138.111 29.053C137.698 27.3535 136.856 25.7597 135.649 24.3921C134.441 23.0244 132.901 21.9186 131.143 21.1582C129.384 20.3977 127.455 20.0026 125.5 20.0026C123.545 20.0026 121.616 20.3977 119.857 21.1582C118.099 21.9186 116.558 23.0244 115.351 24.3921C114.144 25.7597 113.302 27.3535 112.889 29.053C112.476 30.7524 112.503 32.5131 112.967 34.2021C115.259 34.7025 117.352 35.7515 119.021 37.2352C120.689 38.7188 121.869 40.5806 122.432 42.6183Z" fill="#7ABDF7"/>
<path d="M128.569 48.0742C126.553 47.6352 124.448 47.6352 122.432 48.0742C121.869 50.1117 120.689 51.9731 119.021 53.4567C117.353 54.9403 115.26 55.9894 112.969 56.4905C112.505 58.1794 112.478 59.9401 112.891 61.6396C113.304 63.339 114.146 64.9328 115.353 66.3005C116.56 67.6681 118.101 68.774 119.859 69.5344C121.617 70.2948 123.546 70.6899 125.501 70.6899C127.456 70.6899 129.386 70.2948 131.144 69.5344C132.902 68.774 134.443 67.6681 135.65 66.3005C136.857 64.9328 137.699 63.339 138.112 61.6396C138.525 59.9401 138.498 58.1794 138.034 56.4905C135.743 55.99 133.649 54.9411 131.981 53.4574C130.312 51.9737 129.132 50.112 128.569 48.0742Z" fill="#0D74F5"/>
<path d="M141.101 33.8721C140.068 33.872 139.038 33.9824 138.034 34.201C137.471 36.2384 136.292 38.0998 134.624 39.5832C132.956 41.0667 130.863 42.1155 128.572 42.616C128.079 44.4089 128.079 46.2813 128.572 48.0742C130.863 48.575 132.956 49.6241 134.624 51.1078C136.292 52.5914 137.471 54.4529 138.034 56.4904C139.806 56.8753 141.65 56.9217 143.444 56.6264C145.237 56.3312 146.94 55.701 148.44 54.7774C149.94 53.8539 151.202 52.658 152.144 51.2687C153.086 49.8794 153.686 48.3282 153.904 46.7175C154.123 45.1069 153.955 43.4733 153.411 41.9247C152.867 40.376 151.961 38.9475 150.751 37.7334C149.541 36.5192 148.055 35.5471 146.392 34.8811C144.729 34.215 142.925 33.8703 141.101 33.8695V33.8721Z" fill="#4494F7"/>
<path d="M122.432 48.0736C122.926 46.2807 122.926 44.4083 122.432 42.6154C120.141 42.1149 118.048 41.066 116.38 39.5826C114.712 38.0992 113.532 36.2378 112.969 34.2005C111.07 33.7875 109.09 33.7638 107.179 34.1311C105.268 34.4984 103.476 35.2471 101.938 36.3207C100.401 37.3942 99.1573 38.7646 98.3022 40.3282C97.4472 41.8917 97.0029 43.6077 97.0029 45.3464C97.0029 47.0851 97.4472 48.8011 98.3022 50.3647C99.1573 51.9283 100.401 53.2986 101.938 54.3722C103.476 55.4457 105.268 56.1944 107.179 56.5617C109.09 56.929 111.07 56.9053 112.969 56.4923C113.531 54.4543 114.711 52.5922 116.379 51.1081C118.047 49.624 120.141 48.5746 122.432 48.0736Z" fill="#005CF4"/>
<path d="M128.569 42.6186C130.86 42.1176 132.953 41.0684 134.621 39.5848C136.29 38.1012 137.469 36.2398 138.033 34.2024C135.742 34.7034 133.649 35.7526 131.981 37.2362C130.312 38.7198 129.133 40.5812 128.569 42.6186Z" fill="#186EF9"/>
<path d="M128.569 48.0739C129.132 50.1115 130.312 51.9731 131.98 53.4568C133.648 54.9405 135.741 55.9895 138.033 56.4902C137.469 54.4527 136.29 52.5913 134.621 51.1077C132.953 49.6241 130.86 48.5749 128.569 48.0739Z" fill="#0246F2"/>
<path d="M122.432 42.6186C121.869 40.5812 120.689 38.7198 119.021 37.2362C117.353 35.7526 115.26 34.7034 112.969 34.2024C113.532 36.2398 114.712 38.1012 116.38 39.5848C118.048 41.0684 120.141 42.1176 122.432 42.6186Z" fill="#0046F8"/>
<path d="M122.432 48.0739C120.141 48.5749 118.048 49.6241 116.38 51.1077C114.712 52.5913 113.532 54.4527 112.969 56.4902C115.26 55.9891 117.353 54.94 119.021 53.4564C120.689 51.9728 121.869 50.1113 122.432 48.0739Z" fill="#0729F1"/>
<defs>
<filter id="filter0_b_68_80" x="-25" y="-25" width="303" height="178" filterUnits="userSpaceOnUse" color-interpolation-filters="sRGB">
<feFlood flood-opacity="0" result="BackgroundImageFix"/>
<feGaussianBlur in="BackgroundImageFix" stdDeviation="12.5"/>
<feComposite in2="SourceAlpha" operator="in" result="effect1_backgroundBlur_68_80"/>
<feBlend mode="normal" in="SourceGraphic" in2="effect1_backgroundBlur_68_80" result="shape"/>
</filter>
<linearGradient id="paint0_linear_68_80" x1="-11.5734" y1="-10.2128" x2="93.638" y2="227.682" gradientUnits="userSpaceOnUse">
<stop stop-color="white" stop-opacity="0.44"/>
<stop offset="1" stop-color="#8F8F8F" stop-opacity="0.21"/>
</linearGradient>
</defs>
</svg>
