<svg width="254" height="128" viewBox="0 0 254 128" fill="none" xmlns="http://www.w3.org/2000/svg">
<g filter="url(#filter0_b_68_106)">
<rect x="0.0454102" width="253" height="128" rx="6" fill="url(#paint0_linear_68_106)" fill-opacity="0.1"/>
</g>
<path opacity="0.7" d="M95.2675 107.22C94.1075 107.22 93.1075 107.033 92.2675 106.66C91.4408 106.273 90.6808 105.693 89.9875 104.92L92.0275 102.9C92.4808 103.42 92.9808 103.827 93.5275 104.12C94.0875 104.4 94.7341 104.54 95.4675 104.54C96.1341 104.54 96.6475 104.42 97.0075 104.18C97.3808 103.94 97.5675 103.607 97.5675 103.18C97.5675 102.793 97.4475 102.48 97.2075 102.24C96.9675 102 96.6475 101.793 96.2475 101.62C95.8608 101.447 95.4275 101.28 94.9475 101.12C94.4808 100.96 94.0141 100.78 93.5475 100.58C93.0808 100.367 92.6475 100.107 92.2475 99.8C91.8608 99.48 91.5475 99.0867 91.3075 98.62C91.0675 98.14 90.9475 97.54 90.9475 96.82C90.9475 95.9533 91.1541 95.2067 91.5675 94.58C91.9941 93.9533 92.5808 93.48 93.3275 93.16C94.0741 92.8267 94.9341 92.66 95.9075 92.66C96.8941 92.66 97.7941 92.8333 98.6075 93.18C99.4341 93.5267 100.114 94 100.647 94.6L98.6075 96.62C98.1808 96.18 97.7475 95.8533 97.3075 95.64C96.8808 95.4267 96.3941 95.32 95.8475 95.32C95.3008 95.32 94.8675 95.4267 94.5475 95.64C94.2275 95.84 94.0675 96.1333 94.0675 96.52C94.0675 96.88 94.1875 97.1733 94.4275 97.4C94.6675 97.6133 94.9808 97.8 95.3675 97.96C95.7675 98.12 96.2008 98.28 96.6675 98.44C97.1475 98.6 97.6208 98.7867 98.0875 99C98.5541 99.2133 98.9808 99.4867 99.3675 99.82C99.7675 100.14 100.087 100.553 100.327 101.06C100.567 101.553 100.687 102.167 100.687 102.9C100.687 104.247 100.207 105.307 99.2475 106.08C98.2875 106.84 96.9608 107.22 95.2675 107.22ZM109.029 107.22C108.029 107.22 107.122 107 106.309 106.56C105.509 106.107 104.876 105.493 104.409 104.72C103.942 103.947 103.709 103.08 103.709 102.12C103.709 101.16 103.942 100.3 104.409 99.54C104.876 98.78 105.509 98.18 106.309 97.74C107.109 97.2867 108.016 97.06 109.029 97.06C110.042 97.06 110.949 97.28 111.749 97.72C112.549 98.16 113.182 98.7667 113.649 99.54C114.116 100.3 114.349 101.16 114.349 102.12C114.349 103.08 114.116 103.947 113.649 104.72C113.182 105.493 112.549 106.107 111.749 106.56C110.949 107 110.042 107.22 109.029 107.22ZM109.029 104.44C109.469 104.44 109.856 104.347 110.189 104.16C110.522 103.96 110.776 103.687 110.949 103.34C111.136 102.98 111.229 102.573 111.229 102.12C111.229 101.667 111.136 101.273 110.949 100.94C110.762 100.593 110.502 100.327 110.169 100.14C109.849 99.94 109.469 99.84 109.029 99.84C108.602 99.84 108.222 99.94 107.889 100.14C107.556 100.327 107.296 100.593 107.109 100.94C106.922 101.287 106.829 101.687 106.829 102.14C106.829 102.58 106.922 102.98 107.109 103.34C107.296 103.687 107.556 103.96 107.889 104.16C108.222 104.347 108.602 104.44 109.029 104.44ZM117.872 107V92.48H120.932V107H117.872ZM129.147 107.2C128.254 107.2 127.454 106.98 126.747 106.54C126.054 106.1 125.501 105.5 125.087 104.74C124.687 103.98 124.487 103.113 124.487 102.14C124.487 101.167 124.687 100.3 125.087 99.54C125.501 98.78 126.054 98.18 126.747 97.74C127.454 97.3 128.254 97.08 129.147 97.08C129.801 97.08 130.387 97.2067 130.907 97.46C131.441 97.7133 131.874 98.0667 132.207 98.52C132.541 98.96 132.727 99.4667 132.767 100.04V104.24C132.727 104.813 132.541 105.327 132.207 105.78C131.887 106.22 131.461 106.567 130.927 106.82C130.394 107.073 129.801 107.2 129.147 107.2ZM129.767 104.44C130.421 104.44 130.947 104.227 131.347 103.8C131.747 103.36 131.947 102.807 131.947 102.14C131.947 101.687 131.854 101.287 131.667 100.94C131.494 100.593 131.241 100.327 130.907 100.14C130.587 99.94 130.214 99.84 129.787 99.84C129.361 99.84 128.981 99.94 128.647 100.14C128.327 100.327 128.067 100.593 127.867 100.94C127.681 101.287 127.587 101.687 127.587 102.14C127.587 102.58 127.681 102.973 127.867 103.32C128.054 103.667 128.314 103.94 128.647 104.14C128.981 104.34 129.354 104.44 129.767 104.44ZM131.827 107V104.38L132.287 102.02L131.827 99.66V97.28H134.827V107H131.827ZM145.402 107V101.46C145.402 100.953 145.242 100.547 144.922 100.24C144.615 99.92 144.222 99.76 143.742 99.76C143.409 99.76 143.115 99.8333 142.862 99.98C142.609 100.113 142.409 100.313 142.262 100.58C142.115 100.833 142.042 101.127 142.042 101.46L140.862 100.88C140.862 100.12 141.029 99.4533 141.362 98.88C141.695 98.3067 142.155 97.8667 142.742 97.56C143.342 97.24 144.015 97.08 144.762 97.08C145.482 97.08 146.115 97.2533 146.662 97.6C147.222 97.9333 147.662 98.38 147.982 98.94C148.302 99.5 148.462 100.113 148.462 100.78V107H145.402ZM138.982 107V97.28H142.042V107H138.982ZM156.487 107.2C155.594 107.2 154.794 106.98 154.087 106.54C153.394 106.1 152.841 105.5 152.427 104.74C152.027 103.98 151.827 103.113 151.827 102.14C151.827 101.167 152.027 100.3 152.427 99.54C152.841 98.78 153.394 98.18 154.087 97.74C154.794 97.3 155.594 97.08 156.487 97.08C157.141 97.08 157.727 97.2067 158.247 97.46C158.781 97.7133 159.214 98.0667 159.547 98.52C159.881 98.96 160.067 99.4667 160.107 100.04V104.24C160.067 104.813 159.881 105.327 159.547 105.78C159.227 106.22 158.801 106.567 158.267 106.82C157.734 107.073 157.141 107.2 156.487 107.2ZM157.107 104.44C157.761 104.44 158.287 104.227 158.687 103.8C159.087 103.36 159.287 102.807 159.287 102.14C159.287 101.687 159.194 101.287 159.007 100.94C158.834 100.593 158.581 100.327 158.247 100.14C157.927 99.94 157.554 99.84 157.127 99.84C156.701 99.84 156.321 99.94 155.987 100.14C155.667 100.327 155.407 100.593 155.207 100.94C155.021 101.287 154.927 101.687 154.927 102.14C154.927 102.58 155.021 102.973 155.207 103.32C155.394 103.667 155.654 103.94 155.987 104.14C156.321 104.34 156.694 104.44 157.107 104.44ZM159.167 107V104.38L159.627 102.02L159.167 99.66V97.28H162.167V107H159.167Z" fill="white"/>
<rect x="98.4546" y="20" width="57" height="57" rx="8" fill="#1A1A1A"/>
<path d="M114.13 56.0063C114.363 55.784 114.678 55.6591 115.007 55.6591H145.333C145.886 55.6591 146.162 56.2985 145.772 56.6722L139.779 62.4027C139.547 62.6251 139.231 62.75 138.903 62.75H108.576C108.023 62.75 107.747 62.1106 108.138 61.7369L114.13 56.0063Z" fill="url(#paint1_linear_68_106)"/>
<path d="M114.13 34.5973C114.363 34.3749 114.678 34.25 115.007 34.25H145.333C145.886 34.25 146.162 34.8894 145.772 35.2631L139.779 40.9937C139.547 41.216 139.231 41.3409 138.903 41.3409H108.576C108.023 41.3409 107.747 40.7015 108.138 40.3278L114.13 34.5973Z" fill="url(#paint2_linear_68_106)"/>
<path d="M139.779 45.2336C139.547 45.0113 139.231 44.8864 138.903 44.8864H108.576C108.023 44.8864 107.747 45.5258 108.138 45.8994L114.13 51.63C114.363 51.8524 114.678 51.9773 115.007 51.9773H145.333C145.886 51.9773 146.162 51.3379 145.772 50.9642L139.779 45.2336Z" fill="url(#paint3_linear_68_106)"/>
<defs>
<filter id="filter0_b_68_106" x="-24.9546" y="-25" width="303" height="178" filterUnits="userSpaceOnUse" color-interpolation-filters="sRGB">
<feFlood flood-opacity="0" result="BackgroundImageFix"/>
<feGaussianBlur in="BackgroundImageFix" stdDeviation="12.5"/>
<feComposite in2="SourceAlpha" operator="in" result="effect1_backgroundBlur_68_106"/>
<feBlend mode="normal" in="SourceGraphic" in2="effect1_backgroundBlur_68_106" result="shape"/>
</filter>
<linearGradient id="paint0_linear_68_106" x1="-11.528" y1="-10.2128" x2="93.6835" y2="227.682" gradientUnits="userSpaceOnUse">
<stop stop-color="white" stop-opacity="0.44"/>
<stop offset="1" stop-color="#8F8F8F" stop-opacity="0.21"/>
</linearGradient>
<linearGradient id="paint1_linear_68_106" x1="133.645" y1="26.4323" x2="114.068" y2="65.6129" gradientUnits="userSpaceOnUse">
<stop stop-color="#00FFA3"/>
<stop offset="1" stop-color="#DC1FFF"/>
</linearGradient>
<linearGradient id="paint2_linear_68_106" x1="133.645" y1="26.4323" x2="114.068" y2="65.6129" gradientUnits="userSpaceOnUse">
<stop stop-color="#00FFA3"/>
<stop offset="1" stop-color="#DC1FFF"/>
</linearGradient>
<linearGradient id="paint3_linear_68_106" x1="133.645" y1="26.4323" x2="114.068" y2="65.6129" gradientUnits="userSpaceOnUse">
<stop stop-color="#00FFA3"/>
<stop offset="1" stop-color="#DC1FFF"/>
</linearGradient>
</defs>
</svg>
