<svg width="254" height="128" viewBox="0 0 254 128" fill="none" xmlns="http://www.w3.org/2000/svg">
<g filter="url(#filter0_b_68_112)">
<rect x="0.0454102" width="253" height="128" rx="6" fill="url(#paint0_linear_68_112)" fill-opacity="0.1"/>
</g>
<path d="M125.594 19.7586V40.9559C125.594 41.0459 125.504 41.1359 125.414 41.1359C124.784 41.411 124.244 41.6835 123.614 41.956C122.805 42.3185 121.905 42.6836 121.095 43.1386L118.126 44.5012L115.696 45.5939L112.727 46.959C111.917 47.3241 111.107 47.6866 110.207 48.1417C109.577 48.4142 108.857 48.7793 108.227 49.0518C108.137 49.0518 108.137 49.1418 108.048 49.0518H107.958C108.227 48.5967 108.497 48.2316 108.767 47.7792C110.207 45.3214 111.737 42.8661 113.177 40.4083C114.706 37.7731 116.326 35.1328 117.856 32.495C119.295 30.0398 120.735 27.5845 122.175 25.2193C123.255 23.3965 124.334 21.6714 125.324 19.8486C125.504 19.8486 125.504 19.7586 125.594 19.7586C125.594 19.7586 125.504 19.7586 125.594 19.7586Z" fill="#8C8C8C"/>
<path d="M143.051 49.0518C141.701 49.962 140.261 50.7795 138.911 51.5971C134.502 54.2374 130.183 56.7852 125.774 59.423C125.684 59.423 125.684 59.5129 125.594 59.5129C125.504 59.5129 125.504 59.423 125.504 59.423V41.136C125.504 41.046 125.594 41.046 125.684 41.046C126.044 41.2259 126.404 41.411 126.854 41.591C127.934 42.1386 129.103 42.5937 130.183 43.1387C131.173 43.5938 132.073 44.0488 133.063 44.4113C134.052 44.8664 134.952 45.3214 135.942 45.7765C136.752 46.1416 137.652 46.5041 138.462 46.9591C139.271 47.3242 140.171 47.6867 140.981 48.1417C141.611 48.4143 142.241 48.7793 142.961 49.0518C142.961 48.9619 142.961 49.0518 143.051 49.0518Z" fill="#141414"/>
<path d="M125.594 77.3449C125.504 77.3449 125.594 77.3449 125.594 77.3449C125.504 77.3449 125.504 77.3449 125.414 77.2523C123.614 74.7071 121.905 72.2493 120.105 69.7015L114.706 62.0607C112.996 59.6055 111.197 57.1503 109.487 54.5999L108.137 52.6897C108.137 52.5997 108.047 52.5997 108.047 52.5097C108.137 52.5097 108.137 52.5997 108.227 52.5997C110.657 54.0549 113.176 55.51 115.606 56.9652C118.395 58.6954 121.275 60.3331 124.064 62.0607C124.514 62.3332 125.054 62.6058 125.504 62.8783C125.594 62.8783 125.594 62.9708 125.594 63.0608V77.3449Z" fill="#8C8C8C"/>
<path d="M107.958 48.0996C107.958 48.0097 107.958 48.0097 107.958 48.0996C108.857 47.6446 109.757 47.2821 110.657 46.827L114.166 45.1893C115.066 44.7343 115.966 44.3718 116.866 43.9167C118.126 43.2791 119.475 42.7341 120.735 42.0965C121.635 41.7314 122.535 41.2764 123.435 40.9139C124.064 40.6414 124.694 40.3689 125.324 40.0038C125.414 40.0038 125.414 39.9138 125.504 39.9138V58.4708C125.414 58.5633 125.414 58.4708 125.324 58.4708C125.054 58.2908 124.784 58.1982 124.604 58.0157L108.137 48.1922C108.048 48.0996 107.958 48.0996 107.958 48.0996ZM142.781 51.4676C142.781 51.5575 142.781 51.5575 142.691 51.6475C137.472 59.1083 132.253 66.4766 127.034 73.9375C126.494 74.755 125.954 75.4826 125.414 76.3027V61.8361C126.584 61.1085 127.754 60.381 128.923 59.7459L142.691 51.5575C142.691 51.4675 142.781 51.4676 142.781 51.4676Z" fill="#3C3C3B"/>
<path d="M125.594 41.0459V19.8537L142.871 48.7818C142.961 48.8718 143.051 48.9618 143.051 49.0543C142.691 48.8744 142.331 48.6893 141.881 48.5093C141.431 48.3268 140.981 48.0542 140.531 47.8717C140.261 47.7817 139.991 47.5992 139.631 47.5066C139.181 47.3267 138.642 47.0516 138.192 46.8716C137.922 46.7791 137.652 46.5991 137.382 46.5065L135.492 45.689C135.132 45.5065 134.862 45.4165 134.502 45.2339C134.052 45.0514 133.603 44.7789 133.153 44.5963C132.883 44.5064 132.613 44.3238 132.343 44.2338L130.453 43.4137C130.093 43.2338 129.823 43.1412 129.463 42.9587C129.013 42.7787 128.564 42.5036 128.114 42.3211C127.844 42.1411 127.484 42.0486 127.214 41.8686L125.594 41.0485V41.0459Z" fill="#343434"/>
<path opacity="0.7" d="M75.4635 110V95.88H78.6035V110H75.4635ZM77.8635 110V107.28H85.6035V110H77.8635ZM77.8635 104.1V101.48H84.9035V104.1H77.8635ZM77.8635 98.58V95.88H85.5035V98.58H77.8635ZM90.8682 110V96.26H93.9282V110H90.8682ZM88.6682 102.88V100.28H96.1282V102.88H88.6682ZM105.896 110V104.46C105.896 103.953 105.736 103.547 105.416 103.24C105.11 102.92 104.716 102.76 104.236 102.76C103.903 102.76 103.61 102.833 103.356 102.98C103.103 103.113 102.903 103.313 102.756 103.58C102.61 103.833 102.536 104.127 102.536 104.46L101.356 103.88C101.356 103.12 101.516 102.453 101.836 101.88C102.156 101.307 102.603 100.867 103.176 100.56C103.75 100.24 104.41 100.08 105.156 100.08C105.916 100.08 106.583 100.24 107.156 100.56C107.73 100.867 108.17 101.3 108.476 101.86C108.796 102.407 108.956 103.047 108.956 103.78V110H105.896ZM99.4765 110V95.48H102.536V110H99.4765ZM117.722 110.22C116.668 110.22 115.728 110.007 114.902 109.58C114.088 109.14 113.448 108.533 112.982 107.76C112.515 106.987 112.282 106.113 112.282 105.14C112.282 104.167 112.508 103.3 112.962 102.54C113.428 101.767 114.055 101.16 114.842 100.72C115.628 100.28 116.515 100.06 117.502 100.06C118.462 100.06 119.308 100.267 120.042 100.68C120.775 101.093 121.348 101.667 121.762 102.4C122.188 103.133 122.402 103.973 122.402 104.92C122.402 105.093 122.388 105.28 122.362 105.48C122.348 105.667 122.315 105.887 122.262 106.14L113.882 106.16V104.06L120.962 104.04L119.642 104.92C119.628 104.36 119.542 103.9 119.382 103.54C119.222 103.167 118.982 102.887 118.662 102.7C118.355 102.5 117.975 102.4 117.522 102.4C117.042 102.4 116.622 102.513 116.262 102.74C115.915 102.953 115.642 103.26 115.442 103.66C115.255 104.06 115.162 104.547 115.162 105.12C115.162 105.693 115.262 106.187 115.462 106.6C115.675 107 115.968 107.313 116.342 107.54C116.728 107.753 117.182 107.86 117.702 107.86C118.182 107.86 118.615 107.78 119.002 107.62C119.388 107.447 119.728 107.193 120.022 106.86L121.702 108.54C121.222 109.1 120.642 109.52 119.962 109.8C119.282 110.08 118.535 110.22 117.722 110.22ZM125.879 110V100.28H128.939V110H125.879ZM128.939 104.66L127.659 103.66C127.912 102.527 128.339 101.647 128.939 101.02C129.539 100.393 130.372 100.08 131.439 100.08C131.905 100.08 132.312 100.153 132.659 100.3C133.019 100.433 133.332 100.647 133.599 100.94L131.779 103.24C131.645 103.093 131.479 102.98 131.279 102.9C131.079 102.82 130.852 102.78 130.599 102.78C130.092 102.78 129.685 102.94 129.379 103.26C129.085 103.567 128.939 104.033 128.939 104.66ZM140.941 110.22C139.887 110.22 138.947 110.007 138.121 109.58C137.307 109.14 136.667 108.533 136.201 107.76C135.734 106.987 135.501 106.113 135.501 105.14C135.501 104.167 135.727 103.3 136.181 102.54C136.647 101.767 137.274 101.16 138.061 100.72C138.847 100.28 139.734 100.06 140.721 100.06C141.681 100.06 142.527 100.267 143.261 100.68C143.994 101.093 144.567 101.667 144.981 102.4C145.407 103.133 145.621 103.973 145.621 104.92C145.621 105.093 145.607 105.28 145.581 105.48C145.567 105.667 145.534 105.887 145.481 106.14L137.101 106.16V104.06L144.181 104.04L142.861 104.92C142.847 104.36 142.761 103.9 142.601 103.54C142.441 103.167 142.201 102.887 141.881 102.7C141.574 102.5 141.194 102.4 140.741 102.4C140.261 102.4 139.841 102.513 139.481 102.74C139.134 102.953 138.861 103.26 138.661 103.66C138.474 104.06 138.381 104.547 138.381 105.12C138.381 105.693 138.481 106.187 138.681 106.6C138.894 107 139.187 107.313 139.561 107.54C139.947 107.753 140.401 107.86 140.921 107.86C141.401 107.86 141.834 107.78 142.221 107.62C142.607 107.447 142.947 107.193 143.241 106.86L144.921 108.54C144.441 109.1 143.861 109.52 143.181 109.8C142.501 110.08 141.754 110.22 140.941 110.22ZM153.418 110.22C152.524 110.22 151.731 110.04 151.038 109.68C150.358 109.307 149.824 108.8 149.438 108.16C149.051 107.507 148.858 106.76 148.858 105.92V100.28H151.918V105.88C151.918 106.213 151.971 106.5 152.078 106.74C152.198 106.98 152.371 107.167 152.598 107.3C152.824 107.433 153.098 107.5 153.418 107.5C153.871 107.5 154.231 107.36 154.498 107.08C154.764 106.787 154.898 106.387 154.898 105.88V100.28H157.958V105.9C157.958 106.753 157.764 107.507 157.378 108.16C156.991 108.8 156.458 109.307 155.778 109.68C155.098 110.04 154.311 110.22 153.418 110.22ZM161.879 110V100.28H164.939V110H161.879ZM168.099 110V104.32C168.099 103.827 167.945 103.447 167.639 103.18C167.345 102.9 166.979 102.76 166.539 102.76C166.232 102.76 165.959 102.827 165.719 102.96C165.479 103.08 165.285 103.253 165.139 103.48C165.005 103.707 164.939 103.987 164.939 104.32L163.759 103.8C163.759 103.027 163.925 102.367 164.259 101.82C164.592 101.26 165.045 100.833 165.619 100.54C166.192 100.233 166.839 100.08 167.559 100.08C168.239 100.08 168.845 100.233 169.379 100.54C169.925 100.847 170.359 101.273 170.679 101.82C170.999 102.367 171.159 103.02 171.159 103.78V110H168.099ZM174.319 110V104.32C174.319 103.827 174.165 103.447 173.859 103.18C173.565 102.9 173.199 102.76 172.759 102.76C172.452 102.76 172.179 102.827 171.939 102.96C171.699 103.08 171.505 103.253 171.359 103.48C171.225 103.707 171.159 103.987 171.159 104.32L169.399 104.08C169.425 103.253 169.619 102.547 169.979 101.96C170.352 101.36 170.839 100.9 171.439 100.58C172.052 100.247 172.739 100.08 173.499 100.08C174.245 100.08 174.905 100.24 175.479 100.56C176.065 100.867 176.525 101.313 176.859 101.9C177.205 102.473 177.379 103.167 177.379 103.98V110H174.319Z" fill="white"/>
<defs>
<filter id="filter0_b_68_112" x="-24.9546" y="-25" width="303" height="178" filterUnits="userSpaceOnUse" color-interpolation-filters="sRGB">
<feFlood flood-opacity="0" result="BackgroundImageFix"/>
<feGaussianBlur in="BackgroundImageFix" stdDeviation="12.5"/>
<feComposite in2="SourceAlpha" operator="in" result="effect1_backgroundBlur_68_112"/>
<feBlend mode="normal" in="SourceGraphic" in2="effect1_backgroundBlur_68_112" result="shape"/>
</filter>
<linearGradient id="paint0_linear_68_112" x1="-11.528" y1="-10.2128" x2="93.6835" y2="227.682" gradientUnits="userSpaceOnUse">
<stop stop-color="white" stop-opacity="0.44"/>
<stop offset="1" stop-color="#8F8F8F" stop-opacity="0.21"/>
</linearGradient>
</defs>
</svg>
