<svg width="254" height="128" viewBox="0 0 254 128" fill="none" xmlns="http://www.w3.org/2000/svg">
<g filter="url(#filter0_b_68_117)">
<rect x="0.0454102" width="253" height="128" rx="6" fill="url(#paint0_linear_68_117)" fill-opacity="0.1"/>
</g>
<path d="M148.521 22.5175L126.052 39.276L130.207 29.3887L148.521 22.5175Z" fill="#E2761B"/>
<path d="M96.6485 22.5175L118.938 39.4348L114.986 29.3887L96.6485 22.5175ZM140.437 61.3637L134.452 70.5707L147.257 74.1084L150.938 61.5678L140.437 61.3637ZM94.2773 61.5678L97.9358 74.1084L110.74 70.5707L104.756 61.3637L94.2773 61.5678Z" fill="#E4761B"/>
<path d="M110.018 45.8071L106.449 51.227L119.164 51.7939L118.712 38.0741L110.018 45.8071ZM135.152 45.8071L126.345 37.9154L126.051 51.7939L138.743 51.227L135.152 45.8071ZM110.74 70.5707L118.373 66.829L111.779 61.6586L110.74 70.5707ZM126.797 66.829L134.452 70.5707L133.391 61.6586L126.797 66.829Z" fill="#E4761B"/>
<path d="M134.452 70.5707L126.797 66.829L127.406 71.8407L127.339 73.9496L134.452 70.5707ZM110.74 70.5707L117.854 73.9496L117.809 71.8407L118.373 66.829L110.74 70.5707Z" fill="#D7C1B3"/>
<path d="M117.967 58.3476L111.598 56.4654L116.092 54.4018L117.967 58.3476ZM127.203 58.3476L129.077 54.4018L133.594 56.4654L127.203 58.3476Z" fill="#233447"/>
<path d="M110.74 70.5708L111.824 61.3638L104.756 61.5679L110.74 70.5708ZM133.368 61.3638L134.452 70.5708L140.437 61.5679L133.368 61.3638ZM138.743 51.227L126.051 51.7939L127.226 58.3477L129.1 54.4018L133.617 56.4655L138.743 51.227ZM111.598 56.4655L116.115 54.4018L117.967 58.3477L119.164 51.7939L106.45 51.227L111.598 56.4655Z" fill="#CD6116"/>
<path d="M106.449 51.227L111.779 61.6586L111.598 56.4655L106.449 51.227ZM133.617 56.4655L133.391 61.6586L138.743 51.227L133.617 56.4655ZM119.164 51.7939L117.967 58.3477L119.457 66.0806L119.796 55.8985L119.164 51.7939ZM126.051 51.7939L125.442 55.8759L125.713 66.0806L127.226 58.3477L126.051 51.7939Z" fill="#E4751F"/>
<path d="M127.226 58.3477L125.713 66.0807L126.797 66.829L133.391 61.6586L133.617 56.4655L127.226 58.3477ZM111.598 56.4655L111.779 61.6586L118.373 66.829L119.457 66.0807L117.967 58.3477L111.598 56.4655Z" fill="#F6851B"/>
<path d="M127.339 73.9497L127.406 71.8407L126.842 71.3418H118.328L117.809 71.8407L117.854 73.9497L110.74 70.5707L113.224 72.6117L118.26 76.1267H126.91L131.968 72.6117L134.452 70.5707L127.339 73.9497Z" fill="#C0AD9E"/>
<path d="M126.797 66.829L125.713 66.0807H119.457L118.373 66.829L117.809 71.8407L118.328 71.3418H126.842L127.406 71.8407L126.797 66.829Z" fill="#161616"/>
<path d="M149.47 40.3645L151.389 31.1122L148.521 22.5175L126.797 38.7091L135.152 45.8071L146.963 49.2767L149.583 46.2153L148.454 45.3989L150.26 43.7435L148.86 42.6549L150.667 41.2716L149.47 40.3645ZM93.8032 31.1122L95.7228 40.3645L94.5033 41.2716L96.3099 42.6549L94.9324 43.7435L96.739 45.3989L95.6098 46.2153L98.2069 49.2767L110.018 45.8071L118.373 38.7091L96.6487 22.5175L93.8032 31.1122Z" fill="#763D16"/>
<path d="M146.963 49.2767L135.152 45.8071L138.743 51.227L133.391 61.6585L140.437 61.5678H150.938L146.963 49.2767ZM110.018 45.8071L98.2068 49.2767L94.2773 61.5678H104.756L111.779 61.6585L106.449 51.227L110.018 45.8071ZM126.051 51.7939L126.797 38.7091L130.229 29.3887H114.986L118.373 38.7091L119.164 51.7939L119.435 55.9212L119.457 66.0806H125.713L125.758 55.9212L126.051 51.7939Z" fill="#F6851B"/>
<path opacity="0.7" d="M72.5363 109V94.88H74.7763L80.3363 103.54H79.1963L84.7363 94.88H86.9963V109H83.8563V100.18L84.4163 100.32L80.7963 105.96H78.7163L75.1163 100.32L75.6563 100.18V109H72.5363ZM96.2242 109.22C95.1709 109.22 94.2309 109.007 93.4042 108.58C92.5909 108.14 91.9509 107.533 91.4842 106.76C91.0176 105.987 90.7842 105.113 90.7842 104.14C90.7842 103.167 91.0109 102.3 91.4642 101.54C91.9309 100.767 92.5576 100.16 93.3442 99.72C94.1309 99.28 95.0176 99.06 96.0042 99.06C96.9642 99.06 97.8109 99.2667 98.5442 99.68C99.2776 100.093 99.8509 100.667 100.264 101.4C100.691 102.133 100.904 102.973 100.904 103.92C100.904 104.093 100.891 104.28 100.864 104.48C100.851 104.667 100.818 104.887 100.764 105.14L92.3842 105.16V103.06L99.4642 103.04L98.1442 103.92C98.1309 103.36 98.0442 102.9 97.8842 102.54C97.7242 102.167 97.4842 101.887 97.1642 101.7C96.8576 101.5 96.4776 101.4 96.0242 101.4C95.5442 101.4 95.1242 101.513 94.7642 101.74C94.4176 101.953 94.1442 102.26 93.9442 102.66C93.7576 103.06 93.6642 103.547 93.6642 104.12C93.6642 104.693 93.7642 105.187 93.9642 105.6C94.1776 106 94.4709 106.313 94.8442 106.54C95.2309 106.753 95.6842 106.86 96.2042 106.86C96.6842 106.86 97.1176 106.78 97.5042 106.62C97.8909 106.447 98.2309 106.193 98.5242 105.86L100.204 107.54C99.7242 108.1 99.1442 108.52 98.4642 108.8C97.7842 109.08 97.0376 109.22 96.2242 109.22ZM105.546 109V95.26H108.606V109H105.546ZM103.346 101.88V99.28H110.806V101.88H103.346ZM118.019 109.2C117.126 109.2 116.326 108.98 115.619 108.54C114.926 108.1 114.373 107.5 113.959 106.74C113.559 105.98 113.359 105.113 113.359 104.14C113.359 103.167 113.559 102.3 113.959 101.54C114.373 100.78 114.926 100.18 115.619 99.74C116.326 99.3 117.126 99.08 118.019 99.08C118.673 99.08 119.259 99.2067 119.779 99.46C120.313 99.7133 120.746 100.067 121.079 100.52C121.413 100.96 121.599 101.467 121.639 102.04V106.24C121.599 106.813 121.413 107.327 121.079 107.78C120.759 108.22 120.333 108.567 119.799 108.82C119.266 109.073 118.673 109.2 118.019 109.2ZM118.639 106.44C119.293 106.44 119.819 106.227 120.219 105.8C120.619 105.36 120.819 104.807 120.819 104.14C120.819 103.687 120.726 103.287 120.539 102.94C120.366 102.593 120.113 102.327 119.779 102.14C119.459 101.94 119.086 101.84 118.659 101.84C118.233 101.84 117.853 101.94 117.519 102.14C117.199 102.327 116.939 102.593 116.739 102.94C116.553 103.287 116.459 103.687 116.459 104.14C116.459 104.58 116.553 104.973 116.739 105.32C116.926 105.667 117.186 105.94 117.519 106.14C117.853 106.34 118.226 106.44 118.639 106.44ZM120.699 109V106.38L121.159 104.02L120.699 101.66V99.28H123.699V109H120.699ZM128.134 109V94.88H130.374L135.934 103.54H134.794L140.334 94.88H142.594V109H139.454V100.18L140.014 100.32L136.394 105.96H134.314L130.714 100.32L131.254 100.18V109H128.134ZM151.082 109.2C150.189 109.2 149.389 108.98 148.682 108.54C147.989 108.1 147.435 107.5 147.022 106.74C146.622 105.98 146.422 105.113 146.422 104.14C146.422 103.167 146.622 102.3 147.022 101.54C147.435 100.78 147.989 100.18 148.682 99.74C149.389 99.3 150.189 99.08 151.082 99.08C151.735 99.08 152.322 99.2067 152.842 99.46C153.375 99.7133 153.809 100.067 154.142 100.52C154.475 100.96 154.662 101.467 154.702 102.04V106.24C154.662 106.813 154.475 107.327 154.142 107.78C153.822 108.22 153.395 108.567 152.862 108.82C152.329 109.073 151.735 109.2 151.082 109.2ZM151.702 106.44C152.355 106.44 152.882 106.227 153.282 105.8C153.682 105.36 153.882 104.807 153.882 104.14C153.882 103.687 153.789 103.287 153.602 102.94C153.429 102.593 153.175 102.327 152.842 102.14C152.522 101.94 152.149 101.84 151.722 101.84C151.295 101.84 150.915 101.94 150.582 102.14C150.262 102.327 150.002 102.593 149.802 102.94C149.615 103.287 149.522 103.687 149.522 104.14C149.522 104.58 149.615 104.973 149.802 105.32C149.989 105.667 150.249 105.94 150.582 106.14C150.915 106.34 151.289 106.44 151.702 106.44ZM153.762 109V106.38L154.222 104.02L153.762 101.66V99.28H156.762V109H153.762ZM164.456 109.24C163.883 109.24 163.316 109.167 162.756 109.02C162.21 108.873 161.696 108.667 161.216 108.4C160.75 108.12 160.35 107.8 160.016 107.44L161.756 105.68C162.076 106.027 162.456 106.3 162.896 106.5C163.336 106.687 163.816 106.78 164.336 106.78C164.696 106.78 164.97 106.727 165.156 106.62C165.356 106.513 165.456 106.367 165.456 106.18C165.456 105.94 165.336 105.76 165.096 105.64C164.87 105.507 164.576 105.393 164.216 105.3C163.856 105.193 163.476 105.08 163.076 104.96C162.676 104.84 162.296 104.673 161.936 104.46C161.576 104.247 161.283 103.953 161.056 103.58C160.83 103.193 160.716 102.707 160.716 102.12C160.716 101.493 160.876 100.953 161.196 100.5C161.516 100.033 161.97 99.6667 162.556 99.4C163.143 99.1333 163.83 99 164.616 99C165.443 99 166.203 99.1467 166.896 99.44C167.603 99.72 168.176 100.14 168.616 100.7L166.876 102.46C166.57 102.1 166.223 101.847 165.836 101.7C165.463 101.553 165.096 101.48 164.736 101.48C164.39 101.48 164.13 101.533 163.956 101.64C163.783 101.733 163.696 101.873 163.696 102.06C163.696 102.26 163.81 102.42 164.036 102.54C164.263 102.66 164.556 102.767 164.916 102.86C165.276 102.953 165.656 103.067 166.056 103.2C166.456 103.333 166.836 103.513 167.196 103.74C167.556 103.967 167.85 104.273 168.076 104.66C168.303 105.033 168.416 105.527 168.416 106.14C168.416 107.087 168.056 107.84 167.336 108.4C166.63 108.96 165.67 109.24 164.456 109.24ZM178.297 109L174.897 103.96L178.277 99.28H181.697L177.617 104.54L177.717 103.28L181.897 109H178.297ZM172.077 109V94.48H175.137V109H172.077Z" fill="white"/>
<defs>
<filter id="filter0_b_68_117" x="-24.9546" y="-25" width="303" height="178" filterUnits="userSpaceOnUse" color-interpolation-filters="sRGB">
<feFlood flood-opacity="0" result="BackgroundImageFix"/>
<feGaussianBlur in="BackgroundImageFix" stdDeviation="12.5"/>
<feComposite in2="SourceAlpha" operator="in" result="effect1_backgroundBlur_68_117"/>
<feBlend mode="normal" in="SourceGraphic" in2="effect1_backgroundBlur_68_117" result="shape"/>
</filter>
<linearGradient id="paint0_linear_68_117" x1="-11.528" y1="-10.2128" x2="93.6835" y2="227.682" gradientUnits="userSpaceOnUse">
<stop stop-color="white" stop-opacity="0.44"/>
<stop offset="1" stop-color="#8F8F8F" stop-opacity="0.21"/>
</linearGradient>
</defs>
</svg>
