<svg width="255" height="128" viewBox="0 0 255 128" fill="none" xmlns="http://www.w3.org/2000/svg">
<g filter="url(#filter0_b_68_101)">
<rect width="254.045" height="128" rx="6" fill="url(#paint0_linear_68_101)" fill-opacity="0.1"/>
</g>
<ellipse cx="128.779" cy="43.7282" rx="28.7931" ry="25.6074" fill="#F7931A"/>
<path fill-rule="evenodd" clip-rule="evenodd" d="M133.73 43.6571C135.473 43.2811 136.792 42.2271 137.155 40.0581C137.657 37.0954 135.204 35.5161 131.843 34.4717L132.959 30.4567L130.295 29.8622L129.207 33.7712C128.509 33.6138 127.79 33.4659 127.075 33.3213L128.17 29.385L125.507 28.7905L124.391 32.804C123.811 32.6867 123.241 32.5694 122.689 32.4457L122.693 32.4345L119.02 31.6118L118.294 34.2211C118.294 34.2211 120.27 34.6276 120.227 34.6517C121.308 34.8943 121.499 35.5466 121.463 36.0655L120.191 40.6397C120.286 40.6609 120.379 40.6877 120.469 40.7201L120.186 40.6574L118.405 47.0648C118.271 47.3653 117.934 47.8168 117.178 47.6513C117.205 47.685 115.243 47.2175 115.243 47.2175L113.902 50.0163L117.369 50.7923C117.76 50.8799 118.145 50.9698 118.527 51.0589L118.527 51.059L118.527 51.059C118.776 51.117 119.023 51.1746 119.269 51.2309L118.14 55.2926L120.799 55.8871L121.917 51.8704C122.622 52.0418 123.329 52.2062 124.038 52.3636L122.925 56.3643L125.588 56.9587L126.717 52.9067C131.261 53.6699 134.683 53.3357 136.145 49.5648C137.322 46.5282 136.114 44.7866 133.73 43.6571ZM145.795 53.1958L146.772 49.6885L150.683 50.5641L151.333 48.2248L147.422 47.3508L148.397 43.8434L145.79 43.2602L144.813 46.7675L140.902 45.8935L140.252 48.2312L144.163 49.1053L143.188 52.6142L145.795 53.1958ZM131.015 47.9068C131.806 45.0616 127.205 44.1378 124.955 43.686L124.955 43.686C124.702 43.6352 124.479 43.5904 124.296 43.5495L122.804 48.927C122.953 48.9603 123.129 49.0018 123.325 49.0484C125.5 49.5637 130.247 50.6888 131.019 47.9052L131.015 47.9068ZM126.888 36.3194C128.764 36.6906 132.606 37.4508 131.888 40.0405C131.183 42.5737 127.222 41.6224 125.413 41.1879C125.251 41.149 125.106 41.1142 124.983 41.0864L126.339 36.207C126.491 36.2409 126.677 36.2777 126.888 36.3194Z" fill="white"/>
<path opacity="0.7" d="M76.1282 110V107.56H79.4482C80.0615 107.56 80.5415 107.38 80.8882 107.02C81.2348 106.66 81.4082 106.22 81.4082 105.7C81.4082 105.34 81.3282 105.02 81.1682 104.74C81.0082 104.46 80.7815 104.24 80.4882 104.08C80.2082 103.92 79.8615 103.84 79.4482 103.84H76.1282V101.46H79.1882C79.7082 101.46 80.1282 101.333 80.4482 101.08C80.7682 100.813 80.9282 100.413 80.9282 99.88C80.9282 99.36 80.7682 98.9733 80.4482 98.72C80.1282 98.4533 79.7082 98.32 79.1882 98.32H76.1282V95.88H79.7882C80.6948 95.88 81.4615 96.0467 82.0882 96.38C82.7282 96.7133 83.2148 97.16 83.5482 97.72C83.8815 98.28 84.0482 98.9 84.0482 99.58C84.0482 100.447 83.7682 101.18 83.2082 101.78C82.6482 102.38 81.8215 102.793 80.7282 103.02L80.8082 101.96C81.9948 102.187 82.9082 102.647 83.5482 103.34C84.2015 104.033 84.5282 104.887 84.5282 105.9C84.5282 106.673 84.3348 107.373 83.9482 108C83.5748 108.613 83.0282 109.1 82.3082 109.46C81.6015 109.82 80.7482 110 79.7482 110H76.1282ZM73.7282 110V95.88H76.8282V110H73.7282ZM88.2607 110V100.28H91.3207V110H88.2607ZM89.8007 98.94C89.3207 98.94 88.9207 98.78 88.6007 98.46C88.294 98.1267 88.1407 97.7267 88.1407 97.26C88.1407 96.78 88.294 96.38 88.6007 96.06C88.9207 95.74 89.3207 95.58 89.8007 95.58C90.2807 95.58 90.674 95.74 90.9807 96.06C91.2873 96.38 91.4407 96.78 91.4407 97.26C91.4407 97.7267 91.2873 98.1267 90.9807 98.46C90.674 98.78 90.2807 98.94 89.8007 98.94ZM96.8555 110V96.26H99.9155V110H96.8555ZM94.6555 102.88V100.28H102.116V102.88H94.6555ZM109.948 110.22C108.948 110.22 108.042 110 107.228 109.56C106.428 109.107 105.795 108.493 105.328 107.72C104.862 106.947 104.628 106.08 104.628 105.12C104.628 104.16 104.862 103.3 105.328 102.54C105.795 101.78 106.428 101.18 107.228 100.74C108.028 100.287 108.935 100.06 109.948 100.06C110.962 100.06 111.868 100.28 112.668 100.72C113.468 101.16 114.102 101.767 114.568 102.54C115.035 103.3 115.268 104.16 115.268 105.12C115.268 106.08 115.035 106.947 114.568 107.72C114.102 108.493 113.468 109.107 112.668 109.56C111.868 110 110.962 110.22 109.948 110.22ZM109.948 107.44C110.388 107.44 110.775 107.347 111.108 107.16C111.442 106.96 111.695 106.687 111.868 106.34C112.055 105.98 112.148 105.573 112.148 105.12C112.148 104.667 112.055 104.273 111.868 103.94C111.682 103.593 111.422 103.327 111.088 103.14C110.768 102.94 110.388 102.84 109.948 102.84C109.522 102.84 109.142 102.94 108.808 103.14C108.475 103.327 108.215 103.593 108.028 103.94C107.842 104.287 107.748 104.687 107.748 105.14C107.748 105.58 107.842 105.98 108.028 106.34C108.215 106.687 108.475 106.96 108.808 107.16C109.142 107.347 109.522 107.44 109.948 107.44ZM118.792 110V100.28H121.852V110H118.792ZM120.332 98.94C119.852 98.94 119.452 98.78 119.132 98.46C118.825 98.1267 118.672 97.7267 118.672 97.26C118.672 96.78 118.825 96.38 119.132 96.06C119.452 95.74 119.852 95.58 120.332 95.58C120.812 95.58 121.205 95.74 121.512 96.06C121.819 96.38 121.972 96.78 121.972 97.26C121.972 97.7267 121.819 98.1267 121.512 98.46C121.205 98.78 120.812 98.94 120.332 98.94ZM132.427 110V104.46C132.427 103.953 132.267 103.547 131.947 103.24C131.64 102.92 131.247 102.76 130.767 102.76C130.433 102.76 130.14 102.833 129.887 102.98C129.633 103.113 129.433 103.313 129.287 103.58C129.14 103.833 129.067 104.127 129.067 104.46L127.887 103.88C127.887 103.12 128.053 102.453 128.387 101.88C128.72 101.307 129.18 100.867 129.767 100.56C130.367 100.24 131.04 100.08 131.787 100.08C132.507 100.08 133.14 100.253 133.687 100.6C134.247 100.933 134.687 101.38 135.007 101.94C135.327 102.5 135.487 103.113 135.487 103.78V110H132.427ZM126.007 110V100.28H129.067V110H126.007ZM142.132 104.86V102.42H145.172C145.559 102.42 145.912 102.34 146.232 102.18C146.552 102.02 146.805 101.787 146.992 101.48C147.179 101.173 147.272 100.8 147.272 100.36C147.272 99.9333 147.179 99.5667 146.992 99.26C146.805 98.9533 146.552 98.72 146.232 98.56C145.912 98.4 145.559 98.32 145.172 98.32H142.132V95.88H145.632C146.525 95.88 147.332 96.06 148.052 96.42C148.772 96.78 149.339 97.3 149.752 97.98C150.179 98.6467 150.392 99.44 150.392 100.36C150.392 101.28 150.179 102.08 149.752 102.76C149.339 103.427 148.772 103.947 148.052 104.32C147.332 104.68 146.525 104.86 145.632 104.86H142.132ZM139.732 110V95.88H142.872V110H139.732ZM154.011 110V95.48H157.071V110H154.011ZM165.546 110.22C164.652 110.22 163.859 110.04 163.166 109.68C162.486 109.307 161.952 108.8 161.566 108.16C161.179 107.507 160.986 106.76 160.986 105.92V100.28H164.046V105.88C164.046 106.213 164.099 106.5 164.206 106.74C164.326 106.98 164.499 107.167 164.726 107.3C164.952 107.433 165.226 107.5 165.546 107.5C165.999 107.5 166.359 107.36 166.626 107.08C166.892 106.787 167.026 106.387 167.026 105.88V100.28H170.086V105.9C170.086 106.753 169.892 107.507 169.506 108.16C169.119 108.8 168.586 109.307 167.906 109.68C167.226 110.04 166.439 110.22 165.546 110.22ZM177.547 110.24C176.973 110.24 176.407 110.167 175.847 110.02C175.3 109.873 174.787 109.667 174.307 109.4C173.84 109.12 173.44 108.8 173.107 108.44L174.847 106.68C175.167 107.027 175.547 107.3 175.987 107.5C176.427 107.687 176.907 107.78 177.427 107.78C177.787 107.78 178.06 107.727 178.247 107.62C178.447 107.513 178.547 107.367 178.547 107.18C178.547 106.94 178.427 106.76 178.187 106.64C177.96 106.507 177.667 106.393 177.307 106.3C176.947 106.193 176.567 106.08 176.167 105.96C175.767 105.84 175.387 105.673 175.027 105.46C174.667 105.247 174.373 104.953 174.147 104.58C173.92 104.193 173.807 103.707 173.807 103.12C173.807 102.493 173.967 101.953 174.287 101.5C174.607 101.033 175.06 100.667 175.647 100.4C176.233 100.133 176.92 100 177.707 100C178.533 100 179.293 100.147 179.987 100.44C180.693 100.72 181.267 101.14 181.707 101.7L179.967 103.46C179.66 103.1 179.313 102.847 178.927 102.7C178.553 102.553 178.187 102.48 177.827 102.48C177.48 102.48 177.22 102.533 177.047 102.64C176.873 102.733 176.787 102.873 176.787 103.06C176.787 103.26 176.9 103.42 177.127 103.54C177.353 103.66 177.647 103.767 178.007 103.86C178.367 103.953 178.747 104.067 179.147 104.2C179.547 104.333 179.927 104.513 180.287 104.74C180.647 104.967 180.94 105.273 181.167 105.66C181.393 106.033 181.507 106.527 181.507 107.14C181.507 108.087 181.147 108.84 180.427 109.4C179.72 109.96 178.76 110.24 177.547 110.24Z" fill="white"/>
<defs>
<filter id="filter0_b_68_101" x="-25" y="-25" width="304.045" height="178" filterUnits="userSpaceOnUse" color-interpolation-filters="sRGB">
<feFlood flood-opacity="0" result="BackgroundImageFix"/>
<feGaussianBlur in="BackgroundImageFix" stdDeviation="12.5"/>
<feComposite in2="SourceAlpha" operator="in" result="effect1_backgroundBlur_68_101"/>
<feBlend mode="normal" in="SourceGraphic" in2="effect1_backgroundBlur_68_101" result="shape"/>
</filter>
<linearGradient id="paint0_linear_68_101" x1="-11.6212" y1="-10.2128" x2="93.2982" y2="228.002" gradientUnits="userSpaceOnUse">
<stop stop-color="white" stop-opacity="0.44"/>
<stop offset="1" stop-color="#8F8F8F" stop-opacity="0.21"/>
</linearGradient>
</defs>
</svg>
