<svg width="254" height="128" viewBox="0 0 254 128" fill="none" xmlns="http://www.w3.org/2000/svg">
<g filter="url(#filter0_b_68_122)">
<rect x="0.0454102" width="253" height="128" rx="6" fill="url(#paint0_linear_68_122)" fill-opacity="0.1"/>
</g>
<path fill-rule="evenodd" clip-rule="evenodd" d="M123.247 65.6598C124.775 71.4886 130.259 75.9366 133.028 75.7544C133.124 75.7478 143.533 73.7477 149.23 63.9342C153.665 56.2984 152.154 48.9262 146.123 48.7659C143.954 48.9284 120.334 54.5531 123.247 65.6598ZM128.485 21.7731C124.558 21.7731 120.83 22.6161 117.458 24.12C116.867 24.3673 116.293 24.6495 115.736 24.9652C115.354 25.1694 114.972 25.3714 114.603 25.5909L114.691 25.6195C113.574 26.3945 112.612 27.2968 111.824 28.3418C104.024 38.6691 130.167 46.1753 144.143 46.2017C150.576 50.8274 152.38 33.174 146.097 28.2738C141.195 24.0669 134.945 21.76 128.485 21.7731Z" fill="#0E3CA5"/>
<path fill-rule="evenodd" clip-rule="evenodd" d="M118.66 27.8282C115.126 33.0204 103.349 36.6802 101.413 36.1094L101.404 36.0874L101.646 35.6198C103.669 31.8234 106.542 28.546 110.041 26.0433C110.766 25.523 111.516 25.0378 112.291 24.5855C113.936 23.6525 115.626 23.5954 116.182 23.5734C121.424 23.67 118.687 27.7865 118.658 27.8282" fill="#5493F7"/>
<mask id="mask0_68_122" style="mask-type:alpha" maskUnits="userSpaceOnUse" x="97" y="39" width="19" height="37">
<path d="M97.8042 39.7682H115.8V75.7579H97.8042V39.7682Z" fill="white"/>
</mask>
<g mask="url(#mask0_68_122)">
<path fill-rule="evenodd" clip-rule="evenodd" d="M115.695 66.7369C115.958 68.4427 115.688 75.1849 115.333 75.7535C115.03 75.7711 114.393 75.8106 112.555 74.7919C108.99 72.783 105.885 70.0487 103.442 66.7654C101.655 64.3605 100.255 61.6907 99.2927 58.8531C98.3024 55.9177 97.7995 52.8399 97.8042 49.742C97.7988 46.3365 98.4071 42.9579 99.6001 39.7682H99.6045C101.712 42.5322 104.149 45.0328 106.219 47.8254C108.193 50.4819 110.907 54.8135 111.458 55.7399C114.887 61.4854 115.434 65.031 115.695 66.7369Z" fill="#5493F7"/>
</g>
<path fill-rule="evenodd" clip-rule="evenodd" d="M155.39 50.0613C155.39 53.7474 154.688 57.2711 153.417 60.5027C150.08 64.1033 127.572 55.2425 127.35 55.1459C124.272 53.7935 114.902 49.6749 114.057 43.2071C112.841 33.9029 131.66 27.4176 139.93 27.1717C140.92 27.1827 143.939 27.2178 145.698 28.6536C148.747 31.3234 151.19 34.6149 152.861 38.307C154.533 41.999 155.396 46.0061 155.39 50.0591V50.0613ZM135.708 73.076C137.054 68.3119 148.822 63.4293 151.419 63.1658C151.739 63.1329 151.876 63.359 151.735 63.6181C149.026 68.5446 145.015 72.6018 140.161 75.2319C137.706 76.4218 135.006 75.5546 135.708 73.076Z" fill="#5493F7"/>
<path opacity="0.7" d="M103.346 110V96.08H106.486V110H103.346ZM98.9259 98.62V95.88H110.906V98.62H98.9259ZM116.855 110.22C115.802 110.22 114.862 110.007 114.035 109.58C113.222 109.14 112.582 108.533 112.115 107.76C111.648 106.987 111.415 106.113 111.415 105.14C111.415 104.167 111.642 103.3 112.095 102.54C112.562 101.767 113.188 101.16 113.975 100.72C114.762 100.28 115.648 100.06 116.635 100.06C117.595 100.06 118.442 100.267 119.175 100.68C119.908 101.093 120.482 101.667 120.895 102.4C121.322 103.133 121.535 103.973 121.535 104.92C121.535 105.093 121.522 105.28 121.495 105.48C121.482 105.667 121.448 105.887 121.395 106.14L113.015 106.16V104.06L120.095 104.04L118.775 104.92C118.762 104.36 118.675 103.9 118.515 103.54C118.355 103.167 118.115 102.887 117.795 102.7C117.488 102.5 117.108 102.4 116.655 102.4C116.175 102.4 115.755 102.513 115.395 102.74C115.048 102.953 114.775 103.26 114.575 103.66C114.388 104.06 114.295 104.547 114.295 105.12C114.295 105.693 114.395 106.187 114.595 106.6C114.808 107 115.102 107.313 115.475 107.54C115.862 107.753 116.315 107.86 116.835 107.86C117.315 107.86 117.748 107.78 118.135 107.62C118.522 107.447 118.862 107.193 119.155 106.86L120.835 108.54C120.355 109.1 119.775 109.52 119.095 109.8C118.415 110.08 117.668 110.22 116.855 110.22ZM125.012 110V100.28H128.072V110H125.012ZM128.072 104.66L126.792 103.66C127.045 102.527 127.472 101.647 128.072 101.02C128.672 100.393 129.505 100.08 130.572 100.08C131.039 100.08 131.445 100.153 131.792 100.3C132.152 100.433 132.465 100.647 132.732 100.94L130.912 103.24C130.779 103.093 130.612 102.98 130.412 102.9C130.212 102.82 129.985 102.78 129.732 102.78C129.225 102.78 128.819 102.94 128.512 103.26C128.219 103.567 128.072 104.033 128.072 104.66ZM135.489 110V100.28H138.549V110H135.489ZM138.549 104.66L137.269 103.66C137.522 102.527 137.949 101.647 138.549 101.02C139.149 100.393 139.982 100.08 141.049 100.08C141.515 100.08 141.922 100.153 142.269 100.3C142.629 100.433 142.942 100.647 143.209 100.94L141.389 103.24C141.255 103.093 141.089 102.98 140.889 102.9C140.689 102.82 140.462 102.78 140.209 102.78C139.702 102.78 139.295 102.94 138.989 103.26C138.695 103.567 138.549 104.033 138.549 104.66ZM149.81 110.2C148.917 110.2 148.117 109.98 147.41 109.54C146.717 109.1 146.164 108.5 145.75 107.74C145.35 106.98 145.15 106.113 145.15 105.14C145.15 104.167 145.35 103.3 145.75 102.54C146.164 101.78 146.717 101.18 147.41 100.74C148.117 100.3 148.917 100.08 149.81 100.08C150.464 100.08 151.05 100.207 151.57 100.46C152.104 100.713 152.537 101.067 152.87 101.52C153.204 101.96 153.39 102.467 153.43 103.04V107.24C153.39 107.813 153.204 108.327 152.87 108.78C152.55 109.22 152.124 109.567 151.59 109.82C151.057 110.073 150.464 110.2 149.81 110.2ZM150.43 107.44C151.084 107.44 151.61 107.227 152.01 106.8C152.41 106.36 152.61 105.807 152.61 105.14C152.61 104.687 152.517 104.287 152.33 103.94C152.157 103.593 151.904 103.327 151.57 103.14C151.25 102.94 150.877 102.84 150.45 102.84C150.024 102.84 149.644 102.94 149.31 103.14C148.99 103.327 148.73 103.593 148.53 103.94C148.344 104.287 148.25 104.687 148.25 105.14C148.25 105.58 148.344 105.973 148.53 106.32C148.717 106.667 148.977 106.94 149.31 107.14C149.644 107.34 150.017 107.44 150.43 107.44ZM152.49 110V107.38L152.95 105.02L152.49 102.66V100.28H155.49V110H152.49Z" fill="white"/>
<defs>
<filter id="filter0_b_68_122" x="-24.9546" y="-25" width="303" height="178" filterUnits="userSpaceOnUse" color-interpolation-filters="sRGB">
<feFlood flood-opacity="0" result="BackgroundImageFix"/>
<feGaussianBlur in="BackgroundImageFix" stdDeviation="12.5"/>
<feComposite in2="SourceAlpha" operator="in" result="effect1_backgroundBlur_68_122"/>
<feBlend mode="normal" in="SourceGraphic" in2="effect1_backgroundBlur_68_122" result="shape"/>
</filter>
<linearGradient id="paint0_linear_68_122" x1="-11.528" y1="-10.2128" x2="93.6835" y2="227.682" gradientUnits="userSpaceOnUse">
<stop stop-color="white" stop-opacity="0.44"/>
<stop offset="1" stop-color="#8F8F8F" stop-opacity="0.21"/>
</linearGradient>
</defs>
</svg>
