<svg width="254" height="128" viewBox="0 0 254 128" fill="none" xmlns="http://www.w3.org/2000/svg">
<g filter="url(#filter0_b_68_144)">
<rect x="0.0908203" width="253" height="128" rx="6" fill="url(#paint0_linear_68_144)" fill-opacity="0.1"/>
</g>
<path opacity="0.7" d="M86.3227 109.22C85.2694 109.22 84.2894 109.04 83.3827 108.68C82.4894 108.307 81.7027 107.787 81.0227 107.12C80.356 106.453 79.836 105.68 79.4627 104.8C79.0894 103.907 78.9027 102.947 78.9027 101.92C78.9027 100.893 79.0894 99.94 79.4627 99.06C79.836 98.1667 80.356 97.3933 81.0227 96.74C81.6894 96.0867 82.4694 95.58 83.3627 95.22C84.2694 94.8467 85.2494 94.66 86.3027 94.66C87.4227 94.66 88.416 94.84 89.2827 95.2C90.1627 95.56 90.9294 96.0533 91.5827 96.68L89.4827 98.8C89.1094 98.4 88.656 98.0867 88.1227 97.86C87.6027 97.6333 86.996 97.52 86.3027 97.52C85.6894 97.52 85.1227 97.6267 84.6027 97.84C84.096 98.04 83.656 98.3333 83.2827 98.72C82.9227 99.1067 82.636 99.5733 82.4227 100.12C82.2227 100.667 82.1227 101.267 82.1227 101.92C82.1227 102.587 82.2227 103.193 82.4227 103.74C82.636 104.287 82.9227 104.753 83.2827 105.14C83.656 105.527 84.096 105.827 84.6027 106.04C85.1227 106.253 85.6894 106.36 86.3027 106.36C87.0227 106.36 87.6494 106.247 88.1827 106.02C88.716 105.793 89.176 105.48 89.5627 105.08L91.6827 107.2C91.0027 107.827 90.2227 108.32 89.3427 108.68C88.476 109.04 87.4694 109.22 86.3227 109.22ZM99.5774 109.22C98.5774 109.22 97.6707 109 96.8574 108.56C96.0574 108.107 95.424 107.493 94.9574 106.72C94.4907 105.947 94.2574 105.08 94.2574 104.12C94.2574 103.16 94.4907 102.3 94.9574 101.54C95.424 100.78 96.0574 100.18 96.8574 99.74C97.6574 99.2867 98.564 99.06 99.5774 99.06C100.591 99.06 101.497 99.28 102.297 99.72C103.097 100.16 103.731 100.767 104.197 101.54C104.664 102.3 104.897 103.16 104.897 104.12C104.897 105.08 104.664 105.947 104.197 106.72C103.731 107.493 103.097 108.107 102.297 108.56C101.497 109 100.591 109.22 99.5774 109.22ZM99.5774 106.44C100.017 106.44 100.404 106.347 100.737 106.16C101.071 105.96 101.324 105.687 101.497 105.34C101.684 104.98 101.777 104.573 101.777 104.12C101.777 103.667 101.684 103.273 101.497 102.94C101.311 102.593 101.051 102.327 100.717 102.14C100.397 101.94 100.017 101.84 99.5774 101.84C99.1507 101.84 98.7707 101.94 98.4374 102.14C98.104 102.327 97.844 102.593 97.6574 102.94C97.4707 103.287 97.3774 103.687 97.3774 104.14C97.3774 104.58 97.4707 104.98 97.6574 105.34C97.844 105.687 98.104 105.96 98.4374 106.16C98.7707 106.347 99.1507 106.44 99.5774 106.44ZM111.207 109L107.087 99.28H110.387L113.187 107.38H111.747L114.547 99.28H117.787L113.667 108.98L111.207 109ZM124.676 109.2C123.783 109.2 122.983 108.98 122.276 108.54C121.583 108.1 121.029 107.5 120.616 106.74C120.216 105.98 120.016 105.113 120.016 104.14C120.016 103.167 120.216 102.3 120.616 101.54C121.029 100.78 121.583 100.18 122.276 99.74C122.983 99.3 123.783 99.08 124.676 99.08C125.329 99.08 125.916 99.2067 126.436 99.46C126.969 99.7133 127.403 100.067 127.736 100.52C128.069 100.96 128.256 101.467 128.296 102.04V106.24C128.256 106.813 128.069 107.327 127.736 107.78C127.416 108.22 126.989 108.567 126.456 108.82C125.923 109.073 125.329 109.2 124.676 109.2ZM125.296 106.44C125.949 106.44 126.476 106.227 126.876 105.8C127.276 105.36 127.476 104.807 127.476 104.14C127.476 103.687 127.383 103.287 127.196 102.94C127.023 102.593 126.769 102.327 126.436 102.14C126.116 101.94 125.743 101.84 125.316 101.84C124.889 101.84 124.509 101.94 124.176 102.14C123.856 102.327 123.596 102.593 123.396 102.94C123.209 103.287 123.116 103.687 123.116 104.14C123.116 104.58 123.209 104.973 123.396 105.32C123.583 105.667 123.843 105.94 124.176 106.14C124.509 106.34 124.883 106.44 125.296 106.44ZM127.356 109V106.38L127.816 104.02L127.356 101.66V99.28H130.356V109H127.356ZM134.511 109V94.48H137.571V109H134.511ZM146.526 109.22C145.472 109.22 144.532 109.007 143.706 108.58C142.892 108.14 142.252 107.533 141.786 106.76C141.319 105.987 141.086 105.113 141.086 104.14C141.086 103.167 141.312 102.3 141.766 101.54C142.232 100.767 142.859 100.16 143.646 99.72C144.432 99.28 145.319 99.06 146.306 99.06C147.266 99.06 148.112 99.2667 148.846 99.68C149.579 100.093 150.152 100.667 150.566 101.4C150.992 102.133 151.206 102.973 151.206 103.92C151.206 104.093 151.192 104.28 151.166 104.48C151.152 104.667 151.119 104.887 151.066 105.14L142.686 105.16V103.06L149.766 103.04L148.446 103.92C148.432 103.36 148.346 102.9 148.186 102.54C148.026 102.167 147.786 101.887 147.466 101.7C147.159 101.5 146.779 101.4 146.326 101.4C145.846 101.4 145.426 101.513 145.066 101.74C144.719 101.953 144.446 102.26 144.246 102.66C144.059 103.06 143.966 103.547 143.966 104.12C143.966 104.693 144.066 105.187 144.266 105.6C144.479 106 144.772 106.313 145.146 106.54C145.532 106.753 145.986 106.86 146.506 106.86C146.986 106.86 147.419 106.78 147.806 106.62C148.192 106.447 148.532 106.193 148.826 105.86L150.506 107.54C150.026 108.1 149.446 108.52 148.766 108.8C148.086 109.08 147.339 109.22 146.526 109.22ZM161.103 109V103.46C161.103 102.953 160.943 102.547 160.623 102.24C160.316 101.92 159.923 101.76 159.443 101.76C159.109 101.76 158.816 101.833 158.563 101.98C158.309 102.113 158.109 102.313 157.963 102.58C157.816 102.833 157.743 103.127 157.743 103.46L156.563 102.88C156.563 102.12 156.729 101.453 157.063 100.88C157.396 100.307 157.856 99.8667 158.443 99.56C159.043 99.24 159.716 99.08 160.463 99.08C161.183 99.08 161.816 99.2533 162.363 99.6C162.923 99.9333 163.363 100.38 163.683 100.94C164.003 101.5 164.163 102.113 164.163 102.78V109H161.103ZM154.683 109V99.28H157.743V109H154.683ZM169.391 109V95.26H172.451V109H169.391ZM167.191 101.88V99.28H174.651V101.88H167.191Z" fill="white"/>
<rect x="95.0908" y="20" width="63" height="63" rx="8" fill="#010427"/>
<path d="M128.222 38.16V28.1936C115.441 28.1936 105.091 38.6578 105.091 50.9733C105.091 63.2895 115.441 73.7542 128.222 73.7542V63.7878C121.4 63.7878 115.211 59.5165 115.211 50.9739C115.211 42.4313 121.4 38.16 128.222 38.16Z" fill="white"/>
<path d="M142.25 39.0899C141.506 39.0899 140.769 38.9449 140.082 38.6631C139.394 38.3813 138.77 37.9682 138.243 37.4475C137.717 36.9268 137.3 36.3087 137.015 35.6283C136.73 34.948 136.584 34.2188 136.584 33.4825C136.584 32.7461 136.73 32.0169 137.015 31.3366C137.3 30.6563 137.717 30.0381 138.243 29.5174C138.77 28.9967 139.394 28.5836 140.082 28.3018C140.769 28.02 141.506 27.875 142.25 27.875C143.753 27.875 145.194 28.4658 146.257 29.5174C147.32 30.569 147.917 31.9953 147.917 33.4825C147.917 34.9697 147.32 36.3959 146.257 37.4475C145.194 38.4991 143.753 39.0899 142.25 39.0899Z" fill="#00DCD7"/>
<path d="M142.25 74.0729C140.747 74.0729 139.306 73.4821 138.243 72.4305C137.181 71.3789 136.584 69.9526 136.584 68.4654C136.584 66.9783 137.181 65.552 138.243 64.5003C139.306 63.4488 140.747 62.858 142.25 62.858C143.753 62.858 145.194 63.4488 146.257 64.5003C147.32 65.552 147.917 66.9783 147.917 68.4654C147.917 69.9526 147.32 71.3789 146.257 72.4305C145.194 73.4821 143.753 74.0729 142.25 74.0729Z" fill="#FF318B"/>
<path d="M128.686 63.3995V38.5482C135.624 38.5482 141.396 44.0707 141.239 50.9729C141.396 57.877 135.625 63.3995 128.686 63.3995Z" fill="white"/>
<defs>
<filter id="filter0_b_68_144" x="-24.9092" y="-25" width="303" height="178" filterUnits="userSpaceOnUse" color-interpolation-filters="sRGB">
<feFlood flood-opacity="0" result="BackgroundImageFix"/>
<feGaussianBlur in="BackgroundImageFix" stdDeviation="12.5"/>
<feComposite in2="SourceAlpha" operator="in" result="effect1_backgroundBlur_68_144"/>
<feBlend mode="normal" in="SourceGraphic" in2="effect1_backgroundBlur_68_144" result="shape"/>
</filter>
<linearGradient id="paint0_linear_68_144" x1="-11.4826" y1="-10.2128" x2="93.7289" y2="227.682" gradientUnits="userSpaceOnUse">
<stop stop-color="white" stop-opacity="0.44"/>
<stop offset="1" stop-color="#8F8F8F" stop-opacity="0.21"/>
</linearGradient>
</defs>
</svg>
