<svg width="769" height="201" viewBox="0 0 769 201" fill="none" xmlns="http://www.w3.org/2000/svg">
<g clip-path="url(#clip0_1_1163)">
<rect width="769" height="201" rx="30" fill="#151515"/>
<path d="M527.357 -108.827C523.137 -107.048 520.573 -103.396 519.665 -97.8234C517.796 -86.1171 527.785 -69.9155 542.581 -60.7377C546.748 -58.1623 546.641 -58.3028 545.252 -56.9917C543.543 -55.3997 544.237 -53.6203 547.122 -52.2623C549.045 -51.4195 549.312 -51.0917 549.739 -48.8441C550.38 -45.4727 549.472 -41.4457 547.175 -37.3251C545.306 -34.0941 544.611 -33.2981 536.599 -24.9632C531.738 -19.9529 530.509 -17.9862 529.868 -14.3807C528.8 -8.66798 531.364 -4.45371 538.255 -0.567211C539.75 0.228821 544.878 2.47644 549.739 4.34945C561.224 8.84468 562.613 9.50023 565.818 11.6074C569.183 13.7613 571.16 16.9455 571.961 21.2066C572.816 25.7018 572.282 29.5883 569.985 36.097C568.435 40.4986 568.168 41.716 568.703 42.1843C569.611 42.9335 570.412 41.9502 572.495 37.5486C575.219 31.8359 575.807 28.8859 575.593 23.1264C575.433 18.7248 575.166 17.5074 573.991 15.3066C571.053 9.73436 567.741 7.58039 553.906 2.14866C541.94 -2.53387 538.468 -4.21958 535.744 -6.79497C533.02 -9.41719 532.432 -11.8989 533.714 -15.7386C534.622 -18.3608 537.026 -21.3108 544.131 -28.4283C550.113 -34.4219 553.105 -40.8838 552.57 -46.6901C552.357 -48.4695 552.09 -50.4362 551.929 -50.9512C551.662 -51.7473 551.876 -52.0282 552.944 -52.2623C555.081 -52.7306 556.47 -54.1822 556.47 -56.0084C556.47 -57.5536 556.47 -57.6004 561.438 -59.0988C579.493 -64.6242 594.129 -75.8623 595.945 -85.602C597.495 -94.0773 591.352 -99.6027 580.508 -99.5091C574.632 -99.4623 569.237 -97.7766 562.186 -93.7964C558.981 -92.017 556.096 -90.6123 555.776 -90.7528C555.402 -90.8464 553.852 -92.8599 552.25 -95.248C545.039 -105.877 534.302 -111.73 527.357 -108.827ZM536.492 -104.754C540.872 -102.834 543.97 -100.024 548.297 -94.2646C550.541 -91.2678 552.838 -88.4583 553.479 -88.0369C555.402 -86.6321 557.645 -87.0067 561.331 -89.2543C565.551 -91.7361 571.48 -94.4051 574.525 -95.1543C577.997 -95.9504 583.606 -95.8567 586.223 -94.9202C593.168 -92.4853 593.702 -86.3512 587.719 -78.9996C582.431 -72.4909 570.038 -64.8115 558.767 -61.0187C556.363 -60.2227 553.799 -59.5671 553.105 -59.5671C551.342 -59.5671 543.009 -64.6711 538.682 -68.3703C532.272 -73.8956 527.357 -80.6853 524.633 -87.6623C523.244 -91.1742 523.244 -97.8234 524.58 -100.867C526.716 -105.69 531.097 -107.142 536.492 -104.754Z" fill="#202020"/>
<path d="M214.331 -57.7877C211.928 -57.0853 211.661 -56.8512 211.5 -55.4464C211.34 -54.2289 211.767 -53.3393 213.53 -51.3258C217.59 -46.5964 221.062 -45.9877 217.483 -50.6234C216.415 -51.9813 215.72 -53.1988 215.881 -53.3393C216.468 -53.8543 222.771 -52.075 226.404 -50.3893C237.087 -45.4726 244.405 -35.3583 242.429 -28.3345C241.735 -26.0869 240.987 -24.9163 240.186 -24.9163C239.918 -24.9163 238.903 -25.525 237.942 -26.3211C233.455 -29.7393 227.632 -30.5353 225.709 -28.0068C224.321 -26.2274 226.564 -21.8258 229.769 -19.9528C231.799 -18.829 235.004 -18.5949 237.782 -19.4377L240.239 -20.1869L242.055 -16.8155C245.527 -10.4941 246.435 -4.54729 244.779 0.837624C244.352 2.24238 243.978 4.02174 243.978 4.81777L244.032 6.22253L245.046 5.14555C246.329 3.78762 247.557 0.322546 248.038 -3.32983C248.519 -7.02903 247.13 -12.8354 244.512 -18.033L242.429 -22.1536L243.871 -24.5417C249.694 -34.375 239.224 -49.6401 223.733 -53.948C221.81 -54.5099 219.887 -55.0718 219.46 -55.1654C218.925 -55.3059 219.192 -55.6805 220.421 -56.3361C221.383 -56.8512 222.077 -57.5067 221.917 -57.8345C221.596 -58.7242 217.269 -58.6773 214.331 -57.7877ZM235.164 -25.0099C237.728 -23.4179 237.942 -22.1068 235.752 -21.5917C233.348 -21.0298 230.25 -22.3409 229.021 -24.4949C227.739 -26.6957 227.739 -26.6957 228.914 -26.883C230.357 -27.1639 232.867 -26.4615 235.164 -25.0099Z" fill="#202020"/>
<path d="M-10.5565 -43.5528C-14.5094 -42.3354 -18.7293 -37.0909 -19.9045 -31.9402C-20.225 -30.5354 -20.5989 -29.1306 -20.7058 -28.8029C-20.866 -28.4283 -21.7207 -28.5687 -23.7506 -29.2243C-27.7035 -30.6291 -33.8999 -30.6759 -36.4639 -29.3179C-43.515 -25.7592 -38.7075 -19.8592 -20.9195 -10.26C-19.8511 -9.69814 -19.0498 -8.43386 -17.8212 -5.53069C-14.9367 1.44628 -10.3428 8.79785 -8.84711 8.79785C-8.36635 8.79785 -4.03954 6.97166 0.768036 4.77088C10.9174 0.13517 9.63533 0.275646 21.2269 2.47644C30.1476 4.16215 37.6261 4.2558 40.7777 2.80421C46.5468 0.181995 43.6088 -5.20291 34.5813 -8.57434C32.3912 -9.41719 30.4147 -10.2132 30.201 -10.3537C29.9874 -10.4942 31.2694 -12.1331 33.0322 -13.9124C38.8013 -19.8124 40.938 -25.2441 39.1752 -29.3179C37.6795 -32.7362 34.0471 -33.6727 28.1178 -32.1275C23.8978 -31.0505 15.992 -27.3045 10.0093 -23.5116C7.17813 -21.7322 4.61409 -20.2338 4.34701 -20.2338C4.07992 -20.2338 3.86625 -22.6219 3.81283 -25.5251C3.75941 -34.2346 0.714619 -40.7901 -4.41346 -43.0846C-6.97749 -44.2084 -8.09926 -44.302 -10.5565 -43.5528ZM-5.53522 -40.1814C-3.82586 -39.3386 -1.36866 -36.014 -0.353729 -33.1576C0.127029 -31.7529 0.607784 -28.1473 0.768036 -24.3076C1.08854 -17.2838 1.5693 -16.16 3.75941 -16.9092C4.45384 -17.1434 8.67382 -19.5315 13.2143 -22.2005C22.1884 -27.4918 28.4917 -30.0672 32.6048 -30.0672C35.9167 -30.0672 36.9316 -28.9902 36.6111 -25.7124C36.0236 -19.2505 29.0793 -12.414 16.0454 -5.34339C12.8938 -3.61085 10.1161 -2.44022 9.20799 -2.44022C5.73586 -2.44022 -14.723 -9.41719 -15.8982 -11.0561C-17.1268 -12.7418 -17.8747 -20.7021 -17.2336 -26.1338C-16.379 -33.579 -14.2423 -37.9806 -10.6099 -39.9473C-8.68685 -40.9774 -7.298 -41.0243 -5.53522 -40.1814ZM-24.7121 -27.3045L-21.24 -26.5084L-20.866 -19.7656C-20.6524 -16.0196 -20.5455 -12.9291 -20.6524 -12.8823C-20.7058 -12.8354 -22.6288 -13.8188 -24.9258 -15.0831C-30.4278 -18.2203 -36.4639 -23.3711 -36.4639 -25.01C-36.4639 -27.9132 -31.4961 -28.8965 -24.7121 -27.3045ZM32.9253 -6.8418C37.1453 -5.20291 39.8696 -3.42355 40.8311 -1.78467C41.6324 -0.473558 41.579 -0.333083 40.5106 0.416122C38.0534 2.19548 30.6818 2.14866 20.6393 0.369297C17.5945 -0.192607 14.8702 -0.801336 14.6566 -0.988637C14.3895 -1.22276 17.0604 -3.00212 20.5325 -4.96879C27.5836 -8.94894 27.637 -8.99576 32.9253 -6.8418ZM-7.08433 -4.87514C-3.39853 -3.61085 0.981709 -2.15927 2.69107 -1.69102C4.34701 -1.22276 5.73586 -0.707685 5.73586 -0.520384C5.73586 -0.192607 -7.72534 6.45659 -8.36635 6.45659C-8.90052 6.45659 -12.8 -0.66086 -13.9752 -3.75133C-15.2572 -7.07593 -15.364 -7.77831 -14.4025 -7.45053C-14.082 -7.31005 -10.7701 -6.13942 -7.08433 -4.87514Z" fill="#202020"/>
<path d="M297.663 -43.2718C295.686 -42.1948 293.656 -39.6662 291.733 -35.9202C290.932 -34.375 290.238 -33.0638 290.184 -32.9702C290.131 -32.9234 288.849 -33.5321 287.3 -34.3281C281.103 -37.6996 274.426 -35.8734 274.426 -30.7694C274.426 -27.2107 280.889 -20.5147 287.727 -16.9559L291.626 -14.9425L286.926 -12.7885C280.035 -9.69802 275.708 -5.95199 272.396 -0.19248C268.871 5.89481 267.482 9.59401 267.482 13.0123C267.482 17.2265 268.764 16.6178 270.099 11.8416C271.702 6.17576 277.257 -2.25279 281.691 -5.67104C284.148 -7.54405 289.81 -10.2131 295.526 -12.1329C297.983 -12.929 298.197 -13.1163 298.197 -14.5678C298.197 -16.0663 297.983 -16.2067 293.336 -18.3139C285.964 -21.6385 280.836 -25.4781 278.913 -29.1773C277.845 -31.3313 278.486 -32.4083 280.943 -32.4083C282.919 -32.4083 284.201 -31.8464 287.62 -29.3178C291.84 -26.1805 293.336 -26.6956 294.671 -31.7059C295.419 -34.4686 298.624 -39.6662 299.799 -40.0876C301.242 -40.5559 302.417 -38.1678 302.63 -34.4218C302.791 -32.0337 302.47 -29.5988 301.669 -26.321C300.654 -22.5282 300.547 -21.5448 301.135 -20.9361C302.31 -19.7186 303.485 -20.1401 306.744 -23.0901C313.154 -28.7559 322.021 -33.5321 330.781 -35.967C334.414 -36.9972 335.856 -37.1376 340.129 -36.9972C344.349 -36.9035 345.204 -36.9503 345.204 -37.5591C345.204 -39.5726 334.467 -40.6027 328.858 -39.1511C323.57 -37.7932 309.628 -30.9567 308.346 -29.1305C308.186 -28.8964 307.705 -28.6623 307.331 -28.6623C306.85 -28.6623 306.69 -29.8797 306.69 -33.4853C306.744 -37.6059 306.583 -38.5424 305.515 -40.2749C304.34 -42.2416 301.669 -44.1146 300.066 -44.1146C299.639 -44.1146 298.571 -43.74 297.663 -43.2718Z" fill="#202020"/>
<path d="M156.213 -41.1178C153.328 -40.1813 151.085 -38.7297 148.627 -36.1075C141.683 -28.8028 138.905 -19.625 139.44 -5.76472C139.867 5.75431 142.484 14.5106 147.613 21.7686C150.444 25.7487 150.39 25.7487 158.777 24.2503C161.608 23.7352 164.225 23.3138 164.599 23.3138C164.92 23.3138 165.668 24.063 166.202 24.9527C166.789 25.8892 168.285 27.4813 169.567 28.4646C172.558 30.8995 175.123 30.9932 180.197 28.8392C187.943 25.5146 193.819 18.8654 193.872 13.34C193.925 10.9051 193.979 10.7178 195.528 10.1559C197.932 9.26621 204.662 3.13209 207.654 -0.848059C211.072 -5.39011 212.515 -8.85519 212.835 -13.2568C213.209 -17.752 212.087 -20.9829 209.149 -23.7925C206.585 -26.2742 203.434 -27.2575 198.359 -27.2575C191.468 -27.2575 183.562 -24.8226 175.229 -20.2337L171.864 -18.3607L171.971 -24.0734C172.078 -31.6123 170.849 -35.2178 167.056 -38.5424C163.584 -41.5861 160.272 -42.3821 156.213 -41.1178ZM162.089 -36.4821C163.851 -35.6393 165.294 -33.7663 166.309 -31.0504C167.217 -28.5686 167.163 -25.244 166.202 -16.8155C165.935 -14.6147 166.042 -13.9591 166.789 -13.2099C168.392 -11.6647 170.315 -12.0861 175.123 -14.8957C183.883 -19.9996 190.507 -22.4345 197.024 -22.9028C202.579 -23.2774 205.357 -22.2004 207.12 -19.0631C208.135 -17.2369 208.295 -16.3472 208.081 -13.4909C207.654 -7.49725 203.541 -1.40996 195.795 4.77098C192.002 7.81462 191.949 7.81462 189.011 7.81462C185.699 7.7678 184.15 8.18923 180.998 9.96859C179.823 10.6241 178.648 11.1392 178.381 11.1392C178.167 11.1392 177.313 9.87494 176.511 8.3297C174.749 4.95828 172.131 3.17892 169.033 3.17892C162.783 3.17892 160.379 8.18923 162.516 16.7583C162.89 18.444 163.157 19.8487 163.05 19.9424C162.73 20.2702 152.367 22.8455 151.459 22.8455C149.642 22.8455 145.903 12.263 144.568 3.41304C143.66 -2.76789 144.247 -15.6917 145.636 -20.5615C147.185 -25.9932 149.429 -30.1139 152.474 -32.9234C156.64 -36.9035 159.311 -37.84 162.089 -36.4821ZM171.49 8.98526C171.971 9.59398 172.772 11.5138 173.253 13.2464C173.947 15.6813 174.428 16.4773 175.443 16.8987C176.885 17.4606 176.511 17.6479 182.601 14.0424C185.058 12.6376 186.447 12.0757 187.622 12.1694C189.118 12.3099 189.225 12.4503 189.118 14.0424C188.958 16.571 187.355 19.0059 184.043 21.7217C180.892 24.344 179.075 25.3273 174.642 26.6384C171.33 27.6217 171.597 27.7622 169.407 24.1098C167.591 21.0194 165.988 15.3535 165.988 11.9821C165.988 9.68764 166.202 9.03208 167.324 8.04875C168.819 6.73764 169.994 6.97177 171.49 8.98526Z" fill="#202020"/>
<path d="M98.362 -32.8768C87.5183 -32.6895 84.794 -32.5022 83.9927 -31.9403C82.7107 -31.0037 65.8308 -11.2903 64.7625 -9.41729C63.6941 -7.63792 64.068 -5.99904 65.724 -5.01571C66.365 -4.64111 68.7154 -4.03238 70.9055 -3.61095C77.2087 -2.48714 77.3156 -2.48714 77.3156 -1.64429C77.3156 -0.380005 74.9118 2.05491 65.5103 10.4366C60.5959 14.7914 56.3225 18.912 56.0554 19.5676C54.9336 22.4707 56.8033 23.5477 64.6022 24.4374C68.6619 24.9057 70.1576 25.2334 70.6918 25.889C71.6533 27.0596 71.6533 30.2437 70.585 33.7088C69.5166 37.3144 63.427 48.5056 58.9934 55.0143C54.1324 62.1318 53.7585 62.881 54.5063 63.5365C55.7349 64.6135 57.1238 63.9111 62.9997 59.2286C73.79 50.5659 74.8049 49.8167 85.0611 42.3247C100.338 31.1803 102.422 29.3541 102.422 27.0128C102.422 25.0461 100.659 24.2969 94.3557 23.6414C91.3643 23.3136 88.8003 22.8453 88.6935 22.5644C88.5866 22.3303 92.86 18.3969 98.2552 13.9017C108.084 5.66046 117.272 -2.90857 119.088 -5.48396C120.37 -7.35697 120.37 -9.74506 119.035 -10.4006C118.447 -10.6347 114.975 -10.8689 111.236 -10.8689C101.834 -10.8689 101.781 -10.5411 111.77 -20.4681C117.913 -26.6022 119.782 -29.1307 119.302 -30.7696C118.661 -33.0641 117.112 -33.2045 98.362 -32.8768ZM115.242 -29.4585C115.242 -29.0839 113.639 -27.1641 111.663 -25.1974C109.633 -23.2308 106.428 -19.953 104.398 -17.9863C100.659 -14.2403 99.4838 -12.0395 100.285 -10.2133C101.086 -8.38713 103.437 -7.87206 110.221 -8.19983C113.853 -8.3403 116.417 -8.29348 116.631 -8.01253C116.791 -7.73158 116.577 -7.07602 116.097 -6.46729C114.654 -4.54745 103.49 5.42633 95.2104 12.216C86.6102 19.2398 84.4735 21.6279 85.0077 23.5946C85.4884 25.2334 87.7854 25.9826 93.8216 26.4509C97.2403 26.685 98.9496 27.0128 99.1099 27.4342C99.4304 28.2771 96.1185 30.8993 84.8474 38.9533C79.7193 42.5588 72.4012 47.9437 68.6619 50.8469C64.9227 53.75 61.8245 55.9977 61.8245 55.8572C61.8245 55.6699 64.068 51.7834 66.8457 47.1477C69.6234 42.5588 72.4012 37.5953 73.0422 36.0969C75.3391 30.6652 74.9118 25.1398 71.9738 23.22C71.1191 22.7049 68.9824 22.1898 66.0979 21.9088C60.1686 21.3001 59.1536 21.066 59.1536 20.4104C59.1536 20.1295 62.7326 16.7112 67.1128 12.8247C76.728 4.2557 79.8262 0.931107 80.3069 -1.31651C80.8411 -3.75143 79.5591 -4.59428 73.8434 -5.81174C71.1726 -6.37364 68.7154 -7.0292 68.3414 -7.35697C67.8073 -7.7784 68.5551 -8.94904 71.9204 -13.1165C74.2708 -15.9728 78.1168 -20.8427 80.4672 -23.9331C82.8176 -26.9768 85.0077 -29.599 85.3282 -29.6926C85.6487 -29.7395 92.4861 -29.8799 100.552 -29.9736C112.838 -30.0672 115.242 -30.0204 115.242 -29.4585Z" fill="#202020"/>
<path d="M611.971 -21.2172C604.866 -19.2505 599.257 -15.0362 596.961 -10.0259C595.839 -7.59102 595.732 -6.60769 595.732 0.603407C595.732 7.01847 595.572 8.98514 594.824 10.8113C594.29 12.0288 593.862 13.6677 593.862 14.4169C593.862 15.6343 594.023 15.8216 595.411 15.8216C596.266 15.8216 598.456 15.4939 600.326 15.0724C603.477 14.37 603.958 14.37 609.3 15.3066C617.259 16.6177 621.746 16.8986 626.928 16.3367C637.344 15.1661 643.434 10.4367 645.196 2.00817C647.173 -7.3569 639.107 -17.7989 627.141 -21.2172C623.188 -22.3878 616.084 -22.3878 611.971 -21.2172ZM628.049 -17.0966C634.62 -14.3807 638.466 -10.6815 640.335 -5.34341C641.618 -1.69103 641.671 -0.286274 640.496 3.3661C639.374 6.97165 635.581 10.5304 631.522 11.7947C627.141 13.1994 618.862 13.2931 611.009 12.1224C605.4 11.2796 603.958 11.1859 601.501 11.6074C599.898 11.9351 598.456 12.0756 598.296 11.9351C598.189 11.7947 598.403 11.0923 598.884 10.2962C599.845 8.65736 599.952 6.5034 599.471 -0.333099C599.097 -5.01563 599.204 -5.76483 600.272 -8.24658C604.118 -17.0966 617.686 -21.4045 628.049 -17.0966Z" fill="#202020"/>
<path d="M619.769 -11.8052C619.235 -11.2901 618.381 -9.7917 617.9 -8.43377C617.259 -6.79488 616.725 -5.99885 616.244 -6.13933C615.817 -6.23298 613.947 -6.42028 612.024 -6.51393C607.644 -6.74806 605.934 -6.04568 605.721 -3.98536C605.347 -0.613941 610.902 2.66383 618.381 3.60034C623.616 4.20907 624.577 3.83446 626.34 0.509866C629.385 -5.39012 627.248 -12.7417 622.44 -12.7417C621.425 -12.7417 620.357 -12.3671 619.769 -11.8052ZM623.722 -9.27662C625.004 -7.91869 625.058 -4.50044 623.722 -1.22267L622.494 1.8678L620.25 1.58685C616.671 1.16542 612.238 -0.520291 610.421 -2.11235L608.765 -3.61076L610.795 -3.75124C611.917 -3.84489 614.214 -3.56394 615.977 -3.09568C618.915 -2.29965 619.128 -2.29965 619.769 -3.04886C620.143 -3.51711 620.571 -4.92187 620.784 -6.18615C620.998 -7.49726 621.265 -8.8552 621.425 -9.2298C621.853 -10.1195 622.921 -10.1195 623.722 -9.27662Z" fill="#202020"/>
<path d="M681.84 -10.3537C677.62 -8.43389 674.362 -4.40691 672.813 0.556569C672.332 2.24228 672.332 2.80418 672.866 3.36609C675.751 6.40973 683.977 -0.614065 686.274 -8.01246C687.289 -11.2902 685.687 -12.1331 681.84 -10.3537Z" fill="#202020"/>
<path d="M719.019 -10.4942C717.043 -9.97913 713.357 -6.56088 711.701 -3.70454C710.259 -1.17597 710.206 -0.98867 711.06 0.135138C712.182 1.58672 713.517 1.63355 716.349 0.135138C720.729 -2.11248 724.148 -5.90533 724.201 -8.6212C724.201 -10.4474 721.957 -11.2434 719.019 -10.4942Z" fill="#202020"/>
<path d="M436.655 -6.46716C430.565 -4.54733 426.185 1.30584 424.208 9.96852C423.728 12.3098 423.247 14.2296 423.194 14.3233C423.14 14.3701 421.164 13.8082 418.867 12.9653C416.516 12.1693 412.724 11.1392 410.373 10.7177L406.1 9.87487L406.26 6.83122C406.527 2.71059 405.459 0.743935 402.307 -0.567177C399.69 -1.69098 397.927 -1.55051 394.455 -0.00527191C389.594 2.14869 384.412 8.84471 383.611 13.9955C383.291 15.9622 383.451 16.2899 385 17.8352C388.098 20.9256 396.271 23.782 402.147 23.782C405.619 23.782 408.29 22.5177 409.519 20.2701C410.267 18.9122 410.16 18.2098 408.717 14.3701C408.45 13.6677 408.717 13.6677 411.175 14.0423C412.724 14.2764 415.929 15.0257 418.333 15.728L422.659 16.9923L423.033 23.782C423.621 34.2709 425.597 44.4319 428.589 52.4391C429.604 55.2018 431.794 56.8875 434.945 57.3089C438.471 57.7303 447.392 56.7938 454.283 55.2486L460.319 53.8438L462.616 56.747C466.355 61.3359 471.91 68.8748 473.94 72.1525C476.13 75.6176 477.412 76.4605 477.412 74.4001C477.412 72.7613 473.406 65.8779 468.545 59.1351C466.462 56.2787 464.646 53.7502 464.432 53.4224C464.165 53.0478 465.767 52.1113 469.56 50.5661C472.605 49.3018 476.504 47.4288 478.267 46.3986C489.271 39.7962 492.476 30.478 485.532 25.1399C479.496 20.4574 469.934 20.3169 460.052 24.7653C457.755 25.7955 455.832 26.5447 455.725 26.4979C455.671 26.4042 455.832 25.2804 456.152 24.0161C457.007 20.3169 456.793 11.3733 455.778 7.20583C453.214 -3.42352 445.255 -9.13621 436.655 -6.46716ZM444.507 -2.01876C449.582 0.743935 452.092 7.7209 451.665 17.882C451.451 22.8455 451.131 24.2034 449.422 28.8859C447.766 33.2407 447.499 34.4113 447.979 35.301C448.994 37.3613 451.184 36.7994 455.458 33.428C459.998 29.8693 462.616 28.4177 467.21 27.0598C473.566 25.1867 480.137 26.0296 483.021 29.0264C486.814 32.9597 482.22 39.9367 472.712 44.8065C469.239 46.5859 461.334 49.7232 461.173 49.4423C461.12 49.3486 459.25 47.4756 456.953 45.2748C452.947 41.2946 450.436 39.7962 448.834 40.3581C447.659 40.7327 448.353 41.7629 452.84 46.1645C454.87 48.1311 456.579 50.0042 456.579 50.2851C456.579 51.4089 447.338 53.7502 439.326 54.7335C435.319 55.2018 434.518 55.2018 434.144 54.6399C433.877 54.3121 432.916 51.5962 432.007 48.693C427.467 34.3645 426.452 17.3201 429.604 7.81455C432.328 -0.520348 439.059 -4.96875 444.507 -2.01876ZM402.094 3.03838C403.536 4.63043 403.322 7.20583 401.613 9.07883C400.064 10.8114 400.171 11.4201 402.574 13.2931C404.818 15.0725 406.688 18.1629 406.207 19.2868C405.673 20.4574 402.04 21.0661 398.835 20.4574C395.363 19.8487 388.793 17.2264 387.724 16.1026C386.816 15.1661 387.457 12.8717 389.647 9.03201C391.25 6.12885 392.585 4.81773 395.63 3.13203C398.675 1.39949 400.598 1.39949 402.094 3.03838Z" fill="#202020"/>
<path d="M344.723 -5.99882C342.213 -5.15596 339.488 -2.90835 337.672 -0.192478C336.711 1.25911 336.016 1.77418 335.429 1.63371C328.645 -0.145653 327.363 -0.286129 323.837 0.228947C317.16 1.25911 312.246 5.37973 308.773 13.0123C307.491 15.8218 306.957 16.4773 306.156 16.3837C305.568 16.29 303.378 16.1027 301.242 15.9622C297.663 15.7281 297.128 15.8218 293.923 17.1797C288.421 19.5678 285.109 24.0162 284.682 29.6352C284.308 35.067 286.712 44.3852 288.528 44.3852C289.116 44.3852 289.329 42.9805 289.49 36.2844C289.65 28.371 289.703 28.1837 291.253 25.7019C293.87 21.5345 298.037 19.8956 303.165 20.9726L305.782 21.4876L306.103 28.1368C306.583 37.5019 308.293 43.5424 311.925 48.3654C315.931 53.6566 319.777 55.4828 323.41 53.8907C326.561 52.5328 327.523 50.9408 327.737 46.8201C328.217 37.8765 322.288 26.0297 314.916 21.113C313.795 20.4107 312.78 19.4741 312.619 19.0527C311.818 16.9456 317.32 8.2829 320.579 6.45671C323.623 4.86465 328.484 4.67735 331.583 6.08211L333.986 7.15909L333.826 12.544C333.452 21.9559 335.482 31.04 339.435 38.2511C342.32 43.5424 346.326 47.4289 349.424 47.8971C355.353 48.8804 358.612 43.636 357.276 35.2075C355.621 24.8122 350.599 14.8853 343.174 7.29957L340.557 4.5837L341.732 2.47656C343.121 -0.0988274 345.418 -1.83136 347.875 -2.25279C356.742 -3.70438 372.287 17.2265 375.652 35.2543C376.827 41.6225 377.468 43.5424 378.163 43.1678C378.911 42.7463 378.376 35.5352 377.201 29.6352C374.423 15.494 363.259 -1.45676 354.285 -5.24961C351.133 -6.60755 347.448 -6.8885 344.723 -5.99882ZM342.213 14.417C345.258 18.2099 348.89 25.0464 350.279 29.6352C351.774 34.5051 352.255 41.482 351.187 42.6995C350.492 43.5424 350.332 43.4955 348.196 41.5289C343.174 36.8932 339.702 27.7154 339.221 17.5543C339.008 13.7615 339.115 11.6075 339.435 11.6075C339.756 11.6075 340.984 12.8718 342.213 14.417ZM314.489 27.3876C318.869 31.7424 322.502 40.0305 322.502 45.6027C322.502 48.7868 322.128 49.536 320.632 49.536C318.228 49.536 314.436 44.1043 312.619 38.0638C311.551 34.5987 310.857 25.1868 311.711 25.1868C312.032 25.1868 313.26 26.1702 314.489 27.3876Z" fill="#202020"/>
<path d="M520.253 6.22239C519.238 6.9716 518.063 8.6573 517.155 10.8113C516.354 12.6375 515.606 14.2295 515.552 14.3232C515.499 14.4168 513.79 13.6208 511.813 12.5906C507.807 10.4835 505.243 10.1557 502.519 11.3732C500.542 12.2629 498.779 15.2128 498.779 17.5541C498.833 22.8922 505.937 29.2604 514.698 31.789C520.52 33.4279 520.36 33.1938 520.574 42.8866L520.734 51.1747L517.476 48.0374C511.92 42.6993 503.053 39.7493 499.901 42.231C498.673 43.2144 498.459 45.0406 499.474 46.5858C500.596 48.3652 504.709 51.8771 506.739 52.7667C508.875 53.7501 515.018 55.389 518.17 55.8572L520.253 56.1382L519.879 59.5096C519.025 67.1889 514.484 79.7849 508.715 90.6484C505.67 96.2206 505.296 97.2976 506.258 97.2976C508.341 97.2976 515.552 85.123 519.292 75.2897C521.696 69.0619 523.886 60.727 523.886 58.1048C523.886 56.0913 524.847 55.389 528.8 54.4993C536.225 52.7667 543.436 47.1009 545.253 41.4818C546.321 38.2977 543.864 35.535 540.552 36.2842C537.187 36.9866 531.685 41.0604 526.717 46.4922L525.007 48.3652L524.954 44.8533C524.901 42.9334 524.687 39.562 524.473 37.3612C524.046 33.4279 524.099 33.3342 525.809 30.8057C528.533 26.8255 529.868 22.7517 530.189 17.6009C530.509 11.8883 529.762 9.31286 527.091 6.87794C524.687 4.67715 522.604 4.48985 520.253 6.22239ZM525.114 9.17239C527.198 11.1859 527.571 16.7581 526.076 22.0025C524.633 26.8724 522.497 30.5247 521.322 30.1033C520.841 29.916 518.864 29.3073 516.941 28.6985C511.706 27.1533 509.303 25.9358 506.365 23.4073C503.16 20.6446 501.984 18.0692 503.053 15.8684C504.495 12.7311 507.967 13.4335 512.775 17.7882C517.582 22.0962 519.025 21.7684 519.078 16.4771C519.078 14.4168 520.2 11.139 521.535 9.40651C522.443 8.14223 523.939 8.00175 525.114 9.17239ZM541.727 41.3882C541.193 43.308 534.355 49.1144 530.883 50.6128C529.281 51.3152 527.892 51.7834 527.732 51.6429C526.824 50.8469 534.89 42.793 538.789 40.5922C541.46 39.0938 542.315 39.3279 541.727 41.3882ZM508.929 46.1175C510.478 46.7731 512.882 48.3183 514.217 49.489L516.674 51.5961L515.125 51.7834C511.92 52.1112 505.831 49.1612 503.961 46.3049L502.999 44.8533H504.495C505.35 44.8533 507.326 45.4152 508.929 46.1175Z" fill="#202020"/>
<path d="M696.103 15.5409C691.883 17.2735 689.372 20.6449 690.601 23.033C692.043 25.8425 696.156 25.2338 700.59 21.5346C705.504 17.4608 705.718 14.7449 701.177 14.5108C699.575 14.464 697.972 14.7449 696.103 15.5409Z" fill="#202020"/>
<path d="M241.521 22.3303C238.209 23.6414 234.577 27.9962 232.814 32.7724L232.173 34.5517L229.075 34.5049C225.015 34.4581 222.825 35.4414 221.489 37.97C217.91 44.947 225.282 59.3692 235.592 65.5969C239.277 67.8445 239.758 67.6572 243.337 62.9747C249.64 54.7335 252.632 49.2549 254.608 42.512C258.454 29.0732 251.563 18.3502 241.521 22.3303ZM247.664 25.4208C249.854 26.4041 251.457 29.6351 251.83 33.7089C252.365 40.4049 248.839 49.1144 241.521 59.2287C239.598 61.8977 237.835 64.0517 237.568 64.0517C236.446 64.0517 230.624 57.7303 228.647 54.4057C222.397 43.9168 223.199 35.9097 230.303 38.2978C231.265 38.6255 231.745 39.1875 231.959 40.4986C233.027 46.0708 236.233 50.4724 239.224 50.4724C241.147 50.4724 242.376 48.9271 242.376 46.4922C242.322 44.0105 240.826 41.1541 238.102 38.5787L235.859 36.4248L236.446 34.2708C237.942 29.12 241.895 24.8121 245.207 24.7184C245.741 24.7184 246.863 25.0462 247.664 25.4208Z" fill="#202020"/>
<path d="M25.0196 23.1264C23.4171 24.9057 22.0816 28.839 22.0816 31.8827C22.0282 34.6922 22.2953 35.1136 25.1798 36.6589C25.9811 37.0803 25.9811 37.4549 25.2333 41.2009C24.8059 43.4017 23.791 47.0073 23.0431 49.1612C21.6543 52.9541 17.1672 61.2422 16.4728 61.2422C16.3125 61.1953 14.6032 60.1652 12.6802 58.8541C6.85766 54.9676 4.07995 53.9842 -1.20837 53.9842C-6.33645 53.9842 -8.68682 54.7803 -11.8384 57.5898C-15.364 60.6803 -16.0584 64.7541 -13.8149 68.9683C-9.43466 77.3032 2.79793 77.3969 13.5883 69.2961L17.3275 66.4398L20.1586 69.4366C25.7674 75.5239 30.0942 82.9223 32.4446 90.508C35.5428 100.341 35.7031 100.716 36.3441 100.154C37.1988 99.4048 36.077 92.9897 33.9937 86.9024C32.0707 81.2834 27.637 73.5104 23.8978 69.2025C18.6095 63.162 18.8766 64.3795 21.7611 59.9779C24.8593 55.2485 26.8892 50.0041 27.9576 43.7763C28.4383 41.1541 28.9191 38.5319 29.0259 37.97C29.1862 37.2676 29.7737 36.7993 30.7353 36.612C35.4894 35.7224 35.8099 34.7859 33.2993 28.9327C30.5216 22.424 27.5302 20.3168 25.0196 23.1264ZM4.45387 57.9644C7.12475 58.9945 14.2827 63.443 14.2827 64.0517C14.2827 64.239 12.9472 65.5033 11.2913 66.8612C3.86628 72.7612 -4.57367 74.0255 -9.06074 69.858C-12.5329 66.5802 -12.5329 62.4128 -9.06074 59.416C-5.53519 56.466 -0.727618 55.9041 4.45387 57.9644Z" fill="#202020"/>
<path d="M727.459 26.9661C726.444 27.3876 724.895 28.5582 723.987 29.5415C722.598 31.0399 722.331 31.7891 722.17 34.5518C721.957 37.2209 722.17 38.1574 723.292 40.3582L724.681 42.9804L721.102 44.8066C716.562 47.1947 710.472 49.3018 703.955 50.8002C699.735 51.7836 697.545 52.0177 691.616 52.0645C687.663 52.0645 683.817 51.924 683.069 51.7836C682.321 51.5963 681.36 51.6431 680.932 51.8772C680.238 52.2986 680.238 52.3923 680.932 52.8137C682.909 53.9843 686.434 54.4526 692.951 54.4058C698.774 54.4058 700.803 54.2185 705.718 53.0947C712.288 51.6431 718.218 49.5359 723.559 46.8201C727.245 44.9939 727.245 44.9939 728.527 45.8836C730.664 47.382 736.54 49.8637 740.493 50.8939C747.704 52.8605 754.755 53.0478 768.27 51.6431L770.941 51.3621L772.543 53.797C776.87 60.3058 788.622 65.4565 799.145 65.4565C806.677 65.4565 816.506 63.0216 825.854 58.8073C831.089 56.4661 834.24 54.5462 834.24 53.7034C834.24 52.9542 833.119 53.2351 826.281 55.8105C813.995 60.3994 808.173 61.7105 800.16 61.7105C791.186 61.7105 784.028 59.3693 778.633 54.6399C774.146 50.7066 774.199 50.4256 779.541 48.6463C792.628 44.2915 800.427 35.4415 796.154 29.8225C793.429 26.2169 788.248 25.7019 781.731 28.3709C777.297 30.1503 773.024 33.8026 770.994 37.455C769.819 39.5153 769.445 41.0606 769.231 44.1042L768.911 48.0375L765.278 48.5526C763.302 48.8336 758.922 49.0677 755.503 49.0677C746.101 49.0677 738.783 47.5224 733.068 44.3852L730.504 42.9336L733.014 40.5923C735.899 37.9233 738.089 34.0836 738.089 31.7423C738.089 29.682 736.38 27.2003 734.563 26.5915C732.533 25.8892 729.489 26.0765 727.459 26.9661ZM734.35 30.5249C735.204 32.5384 733.495 36.0971 730.45 38.7193C728.367 40.4518 727.833 40.3582 726.551 38.2042C725.162 35.8629 725.803 32.3511 727.886 30.7122C730.183 28.9328 733.602 28.8392 734.35 30.5249ZM792.308 31.0399C793.055 31.6487 793.643 32.4915 793.643 32.913C793.643 35.6756 789.049 40.5455 784.242 42.9804C781.624 44.3383 774.947 46.7264 773.879 46.7264C773.558 46.7264 773.344 45.509 773.344 44.0106C773.344 39.0002 777.458 33.9431 783.707 31.2741C787.821 29.5415 790.545 29.4479 792.308 31.0399Z" fill="#202020"/>
<path d="M624.257 38.0637C621.532 39.3748 620.624 42.1843 619.235 53.5629C617.473 68.2192 616.725 70.7009 614.054 70.9819C612.291 71.1692 610.956 70.5604 602.409 65.8779C588.574 58.339 584.461 57.6835 581.63 62.6001C581.042 63.5835 579.813 67.9382 578.905 72.293C576.769 82.5945 575.486 86.5279 574.151 86.5279C573.617 86.5279 569.664 85.0295 565.337 83.2033C555.722 79.1295 552.41 78.6144 549.686 80.6279C547.603 82.1731 546.855 84.0461 544.451 94.3945C542.314 103.666 542.154 105.398 543.489 105.164C544.504 104.977 545.519 102.542 548.511 92.8493C549.739 88.9628 551.075 85.2168 551.502 84.4676C552.196 83.2501 552.464 83.1565 554.493 83.3438C555.775 83.4842 560.156 85.0763 564.536 86.9493C573.19 90.6485 575.38 91.0231 577.516 89.1969C579.119 87.7922 580.668 83.9993 581.79 78.8017C584.995 63.8644 585.262 63.1152 587.078 63.1152C588.841 63.1152 594.717 65.7374 602.516 70.0454C612.131 75.2898 615.283 75.8985 618.434 72.9485C620.517 70.9819 621.426 67.5168 622.975 55.5763C623.722 49.7232 624.631 44.151 625.058 43.1676C626.447 39.6089 628.957 40.5922 640.175 48.974C649.203 55.7168 651.019 56.7002 651.019 54.874C651.019 53.797 640.923 44.8533 635.902 41.4819C629.812 37.4081 627.248 36.6589 624.257 38.0637Z" fill="#202020"/>
<path d="M-6.81712 38.4852C-14.2421 40.5923 -14.8832 43.355 -7.83205 42.8399C-3.77233 42.559 0.661321 40.5455 0.661321 39.0003C0.661321 38.2042 0.233981 38.0638 -2.00955 37.9701C-3.45182 37.9233 -5.64194 38.1574 -6.81712 38.4852Z" fill="#202020"/>
<path d="M186.287 41.6225C181.64 43.2614 177.741 48.8336 177.313 54.4995C176.993 59.2288 178.221 62.7407 181.213 65.3161C183.243 67.1423 183.723 67.3296 186.074 67.3296C189.172 67.3296 192.697 65.9248 194.62 63.9113C195.422 63.0685 196.811 61.055 197.719 59.3693C199.107 56.7471 199.321 55.8106 199.375 52.3455C199.375 48.9272 199.161 47.9907 197.879 45.6963C196.009 42.3717 193.873 41.1074 190.24 41.1542C188.798 41.1542 187.035 41.3884 186.287 41.6225ZM191.095 46.2582C193.605 47.4288 194.14 53.7971 191.95 57.6368C190.4 60.3526 187.516 62.4129 185.86 61.9915C184.578 61.6169 182.815 58.1518 182.334 55.0145C181.96 52.8606 182.655 48.5526 183.563 47.2415C184.364 46.1646 189.439 45.509 191.095 46.2582Z" fill="#202020"/>
<path d="M167.057 45.9771C165.775 46.6326 159.952 52.0175 155.358 56.8874C154.13 58.2453 152.901 59.3691 152.634 59.3691C152.42 59.3691 149.643 57.6834 146.438 55.6699C143.233 53.6096 140.188 51.8302 139.654 51.6898C136.662 51.0342 139.226 54.5461 146.651 61.289L149.536 63.958L146.224 68.781C139.333 78.9889 136.021 86.2468 137.998 86.8556C139.066 87.1834 140.775 85.3103 147.292 76.6945C150.871 71.9183 153.916 67.9382 154.023 67.8445C154.13 67.7509 156.961 69.4834 160.38 71.731C166.79 75.8985 169.193 76.6945 169.193 74.7746C169.193 74.1659 166.95 71.8247 163.264 68.5001L157.281 63.162L163.05 55.1548C169.941 45.5088 170.476 44.385 167.057 45.9771Z" fill="#202020"/>
<path d="M287.299 54.4993C285.697 54.8739 284.041 55.4358 283.667 55.7168C282.385 56.6533 283.72 57.0747 286.231 56.6064C287.513 56.3255 289.917 56.0914 291.519 56.0914C294.137 56.0914 294.35 56.1382 293.603 56.8406C293.122 57.2152 285.91 59.9779 277.577 62.9278C260.056 69.1556 251.99 72.4334 251.029 73.885C250.067 75.2429 250.708 76.6008 252.418 77.0223C254.875 77.631 264.063 77.3032 274.319 76.2731C279.661 75.758 284.842 75.2897 285.804 75.2897L287.513 75.3366L285.91 76.0858C285.056 76.5072 273.731 80.8619 260.804 85.7786C235.538 95.3778 232.493 96.7357 231.532 98.5619C230.997 99.5921 231.104 99.873 232.226 100.669C234.309 102.121 241.948 101.606 259.469 98.796C267.535 97.5317 275.708 96.3143 277.524 96.127C280.676 95.7992 280.943 95.846 280.729 96.6421C280.622 97.1103 277.417 99.6857 273.624 102.355C259.789 112.048 257.706 114.061 259.148 116.543C260.591 119.118 264.223 119.446 272.022 117.667C278.112 116.262 281.797 114.81 280.943 114.061C280.515 113.686 279.447 113.733 277.257 114.108C266.52 116.075 263.208 116.262 263.208 114.81C263.208 114.436 266.52 111.767 270.58 108.91C283.881 99.3579 287.192 95.7992 284.575 93.9262C282.492 92.4746 277.257 92.9897 251.83 97.0635C241.574 98.7492 236.339 99.1238 237.407 98.1873C237.728 97.9064 249.213 93.4111 262.994 88.1199C276.723 82.8754 289.009 78.0056 290.291 77.35C292.694 76.1326 293.763 74.2596 292.641 73.2762C291.519 72.2929 285.43 72.3866 272.983 73.604C259.629 74.9151 256.264 75.0556 256.264 74.3532C256.264 73.6977 258.027 72.9953 276.082 66.3929C292.855 60.212 296.38 58.6667 297.395 57.0747C299.105 54.2652 293.923 52.9541 287.299 54.4993Z" fill="#202020"/>
<path d="M120.584 56.5129C116.631 57.5899 112.624 60.774 110.381 64.6137C106.695 70.9351 110.167 81.0494 116.364 82.0795C122.133 83.016 128.81 78.3803 131 71.8248C133.137 65.6438 130.573 58.5732 125.551 56.747C123.682 56.0446 122.614 55.9978 120.584 56.5129ZM124.216 62.2256C126.032 63.8645 126.513 68.5002 125.178 71.2629C124.163 73.4637 121.385 76.0391 119.462 76.6478C118.02 77.0692 117.699 76.9756 116.577 76.0391C114.013 73.7914 113.479 67.2827 115.509 63.4899C116.524 61.6637 117.165 61.4296 120.958 61.2891C122.614 61.2423 123.468 61.5232 124.216 62.2256Z" fill="#202020"/>
<path d="M404.016 59.8844C403.269 60.3995 401.826 62.0384 400.865 63.4899L399.102 66.159L393.333 66.5336C386.602 67.0018 385.213 67.3764 384.412 68.9217C383.451 70.7479 384.199 72.0121 388.151 75.524C390.235 77.3034 391.944 79.0828 391.944 79.4105C391.944 79.7383 391.303 81.8923 390.555 84.1399C389.754 86.4343 389.273 88.682 389.487 89.1034C389.968 90.274 391.944 89.8058 397.019 87.2772C399.369 86.1066 401.559 85.1232 401.826 85.1232C402.147 85.1232 403.803 85.7788 405.566 86.528C409.305 88.1201 411.121 88.2605 412.83 87.0431C413.899 86.2939 414.112 85.6383 414.273 82.6415L414.486 79.0828L417.798 77.2566C422.072 74.7748 423.888 73.3233 424.315 71.778C424.956 69.4368 421.644 67.8447 416.142 67.7979C412.884 67.7979 411.281 67.0955 410.854 65.5971C410.266 63.4899 408.717 60.54 407.702 59.6971C406.527 58.6669 405.726 58.7138 404.016 59.8844ZM405.833 66.2058C405.833 66.5804 405.459 66.8614 405.031 66.8614C404.123 66.8614 404.07 66.7677 404.551 65.7376C404.925 64.8947 405.833 65.1757 405.833 66.2058ZM396.217 71.3098C396.217 71.9185 394.935 74.3534 394.615 74.3534C393.974 74.3534 390.876 72.0121 390.876 71.5439C390.876 71.3098 391.41 71.0756 392.104 70.982C393.226 70.8415 396.217 71.0756 396.217 71.3098ZM405.993 71.4971C407.382 71.9653 407.649 72.4804 408.236 75.2899C408.557 76.882 408.504 76.9756 405.672 78.3336L402.734 79.6915L400.598 78.4272L398.408 77.1629L399.209 75.1494C400.651 71.4971 402.681 70.4201 405.993 71.4971ZM416.73 72.6677C416.409 73.4169 413.952 74.4471 413.311 74.1193C413.097 74.0256 412.777 73.4637 412.617 72.9487C412.35 72.1058 412.617 72.0121 414.7 72.0121C416.409 72.0121 416.943 72.1526 416.73 72.6677ZM396.752 82.0328C396.752 82.1732 396.538 82.4074 396.217 82.5478C395.95 82.6883 395.683 82.5947 395.683 82.3605C395.683 82.0796 395.95 81.8455 396.217 81.8455C396.538 81.8455 396.752 81.9391 396.752 82.0328Z" fill="#202020"/>
<path d="M98.629 62.6002C97.3469 63.3025 94.7295 64.9883 92.8599 66.3462C89.7617 68.547 89.3343 68.6875 88.3194 68.1256C82.764 64.9414 79.9863 63.5835 79.185 63.5835C78.3303 63.5835 78.3303 63.6303 79.185 64.8478C79.7192 65.597 81.482 67.2359 83.0845 68.547L86.0759 70.8882L80.467 75.8049C74.324 81.143 67.1127 88.5414 65.7772 90.789C64.6555 92.7088 65.4033 93.4112 67.5934 92.4279C68.4481 92.0533 73.7898 87.7922 79.3987 83.016L89.548 74.3065L94.9431 78.7549C99.9644 82.9224 102.048 84.1866 102.849 83.5311C103.49 82.9224 101.353 80.066 97.1333 75.9922C94.7829 73.6509 92.8065 71.6375 92.8065 71.4502C92.8065 71.2628 94.5158 69.4367 96.5991 67.47C100.285 63.9113 102.368 61.2422 101.46 61.2422C101.246 61.2422 99.9644 61.851 98.629 62.6002Z" fill="#202020"/>
<path d="M725.963 65.9717C722.491 67.4701 718.859 73.136 718.859 76.9756C718.859 78.5209 718.378 78.6145 714.853 77.5375C710.846 76.3669 704.703 76.3201 700.056 77.4439C695.729 78.5209 691.937 81.6113 691.349 84.5613C690.601 88.4478 693.165 91.351 700.697 95.1439C702.62 96.1272 704.276 97.0169 704.383 97.1105C704.49 97.2042 703.208 98.4685 701.498 99.92C694.501 105.961 693.913 113.031 700.163 116.215C701.659 117.011 702.887 117.199 706.306 117.152C711.434 117.105 715.173 115.981 719.393 113.218L722.224 111.345L724.04 113.64C727.032 117.62 731.733 120.008 737.395 120.523C743.11 121.038 749.414 117.901 750.963 113.734C751.978 111.018 751.283 106.616 749.093 102.636C748.025 100.669 747.224 98.9835 747.277 98.9835C747.384 98.9367 749.36 98.0939 751.711 97.0637C759.136 93.9264 762.928 89.6185 762.928 84.3272C762.928 81.8455 762.715 81.2367 761.272 79.6915C758.708 76.882 756.198 75.9923 751.177 76.0391C748.399 76.0391 746.048 76.3201 744.499 76.882C743.164 77.3034 741.722 77.8185 741.294 77.9122C740.653 78.0994 740.173 77.3502 739.318 74.728C737.929 70.6074 735.151 67.2828 732 65.9249C729.169 64.7542 728.741 64.7542 725.963 65.9717ZM730.718 70.1392C733.282 71.8717 734.51 75.0558 734.564 79.9256C734.671 83.6248 734.831 84.374 735.685 84.9359C737.181 85.9193 738.089 85.732 741.241 83.9058C745.301 81.4709 747.224 80.909 751.07 80.909C753.794 80.909 754.809 81.1431 755.984 81.9391C757.266 82.8288 757.426 83.1566 757.213 84.8891C757.052 85.9661 756.358 87.5113 755.664 88.3542C753.847 90.5082 749.414 92.9899 745.568 94.0669C743.698 94.582 741.828 95.2375 741.455 95.5185C740.44 96.2677 740.6 98.2812 741.882 99.8732C742.469 100.622 743.805 102.73 744.82 104.556C748.132 110.503 746.957 114.717 741.561 116.028C737.074 117.105 732.16 115.653 728.848 112.235C727.78 111.158 726.818 109.707 726.658 108.957C726.444 108.208 726.177 106.944 726.017 106.195C725.696 104.649 724.094 103.619 722.919 104.181C722.545 104.368 720.835 105.867 719.126 107.506C715.12 111.345 711.808 112.844 706.733 113.125C703.154 113.312 702.834 113.265 701.552 112.141C699.949 110.737 699.842 109.66 700.964 107.318C702.139 104.79 703.635 103.385 707.802 100.81C711.701 98.3748 712.663 97.0169 711.381 95.6589C711.007 95.2843 708.443 93.9264 705.665 92.6153C699.842 89.8058 696.424 87.3709 696.424 85.8725C696.424 84.5145 698.827 82.5947 701.498 81.7986C702.673 81.4709 705.451 81.1899 707.695 81.2367C712.182 81.2836 714.586 82.0328 719.073 84.8891C720.515 85.8256 721.957 86.4812 722.224 86.3875C723.506 86.0129 723.88 84.7018 723.239 83.1098C721.797 79.551 723.239 73.8852 726.337 71.0288C728.581 68.9217 728.901 68.8749 730.718 70.1392Z" fill="#202020"/>
<path d="M725.857 91.3977C722.865 94.2072 727.246 97.3445 730.344 94.6755C731.412 93.739 731.359 91.9596 730.291 91.0231C729.062 89.9461 727.246 90.0866 725.857 91.3977Z" fill="#202020"/>
<path d="M333.506 67.8447C332.704 68.4066 331.262 70.2796 330.247 72.0122C328.751 74.5875 328.11 75.2431 326.935 75.4772C326.134 75.6177 324.051 75.9455 322.395 76.2264C319.136 76.7883 317.16 78.2399 317.16 80.0661C317.16 80.5812 318.709 82.4074 320.579 84.0931L323.944 87.1367L321.647 93.2708C318.923 100.341 318.709 101.98 320.525 101.98C321.166 101.98 322.448 101.372 323.303 100.669C326.775 97.8597 332.277 93.9264 333.399 93.505C334.307 93.1304 335.268 93.3177 337.993 94.4415C342.213 96.2208 344.349 96.2677 346.379 94.7692C347.982 93.5518 348.249 91.632 347.448 87.4645L347.074 85.3574L349.958 83.3907C353.591 80.9558 354.766 79.4574 354.338 77.8653C353.858 76.2733 352.522 75.7582 347.234 75.2899C344.723 75.0558 342.64 74.8217 342.533 74.728C342.48 74.6344 341.732 73.3701 340.877 71.8249C338.1 66.9082 336.283 65.9249 333.506 67.8447ZM336.604 73.7447C336.978 74.6812 336.818 74.8217 335.375 74.8217H333.719L334.627 73.1828C335.536 71.4971 335.856 71.5907 336.604 73.7447ZM339.809 81.424C340.664 83.2971 340.664 83.4375 339.649 84.374C337.939 85.9661 335.001 87.1367 333.612 86.8089C332.918 86.6685 331.796 86.1066 331.048 85.6383L329.766 84.7486L330.675 82.1264L331.636 79.5042H335.268H338.954L339.809 81.424ZM346.54 79.8788C346.54 80.4875 345.899 80.909 345.364 80.628C344.83 80.3471 345.311 79.5042 346.059 79.5042C346.326 79.5042 346.54 79.6915 346.54 79.8788ZM326.241 80.909C326.241 81.1431 325.867 81.3772 325.44 81.3772C325.012 81.3772 324.638 81.1431 324.638 80.909C324.638 80.628 325.012 80.4407 325.44 80.4407C325.867 80.4407 326.241 80.628 326.241 80.909ZM342.8 90.0867C342.8 91.3042 342.213 91.4915 340.557 90.6954L339.435 90.1804L340.717 89.3375C342.213 88.3074 342.8 88.5415 342.8 90.0867ZM329.179 90.2272C329.446 90.6954 327.309 92.2875 326.882 91.9597C326.775 91.8193 326.828 91.3042 327.042 90.7891C327.416 89.7589 328.591 89.478 329.179 90.2272Z" fill="#202020"/>
<path d="M659.032 71.4034C658.765 71.8717 657.055 74.7748 655.239 77.8653C653.423 80.9558 651.393 84.1399 650.698 84.9827C648.882 87.0899 649.043 87.9327 651.179 87.9327C654.331 87.9327 657.002 85.6851 660.314 80.2534C661.809 77.7248 662.237 76.5074 662.237 74.5407C662.237 71.2629 660.314 69.4367 659.032 71.4034Z" fill="#202020"/>
<path d="M631.415 72.3399C630.079 72.7613 630.774 74.447 633.552 77.3033C635.101 78.9422 636.863 81.2367 637.451 82.4541C638.092 83.8589 638.786 84.6549 639.374 84.6549C640.389 84.6549 641.938 82.4073 641.938 80.9089C641.938 78.4271 638.947 74.4938 636.062 73.2295C634.353 72.4335 632.216 72.0589 631.415 72.3399Z" fill="#202020"/>
<path d="M213.209 75.1494C211.18 77.0692 207.654 82.4541 207.654 83.6248C207.654 85.4041 209.096 84.7486 211.981 81.7049C213.477 80.1129 214.919 78.6145 215.186 78.3803C215.453 78.0994 217.162 78.8486 219.566 80.3002C223.786 82.9224 225.389 83.4375 225.709 82.2668C226.03 80.7684 217.643 73.8851 215.453 73.8851C214.972 73.8851 213.957 74.447 213.209 75.1494Z" fill="#202020"/>
<path d="M180.251 85.6851C178.221 87.9327 175.069 92.6153 175.069 93.4581C175.069 93.7859 175.497 94.02 176.084 94.02C177.046 94.02 179.129 92.2407 182.067 88.9629L183.456 87.3708L187.409 89.993C193.178 93.8327 195.795 93.4581 191.789 89.3843C189.011 86.528 184.791 83.7185 183.349 83.7185C182.494 83.7185 181.479 84.374 180.251 85.6851Z" fill="#202020"/>
<path d="M624.31 88.0263C618.274 88.5882 617.259 90.3675 622.067 92.0064C625.486 93.1302 633.712 93.177 635.688 92.0532C637.291 91.1167 637.131 89.5247 635.314 88.8223C633.178 88.0263 628.317 87.6985 624.31 88.0263Z" fill="#202020"/>
<path d="M655.827 89.1034C653.37 90.0867 652.782 90.8827 653.637 92.0534C654.171 92.8494 665.122 93.9732 671.906 94.02C677.087 94.02 677.889 93.5518 676.126 91.5383C674.31 89.5716 671.158 88.7756 664.107 88.5415C659.086 88.401 657.323 88.5415 655.827 89.1034Z" fill="#202020"/>
<path d="M643.861 94.3477C644.074 96.7826 643.914 99.0771 643.433 101.137C643.006 102.87 642.846 104.556 643.059 104.883C643.754 105.82 646.264 104.743 647.707 102.917C648.828 101.465 648.935 100.856 648.775 97.3913C648.615 93.6453 648.561 93.4112 646.852 92.1001C643.914 89.8056 643.487 90.1802 643.861 94.3477Z" fill="#202020"/>
<path d="M440.447 98C439.539 98.4683 438.311 99.9667 437.029 102.214C435.96 104.134 434.999 105.726 434.892 105.726C434.838 105.726 432.915 106.054 430.619 106.429C425.864 107.225 423.995 108.395 423.995 110.549C423.995 111.626 424.743 112.516 427.307 114.67L430.619 117.479L428.108 124.175C424.529 133.681 425.384 134.571 432.648 128.998C435.106 127.125 437.883 125.112 438.845 124.55L440.554 123.426L444.56 124.878C449.421 126.657 451.344 126.704 453.214 125.112C454.55 123.941 454.603 123.801 454.229 119.774L453.855 115.7L456.846 113.733C460.265 111.439 461.707 109.472 460.853 108.067C459.945 106.616 458.289 106.054 453.695 105.773L449.421 105.492L447.445 102.214C445.469 98.9833 443.706 97.2976 442.477 97.2976C442.157 97.3445 441.249 97.6254 440.447 98ZM443.172 103.853C443.706 105.211 443.652 105.258 442.157 105.258C440.661 105.258 440.608 105.211 441.142 103.853C441.462 103.057 441.943 102.448 442.157 102.448C442.37 102.448 442.851 103.057 443.172 103.853ZM446.216 111.579C447.392 114.061 447.178 114.529 444.026 116.262C441.249 117.807 440.982 117.901 439.646 117.245C438.791 116.871 437.723 116.168 437.189 115.7C436.388 114.857 436.334 114.576 436.975 113.171C437.403 112.282 437.883 111.205 438.044 110.736C438.311 110.081 439.058 109.94 441.89 109.94C445.415 109.94 445.415 109.94 446.216 111.579ZM453.054 110.924C452.894 111.158 452.52 111.252 452.253 111.064C451.985 110.924 451.879 110.596 452.092 110.362C452.253 110.128 452.627 110.034 452.894 110.221C453.161 110.362 453.268 110.69 453.054 110.924ZM432.809 111.345C432.969 111.579 432.755 111.813 432.328 111.813C431.847 111.813 431.473 111.579 431.473 111.345C431.473 111.064 431.687 110.877 431.954 110.877C432.274 110.877 432.648 111.064 432.809 111.345ZM449.582 121.038C449.635 121.881 447.766 121.787 447.018 120.991C446.483 120.476 446.644 120.195 447.605 119.586C448.727 118.884 448.834 118.884 449.208 119.633C449.368 120.102 449.582 120.757 449.582 121.038ZM435.747 120.944C435.747 121.694 433.93 122.724 433.45 122.256C432.915 121.834 434.091 120.242 434.945 120.242C435.373 120.242 435.747 120.57 435.747 120.944Z" fill="#202020"/>
<path d="M211.126 102.729C209.524 104.275 205.518 110.128 205.518 111.017C205.518 113.125 207.441 112.141 210.913 108.255C213.69 105.211 213.69 105.211 214.812 106.101C217.002 107.833 221.65 110.409 222.665 110.409C224.534 110.409 223.733 108.77 220.368 105.914C214.759 101.137 213.317 100.622 211.126 102.729Z" fill="#202020"/>
<path d="M155.732 103.479C154.13 104.649 149.429 111.486 149.429 112.75C149.429 112.984 149.91 113.218 150.497 113.218C151.138 113.218 152.581 112.048 154.29 110.268C155.786 108.676 157.174 107.225 157.388 107.037C157.602 106.85 159.525 107.833 161.715 109.238C165.668 111.767 167.217 112.282 167.858 111.345C168.339 110.643 164.813 106.99 161.608 104.743C158.83 102.87 157.174 102.495 155.732 103.479Z" fill="#202020"/>
<path d="M67.4865 105.726C66.4182 106.991 65.3498 108.068 65.0293 108.068C64.7622 108.068 63.32 107.646 61.8243 107.131C60.3286 106.616 58.7795 106.195 58.3522 106.195C57.0167 106.195 57.4441 107.74 59.6342 110.409L61.7175 112.937L60.382 114.67C58.6192 117.011 59.1 117.526 62.8926 117.339L65.9908 117.198L68.2344 119.446C71.5463 122.724 73.2022 122.209 72.0804 118.275C71.7599 117.198 71.5997 116.215 71.7065 116.121C71.8134 115.981 73.0954 115.747 74.4842 115.513C75.8731 115.279 77.3688 114.764 77.8495 114.342C78.544 113.687 78.544 113.546 77.5824 112.937C76.9948 112.516 75.1252 111.579 73.3625 110.783L70.2642 109.425L70.6382 107.459C71.2792 104.322 71.2258 103.666 70.3177 103.479C69.7835 103.385 68.7151 104.228 67.4865 105.726ZM63.4268 110.409C63.4268 110.643 63.32 110.877 63.2131 110.877C63.0529 110.877 62.7858 110.643 62.6256 110.409C62.4653 110.128 62.5721 109.941 62.8392 109.941C63.1597 109.941 63.4268 110.128 63.4268 110.409ZM68.2344 113.218C68.2344 114.857 67.2195 115.045 65.884 113.733C65.1362 112.984 65.0828 112.61 65.5635 111.86C66.4182 110.409 68.2344 111.345 68.2344 113.218ZM72.2407 112.844C73.2022 113.218 73.4159 113.499 72.9351 113.78C71.8134 114.389 71.0655 114.202 70.745 113.218C70.4245 112.141 70.4245 112.095 72.2407 112.844Z" fill="#202020"/>
<path d="M114.868 106.429C105.466 108.208 97.0797 115.7 99.2698 120.336C100.445 122.864 103.597 123.52 109.099 122.302L110.434 122.021L109.366 124.644C107.656 129.045 104.291 133.541 98.3617 139.16C95.2635 142.156 92.6461 144.591 92.5392 144.591C92.4324 144.591 90.8299 144.31 88.9603 143.936C85.9689 143.327 82.1762 142.999 79.3451 143.14C77.7426 143.233 78.2768 144.591 80.1464 145.247C81.0545 145.621 83.6185 146.277 85.7552 146.698C90.0286 147.635 90.1354 147.775 88.8 151.147C87.6248 154.003 87.7317 156.298 88.9603 156.298C89.7081 156.298 90.5094 155.267 91.8982 152.645C92.9666 150.679 93.9815 148.384 94.1952 147.541C94.4088 146.511 95.2101 145.668 96.599 144.779C97.7741 144.076 101.086 141.36 103.971 138.738C109.099 134.009 112.09 130.029 114.066 124.971L114.707 123.426L117.645 125.768C119.942 127.594 121.118 128.202 122.934 128.437C125.818 128.811 128.222 127.875 129.664 125.721C132.175 122.115 129.664 114.202 124.323 108.77C123.147 107.599 122.186 106.429 122.186 106.148C122.186 105.539 118.821 105.679 114.868 106.429ZM121.652 109.566C124.75 112.469 127.848 121.319 126.62 123.66C125.818 125.159 124.216 125.487 122.079 124.456C119.782 123.426 118.126 121.272 117.699 118.791C117.485 117.667 117.058 116.496 116.737 116.168C115.883 115.279 113.425 115.419 111.876 116.496C110.007 117.807 106.161 119.306 104.665 119.306C100.979 119.306 104.077 114.951 109.9 111.907C112.143 110.737 118.447 108.629 119.889 108.583C120.263 108.536 121.064 109.004 121.652 109.566Z" fill="#202020"/>
<path d="M589.055 108.349C588.307 110.362 588.307 110.315 591.299 133.026C592.474 142.203 593.328 149.883 593.168 150.023C593.008 150.164 588.948 148.244 584.194 145.715C575.113 140.939 569.397 138.551 567.154 138.504C564.59 138.504 563.415 139.722 563.415 142.297C563.415 145.013 564.376 147.307 570.466 159.107C575.487 168.8 576.288 171.001 575.166 171.937C573.724 173.155 569.397 174.091 547.069 178.025C534.943 180.179 524.099 182.333 522.978 182.848C519.185 184.44 520.414 187.296 525.702 189.029C527.198 189.497 534.943 191.183 542.902 192.775C564.91 197.129 578.372 200.782 578.372 202.421C578.372 202.795 576.502 204.809 574.205 206.963C565.925 214.689 560.851 219.98 560.477 221.244C560.21 222.228 560.37 222.696 561.278 223.352C562.239 224.054 562.667 224.054 564.75 223.539C566.032 223.164 572.602 220.355 579.28 217.264C585.957 214.174 592.046 211.552 592.794 211.411C594.984 210.943 595.625 211.692 595.839 214.689C595.946 216.187 596.373 223.867 596.801 231.78C597.869 250.323 598.51 253.226 601.555 253.226C605.08 253.226 607.751 248.403 615.603 227.519C618.969 218.622 622.014 211.036 622.387 210.709C622.922 210.194 623.456 210.475 625.112 212.113C629.385 216.375 641.19 226.629 642.579 227.285C645.838 228.783 647.654 227.472 647.12 224.007C646.906 222.93 644.983 216.843 642.793 210.381C640.603 203.966 638.84 198.628 638.947 198.534C639.054 198.44 642.312 199.143 646.105 200.079C655.239 202.28 669.982 204.949 675.324 205.277C679.224 205.558 679.704 205.511 680.613 204.621C682.696 202.561 681.681 201.531 664.48 187.483C658.231 182.379 653.209 177.931 653.316 177.65C653.423 177.369 656.414 175.637 659.94 173.857C668.754 169.362 673.828 166.037 674.897 164.024C675.752 162.432 675.752 162.338 674.683 161.402C673.187 160.044 666.51 159.435 657.91 159.763C654.224 159.903 651.019 159.903 650.859 159.716C650.645 159.575 653.316 156.86 656.788 153.769C666.777 144.732 675.217 136.163 677.087 133.026C678.583 130.591 677.675 128.671 675.057 128.671C673.935 128.671 663.359 133.26 648.669 140.049C642.793 142.765 637.879 144.919 637.665 144.825C637.451 144.732 637.398 139.815 637.558 133.962C637.825 121.787 637.398 119.633 634.941 119.399C633.124 119.212 632.75 119.727 626.447 130.076C621.052 139.019 618.915 142.25 618.328 142.25C618.114 142.25 617.046 140.845 615.871 139.066C614.749 137.333 612.185 133.4 610.208 130.31C603.958 120.664 596.961 110.924 594.771 108.77C593.222 107.178 592.313 106.663 591.192 106.663C589.91 106.663 589.589 106.944 589.055 108.349ZM594.877 113.359C598.243 117.807 606.843 130.544 611.116 137.427C614.642 143.187 616.672 145.528 618.221 145.528C620.037 145.528 623.028 141.829 627.943 133.447C630.721 128.811 633.285 124.597 633.712 124.129C634.353 123.38 634.46 123.426 634.567 124.925C634.62 125.814 634.674 131.293 634.727 137.099V147.635L636.169 147.775C637.238 147.869 642.526 145.715 655.239 139.956C664.908 135.554 673.081 131.949 673.401 131.949C673.722 131.949 673.989 132.089 673.989 132.276C673.989 133.166 660.634 146.371 653.263 152.879C648.776 156.813 645.143 160.278 645.143 160.652C645.143 162.245 646.265 162.385 659.085 162.385C666.083 162.385 671.905 162.572 672.066 162.806C672.814 163.79 667.151 167.395 657.216 172.265C651.233 175.168 649.684 176.526 650.271 178.493C650.485 179.336 655.026 183.41 663.893 190.808C671.211 196.848 677.194 201.999 677.194 202.233C677.194 203.31 669.982 202.14 652.515 198.347C635.688 194.694 635.528 194.694 635.528 197.785C635.528 198.628 636.703 202.608 638.146 206.588C641.831 216.656 644.075 224.194 643.434 224.194C642.633 224.194 637.238 219.559 630.827 213.331C624.204 206.869 623.135 206.167 621.64 206.869C619.984 207.665 618.862 210.006 613.894 223.492C607.11 241.848 603.478 249.948 601.929 249.948C600.914 249.948 600.486 245.781 599.471 226.021C599.044 217.358 598.456 211.224 598.083 210.475C596.48 207.384 592.153 207.993 582.111 212.722C571.32 217.779 566.032 220.074 565.712 219.793C565.338 219.512 567.1 217.686 574.579 210.709C581.042 204.621 582.485 202.702 581.63 201.297C579.654 198.113 569.611 195.163 540.979 189.31C529.655 187.015 525.488 185.938 525.488 185.329C525.488 184.814 525.648 184.814 547.924 180.881C569.825 177.041 573.404 176.292 576.342 174.981C580.722 173.014 580.401 170.954 573.404 157.328C567.955 146.839 566.353 143.046 566.833 142.016C567.314 140.845 571.374 142.484 583.072 148.618C593.382 154.05 595.572 154.94 596.16 154.05C596.32 153.863 596.213 152.552 595.946 151.147C595.091 146.324 591.512 112.422 591.672 110.503C591.779 109.519 592.153 109.847 594.877 113.359Z" fill="#202020"/>
<path d="M610.849 154.19C603.05 155.923 594.022 161.636 589.482 167.723C587.238 170.813 585.101 176.152 584.567 180.272C582.965 191.838 594.877 201.39 609.353 200.126C624.043 198.815 638.572 187.905 640.282 176.901C641.617 168.051 636.436 159.06 627.729 155.314C624.684 154.003 623.615 153.816 619.075 153.675C615.763 153.582 612.772 153.769 610.849 154.19ZM626.073 158.124C629.545 159.622 633.498 163.134 635.367 166.459C636.703 168.94 636.863 169.643 636.863 174.091C636.863 178.586 636.703 179.242 635.314 181.817C633.498 185.048 628.263 189.871 623.615 192.54C607.323 201.905 587.986 196.286 587.986 182.239C587.986 176.152 591.565 168.144 595.945 164.305C598.296 162.291 606.362 158.498 610.475 157.468C614.908 156.391 622.814 156.719 626.073 158.124Z" fill="#202020"/>
<path d="M618.061 169.737C617.046 170.064 617.206 172.125 618.274 172.64C620.251 173.576 622.067 171.375 620.464 169.971C619.77 169.362 619.182 169.315 618.061 169.737Z" fill="#202020"/>
<path d="M601.021 176.62C600.433 177.931 601.074 179.008 602.516 179.149C604.172 179.336 605.08 177.791 604.012 176.667C603.157 175.777 601.395 175.777 601.021 176.62Z" fill="#202020"/>
<path d="M617.686 183.784C618.007 186.921 617.9 187.577 617.045 188.513C616.191 189.45 615.817 189.543 614.641 189.169C613.359 188.701 611.383 186.921 610.154 185.095C609.674 184.393 609.513 184.393 608.979 184.955C608.018 185.938 610.048 189.263 612.291 190.48C615.977 192.493 619.556 191.042 620.304 187.249C620.624 185.423 619.823 181.817 618.861 180.74C617.686 179.476 617.366 180.319 617.686 183.784Z" fill="#202020"/>
<path d="M498.245 107.974C498.245 108.442 499.099 110.971 500.114 113.64C502.572 119.914 502.518 124.035 499.901 126.844L498.939 127.875L497.657 125.814C495.253 122.021 491.247 120.664 487.722 122.583C485.425 123.801 484.73 125.112 485.051 127.64C485.531 131.293 488.79 133.962 493.437 134.524L496.108 134.852V137.708C496.055 146.933 490.019 157.281 482.807 160.512C481.525 161.074 480.403 161.448 480.297 161.308C480.19 161.214 480.564 159.248 481.205 156.953C483.929 146.839 479.495 139.581 472.765 143.186C469.399 144.966 467.102 149.508 467.209 154.097C467.316 158.171 468.224 160.325 470.895 162.713C473.619 165.194 473.619 165.194 469.399 169.783C464.432 175.215 456.312 179.757 451.505 179.804C449.955 179.851 448.727 179.57 448.246 179.148C447.498 178.493 447.712 178.165 450.383 175.964C454.229 172.78 456.686 168.519 456.793 165.007C456.793 162.151 456.152 161.167 453.481 160.184C449.795 158.826 445.255 161.308 442.263 166.271C440.981 168.425 440.821 169.221 440.821 173.342L440.768 177.978L438.684 178.633C435.479 179.663 429.123 179.289 426.131 177.931C421.163 175.636 417.852 171.75 417.264 167.536C417.104 166.037 417.317 162.759 417.798 159.622C418.279 156.672 418.546 154.19 418.386 154.05C416.997 152.832 414.379 160.699 414.379 166.131C414.379 171.141 415.448 173.623 419.134 176.854C424.903 182.051 431.473 183.55 439.165 181.583C442.424 180.694 443.545 180.6 444.24 181.021C447.017 182.754 448.46 183.175 451.611 183.175C458.556 183.128 468.758 176.948 474.795 169.081C476.718 166.646 477.839 165.616 478.908 165.382C484.837 164.258 488.897 161.963 492.583 157.656C497.604 151.802 499.74 146.183 500.221 137.802C500.488 132.698 500.649 132.042 501.877 130.778C505.349 127.125 506.631 121.928 505.136 117.198C504.441 114.998 501.183 109.098 500.008 107.927C498.886 106.897 498.245 106.897 498.245 107.974ZM492.743 126.423C495.307 128.905 495.574 131.012 493.437 131.012C491.835 131.012 489.164 128.53 489.164 127.125C489.164 125.206 491.087 124.878 492.743 126.423ZM477.359 147.213C478.534 149.18 478.32 154.518 476.931 157.89C476.344 159.388 475.703 160.746 475.542 160.933C474.901 161.448 473.406 160.184 472.23 158.171C470.147 154.659 470.842 150.07 473.78 147.12C475.649 145.247 476.29 145.294 477.359 147.213ZM452.519 163.134C453.855 163.555 453.588 166.552 451.985 169.315C450.757 171.469 446.43 175.496 445.362 175.496C444.881 175.496 444.293 173.81 444.293 172.405C444.293 170.064 446.056 166.318 448.032 164.632C450.009 162.853 450.864 162.572 452.519 163.134Z" fill="#202020"/>
<path d="M297.662 108.489C293.068 110.315 291.252 113.64 291.306 120.008C291.412 127.594 294.457 133.025 300.974 137.38C304.446 139.675 305.087 139.909 307.491 139.909C310.803 139.909 317.64 137.802 322.555 135.226C330.674 131.012 335.054 125.299 335.054 118.978C335.054 115.232 334.253 113.827 331.048 111.907C327.683 109.94 323.303 110.643 317.747 114.061L314.329 116.168L313.207 114.81C307.918 108.348 303.004 106.335 297.662 108.489ZM304.393 113.359C305.354 113.921 307.117 115.56 308.186 116.964C312.566 122.49 313.367 122.724 318.335 119.352C322.608 116.496 324.691 115.56 326.721 115.56C330.193 115.56 330.941 119.165 328.431 123.754C326.401 127.5 323.036 130.169 316.625 133.213C314.222 134.336 305.728 137.567 305.141 137.567C305.034 137.567 303.966 136.678 302.79 135.554C298.464 131.574 296.327 126.704 296.327 120.57C296.327 116.543 297.182 114.202 299.051 113.031C300.76 112.001 302.256 112.094 304.393 113.359Z" fill="#202020"/>
<path d="M369.509 113.031C368.601 113.968 367.319 115.606 366.731 116.73L365.609 118.697L359.573 118.931C352.95 119.212 351.08 119.821 350.492 121.881C350.065 123.379 351.507 125.346 355.514 128.811L358.665 131.574L357.116 136.21C354.712 143.233 355.3 143.561 363.152 139.768L368.227 137.287L371.432 138.598C376.293 140.611 377.735 140.705 379.338 139.3C380.566 138.223 380.727 137.708 380.727 134.852V131.574L384.092 129.701C389.167 126.751 390.876 125.206 390.876 123.567C390.876 121.506 389.06 120.664 383.771 120.195C381.368 120.008 379.017 119.727 378.536 119.54C378.109 119.399 377.308 117.994 376.774 116.496C374.957 111.158 372.554 110.034 369.509 113.031ZM372.18 118.135C372.18 118.51 371.806 118.837 371.379 118.837C370.898 118.837 370.738 118.556 370.898 118.135C371.111 117.76 371.432 117.433 371.699 117.433C371.966 117.433 372.18 117.76 372.18 118.135ZM362.351 123.707C362.725 124.597 361.657 126.329 360.748 126.329C360.375 126.329 359.413 125.767 358.612 125.065C357.543 124.129 357.33 123.754 357.864 123.426C359.039 122.817 362.03 123.005 362.351 123.707ZM373.141 123.894C373.836 124.316 374.851 126.938 374.851 128.437C374.851 129.092 373.996 129.748 372.073 130.637L369.295 131.948L367.265 130.778C366.144 130.122 365.236 129.279 365.236 128.905C365.236 128.483 365.823 127.125 366.571 125.861C367.853 123.614 368.013 123.52 370.203 123.52C371.432 123.52 372.767 123.707 373.141 123.894ZM383.024 124.41C383.932 124.55 383.291 125.44 381.742 126.142C380.353 126.751 379.979 126.798 379.605 126.236C378.323 124.55 379.551 123.894 383.024 124.41ZM375.919 134.477C375.919 134.617 375.705 134.852 375.385 134.992C375.118 135.133 374.851 135.039 374.851 134.805C374.851 134.524 375.118 134.29 375.385 134.29C375.705 134.29 375.919 134.383 375.919 134.477Z" fill="#202020"/>
<path d="M181.64 114.248C180.144 115.7 175.604 122.162 175.604 122.864C175.604 124.925 178.221 123.426 181.854 119.259L183.723 117.058L187.302 119.399C192.003 122.537 194.3 123.239 194.3 121.6C194.3 120.898 189.065 116.121 186.608 114.576C184.097 112.937 183.082 112.89 181.64 114.248Z" fill="#202020"/>
<path d="M52.9571 114.155C51.5149 114.67 50.8739 115.981 51.9422 116.309C52.8503 116.637 56.0019 115.138 56.3759 114.249C56.5895 113.593 54.6665 113.546 52.9571 114.155Z" fill="#202020"/>
<path d="M40.6175 116.356C39.3889 116.777 39.8696 117.901 41.2051 117.901C43.6088 117.901 45.799 117.292 45.799 116.683C45.799 116.215 45.1045 116.028 43.5554 116.075C42.2734 116.075 40.938 116.215 40.6175 116.356Z" fill="#202020"/>
<path d="M526.075 116.917C524.793 117.62 526.236 118.65 529.921 119.727C539.964 122.536 547.87 123.801 548.671 122.63C549.259 121.787 548.297 120.663 546.16 119.68C544.878 119.118 540.765 118.275 536.225 117.62C527.411 116.355 527.09 116.355 526.075 116.917Z" fill="#202020"/>
<path d="M27.7439 118.603C26.7289 118.978 26.0345 119.54 26.1947 119.868C26.6221 120.991 31.8036 119.821 32.3378 118.463C32.6048 117.667 29.9874 117.76 27.7439 118.603Z" fill="#202020"/>
<path d="M15.7252 120.523C13.8021 121.038 13.2145 121.413 13.3214 122.021C13.535 122.911 14.1226 122.864 18.4495 121.834C20.1054 121.366 21.2272 120.851 21.2272 120.429C21.2272 119.587 19.0905 119.633 15.7252 120.523Z" fill="#202020"/>
<path d="M1.24902 123.286C-0.994516 123.988 -2.00945 124.878 -1.20819 125.58C-0.620594 126.095 6.96469 123.941 7.23177 123.145C7.49886 122.349 3.91989 122.443 1.24902 123.286Z" fill="#202020"/>
<path d="M211.554 124.222C210.058 125.112 204.984 132.323 204.984 133.447C204.984 134.805 206.533 134.43 208.402 132.51C209.364 131.574 210.859 130.076 211.768 129.186L213.317 127.641L217.537 130.263C221.543 132.838 223.092 133.306 223.519 132.089C223.947 131.012 215.026 123.52 213.317 123.52C212.996 123.52 212.195 123.848 211.554 124.222Z" fill="#202020"/>
<path d="M527.518 127.36C525.595 128.718 517.529 142.671 517.476 144.685C517.476 146.09 520.04 145.715 521.696 144.17C523.512 142.484 529.922 128.671 529.441 127.547C529.067 126.657 528.64 126.61 527.518 127.36Z" fill="#202020"/>
<path d="M548.457 128.483C539.109 130.216 534.141 132.23 536.278 133.447C537.239 133.962 537.239 133.962 546.107 132.23C554.547 130.544 557.538 129.56 557.538 128.437C557.538 127.547 553.318 127.547 548.457 128.483Z" fill="#202020"/>
<path d="M146.063 131.34C143.499 134.477 141.416 137.755 141.416 138.644C141.416 140.377 143.499 139.347 146.491 136.209L149.482 132.932L153.542 135.507C155.785 136.912 158.029 138.036 158.563 138.036C160.433 138.036 159.578 136.397 156.266 133.54C150.07 128.296 148.841 128.015 146.063 131.34Z" fill="#202020"/>
<path d="M-0.406907 130.497C-0.834247 131.152 2.26397 132.791 4.56092 133.166C8.94115 133.915 6.16344 131.199 1.62296 130.356C0.661442 130.169 -0.193237 130.216 -0.406907 130.497Z" fill="#202020"/>
<path d="M32.872 133.4L31.1092 135.226L28.011 134.758C24.0047 134.102 21.0133 134.29 20.7996 135.226C20.7462 135.648 21.8146 137.099 23.3103 138.504L25.9277 141.079L24.3786 142.765C23.5239 143.701 22.8295 144.732 22.8295 145.013C22.8295 145.668 24.9128 145.668 27.9576 145.013L30.4148 144.451L33.2459 146.932C37.1454 150.304 38.0535 150.07 38.1069 145.762L38.1603 142.484L40.1368 141.828C42.8611 140.939 42.594 139.581 39.4958 138.551C36.6646 137.567 36.1839 137.005 36.1839 134.243C36.1839 131.246 35.1155 131.012 32.872 133.4ZM28.7054 137.099C29.3999 137.474 29.3999 137.614 28.5452 138.363C27.6905 139.159 27.5837 139.113 26.1948 137.895L24.6991 136.631H26.3016C27.2097 136.631 28.2781 136.865 28.7054 137.099ZM33.9403 138.597C34.3143 138.925 34.5813 139.628 34.5813 140.236C34.5813 141.594 32.3912 142.484 30.7887 141.782C29.4533 141.126 29.5067 140.471 30.949 139.113C32.231 137.895 32.9788 137.755 33.9403 138.597ZM35.6497 144.685C35.6497 145.668 35.5963 145.668 34.5813 144.825C33.7801 144.17 33.6733 143.842 34.154 143.608C35.0621 143.093 35.6497 143.514 35.6497 144.685Z" fill="#202020"/>
<path d="M288.421 132.323C287.193 133.4 281.317 143.468 277.845 150.445C272.716 160.793 267.749 176.198 268.71 178.54C269.405 180.085 270.473 178.446 273.144 171.75C274.533 168.285 277.577 161.402 279.928 156.532C288.795 137.989 290.451 134.337 290.451 133.166C290.451 131.574 289.65 131.246 288.421 132.323Z" fill="#202020"/>
<path d="M762.394 133.541C759.082 134.852 757.32 137.755 757.32 142.016C757.32 144.404 757.266 144.498 755.61 144.779C753.26 145.2 751.497 146.277 750.856 147.682C749.681 150.491 755.29 156.813 761.059 159.201C765.439 161.027 770.14 161.683 772.544 160.793C775.588 159.669 776.283 157.749 776.283 150.21C776.283 144.076 776.229 143.795 774.627 140.845C771.422 135.039 766.4 132.042 762.394 133.541ZM767.576 136.865C771.208 139.019 773.879 144.451 773.879 149.789C773.879 153.769 772.971 157.328 771.582 158.545C770.407 159.575 770.3 159.575 767.202 158.873C765.439 158.452 763.035 157.609 761.86 157C759.349 155.736 754.969 151.756 754.008 149.929C753.42 148.852 753.473 148.618 754.382 148.056C754.916 147.682 756.144 147.401 756.999 147.401C758.388 147.401 758.922 147.775 760.204 149.508C761.646 151.568 764.905 154.237 767.309 155.314C770.086 156.579 772.276 155.408 772.276 152.739C772.276 151.428 771.796 150.679 769.766 148.899C768.217 147.541 766.133 146.324 764.531 145.809C760.525 144.498 760.364 144.357 760.631 140.986C760.792 138.738 761.112 137.802 762.127 136.865C763.73 135.367 765.118 135.367 767.576 136.865ZM767.148 150.398C769.499 152.318 769.766 153.535 767.629 152.318C765.653 151.241 763.73 149.695 763.73 149.18C763.73 148.337 765.386 148.899 767.148 150.398Z" fill="#202020"/>
<path d="M11.6119 134.898C11.6119 135.882 16.9003 138.27 17.5947 137.661C18.396 136.959 17.2208 135.741 14.9772 134.898C12.7871 134.102 11.6119 134.102 11.6119 134.898Z" fill="#202020"/>
<path d="M185.86 138.504C183.723 140.517 179.717 146.792 180.144 147.401C180.839 148.431 182.067 147.775 184.738 144.919C186.234 143.327 187.676 141.829 187.943 141.594C188.157 141.36 189.973 142.203 192.003 143.561C199.535 148.431 201.084 146.839 194.3 141.126C191.949 139.159 189.813 137.567 189.546 137.567C189.279 137.567 188.691 137.427 188.21 137.286C187.676 137.099 186.821 137.567 185.86 138.504Z" fill="#202020"/>
<path d="M527.891 137.568C527.037 138.738 532.004 140.237 543.489 142.297C551.555 143.702 553.104 143.702 552.196 142.25C551.448 140.986 546.48 139.534 538.842 138.223C531.791 137.006 528.425 136.818 527.891 137.568Z" fill="#202020"/>
<path d="M703.903 138.036C700.377 139.675 694.768 144.217 692.631 147.073C687.183 154.425 687.824 162.151 694.341 168.659L696.584 170.86L695.73 174.466C694.448 180.085 694.234 182.426 694.822 186.781C695.463 191.698 696.851 195.35 699.736 199.564C701.98 202.936 706.467 207.337 707.535 207.337C709.244 207.337 708.603 205.558 704.971 200.032C702.888 196.801 701.232 194.039 701.392 193.945C701.552 193.805 702.567 193.898 703.742 194.179C710.152 195.771 715.12 193.617 716.028 188.982C716.616 185.798 713.625 182.988 709.672 182.988C707.214 182.988 702.781 184.908 701.071 186.734C700.27 187.577 699.415 188.092 699.202 187.905C698.668 187.483 698.721 176.62 699.255 174.466L699.683 172.733L702.994 173.857C709.618 176.011 715.494 175.824 721.797 173.202C729.65 169.924 735.098 161.448 732.481 156.579C731.519 154.799 729.383 153.488 727.406 153.488C726.445 153.488 726.338 153.207 726.338 150.772C726.338 147.822 725.109 145.528 723.026 144.544C722.332 144.217 720.248 143.842 718.325 143.702L714.853 143.421L714.533 141.688C714.159 139.581 713.251 138.551 711.007 137.708C708.657 136.865 706.146 136.959 703.903 138.036ZM709.351 141.36C710.313 141.829 710.366 142.156 710.099 144.31C709.458 148.478 710.847 149.742 714.693 148.571C717.684 147.682 720.195 147.682 721.21 148.618C722.278 149.555 722.278 149.648 720.943 153.113C720.355 154.659 719.928 156.391 720.035 156.953C720.195 157.843 720.515 157.936 724.201 157.936H728.207L728.368 159.435C728.742 162.713 724.148 167.957 719.127 169.971C715.227 171.563 707.482 171.469 703.635 169.877C700.056 168.332 696.104 164.82 694.448 161.636C693.326 159.435 693.112 158.545 693.326 156.11C693.753 151.381 696.958 146.605 702.193 142.906C705.185 140.752 707.161 140.33 709.351 141.36ZM711.808 186.828C712.823 187.717 712.556 189.028 711.06 190.34C709.778 191.417 709.405 191.51 706.627 191.276C701.018 190.761 700.644 189.965 704.864 187.624C707.482 186.172 710.687 185.844 711.808 186.828Z" fill="#202020"/>
<path d="M246.328 138.457C240.933 140.611 235.378 149.367 233.722 158.405C233.401 160.184 232.974 161.823 232.814 162.01C232.653 162.198 230.944 161.402 229.021 160.231C218.284 153.722 206.586 155.689 206.586 164.071C206.586 170.86 219.246 181.911 231.692 185.985C237.301 187.858 241.948 189.029 242.749 188.748C244.939 187.998 254.448 172.499 257.225 164.96C262.086 152.037 260.217 141.033 252.685 138.223C250.388 137.38 248.946 137.427 246.328 138.457ZM252.418 142.25C254.608 144.076 255.409 146.043 255.623 150.632C255.997 157.047 254.448 162.525 249.854 171.094C247.771 175.028 242.536 183.503 240.88 185.704C240.025 186.781 229.876 182.613 223.786 178.68C216.628 174.044 210.859 167.489 210.859 163.977C210.859 160.84 212.836 159.716 217.75 160.137C221.275 160.418 225.549 162.291 229.181 165.148C234.95 169.596 236.767 168.894 237.621 161.87C237.888 159.435 238.529 156.298 238.957 154.893C241.147 147.963 246.435 141.314 249.64 141.314C250.548 141.314 251.777 141.735 252.418 142.25Z" fill="#202020"/>
<path d="M320.098 142.25C316.839 143.374 287.941 171.656 283.934 177.65C282.439 179.851 283.347 180.834 285.483 179.429C289.276 176.947 315.771 150.866 320.205 145.2C322.181 142.671 322.181 141.548 320.098 142.25Z" fill="#202020"/>
<path d="M299.425 144.123C297.556 145.387 290.131 154.19 286.552 159.341C279.874 169.034 265.559 196.661 261.339 208.086C258.027 217.077 256.478 225.459 258.133 225.318C258.988 225.271 260.858 221.713 263.796 214.689C265.238 211.13 268.229 204.715 270.366 200.407C272.503 196.099 276.402 188.139 279.02 182.754C285.002 170.345 292.427 157.094 297.075 150.491C302.043 143.421 302.63 141.875 299.425 144.123Z" fill="#202020"/>
<path d="M16.8467 145.715C14.6566 147.167 16.6864 148.056 18.9834 146.652C19.6244 146.277 20.1586 145.762 20.1586 145.481C20.1586 144.872 17.915 145.013 16.8467 145.715Z" fill="#202020"/>
<path d="M9.47532 148.712C7.49887 149.555 6.64419 151.147 8.13988 151.147C9.58215 151.147 13.2145 149.321 13.2145 148.571C13.2145 147.635 11.7723 147.682 9.47532 148.712Z" fill="#202020"/>
<path d="M-0.941267 152.739C-5.58859 154.612 -6.2296 156.625 -1.63569 155.08C1.30227 154.05 3.70605 152.598 3.33213 152.037C2.85137 151.428 2.05011 151.568 -0.941267 152.739Z" fill="#202020"/>
<path d="M121.866 154.846C112.304 157.234 104.184 163.228 101.3 169.971C100.338 172.265 99.9644 172.687 98.8426 172.687C96.2252 172.687 92.2723 175.449 90.5095 178.54C89.0672 181.115 86.3964 189.403 86.3964 191.417C86.3964 194.507 87.5181 193.196 90.4027 186.594C93.4475 179.663 94.4624 178.165 96.7593 176.948C99.2165 175.59 99.6439 175.683 100.605 177.837C101.674 180.132 103.276 180.74 104.665 179.242C105.787 177.978 105.84 177.088 104.825 175.496C103.65 173.717 103.864 172.171 105.627 169.034C107.603 165.616 112.037 161.87 116.631 159.716C127.741 154.518 142.004 156.625 148.361 164.352C150.818 167.302 150.871 168.051 148.681 170.579C147.292 172.171 146.758 173.202 146.758 174.513C146.758 176.62 147.506 177.369 149.749 177.369C151.833 177.369 153.382 175.871 154.343 172.967C155.091 170.673 155.519 170.345 158.029 170.345C163.638 170.345 168.659 178.352 167.537 185.657C167.27 187.671 166.149 190.106 163.264 195.022C159.685 201.109 159.044 202.842 160.647 201.952C161.875 201.297 166.042 195.818 168.125 192.166C170.796 187.39 171.544 184.065 170.849 180.179C169.354 172.125 163.531 166.74 156.747 167.161L154.023 167.302L152.687 164.96C150.017 160.325 143.767 156.204 137.09 154.659C133.19 153.722 125.872 153.816 121.866 154.846Z" fill="#202020"/>
<path d="M52.156 159.809C45.3186 163.883 43.3955 165.194 34.3146 172.405C24.005 180.553 19.4111 182.848 15.939 181.583C14.0694 180.928 13.1613 179.382 11.078 173.295C9.52887 168.753 8.46052 167.161 7.39217 167.723C6.05673 168.472 7.55242 181.396 9.3152 184.018C11.8792 187.905 17.7552 189.544 23.3106 187.905C28.8126 186.313 40.1905 178.118 53.438 166.131C60.1152 160.137 61.3438 158.826 61.1835 157.749C60.863 155.408 58.8332 155.876 52.156 159.809Z" fill="#202020"/>
<path d="M373.676 159.435C373.195 160.371 373.035 164.773 372.981 174.325C372.981 189.028 373.302 191.651 376.453 202.327L377.949 207.431L375.118 208.508C370.738 210.24 370.844 210.943 376.186 214.689C379.765 217.217 380.94 217.686 383.504 217.732C386.763 217.779 387.404 216.796 388.152 210.802C388.793 206.073 388.739 205.698 387.831 205.09C387.244 204.715 386.282 204.574 385.267 204.809C382.062 205.417 381.688 205.324 380.94 203.451C379.712 200.407 377.575 191.417 376.72 185.563C376.24 182.473 375.705 175.121 375.545 169.268C375.385 163.415 375.011 158.498 374.744 158.358C374.53 158.217 374.049 158.686 373.676 159.435Z" fill="#202020"/>
<path d="M343.976 169.69C343.174 170.158 342.8 170.86 342.8 171.984C342.8 174.747 345.685 176.245 348.089 174.7C352.042 172.125 348.035 167.208 343.976 169.69Z" fill="#202020"/>
<path d="M323.89 172.64C322.501 173.951 322.608 176.386 324.104 177.463C325.813 178.68 327.149 178.493 329.018 176.901C330.3 175.73 330.567 175.215 330.247 174.185C330.087 173.482 329.553 172.64 329.072 172.312C327.736 171.469 324.959 171.609 323.89 172.64Z" fill="#202020"/>
<path d="M754.168 177.182C750.482 181.302 751.711 194.226 756.785 203.498C758.922 207.384 758.922 207.384 758.174 209.866C756.732 214.736 756.091 219.512 756.358 224.054C756.679 228.83 757.106 230.188 759.51 233.325C760.632 234.87 760.952 235.947 761.219 239.272C761.967 249.012 767.789 257.066 776.924 261.046C780.984 262.825 781.037 262.872 781.625 266.478C782.479 272.143 785.471 277.06 790.492 281.04C796.421 285.723 803.152 287.877 811.859 287.877C818.269 287.877 823.718 286.706 830.288 283.943C836.217 281.368 840.597 278.512 845.085 274.297C847.008 272.471 848.664 271.02 848.824 271.02C848.984 271.02 850.373 271.769 851.975 272.658C863.727 279.495 878.364 275.889 887.445 263.902C890.383 260.062 894.122 252.57 895.564 247.654C896.579 244.236 896.579 244.189 899.624 242.69C905.874 239.6 909.292 235.105 909.933 229.205C910.414 224.428 908.277 221.666 904.218 221.759C902.081 221.806 900.211 222.836 897.434 225.552C895.564 227.285 895.083 227.566 894.656 227.004C891.024 221.947 887.391 220.495 884.987 223.117C883.919 224.288 883.812 224.85 884.026 228.174C884.293 232.436 885.682 235.479 889.314 239.647C893.107 244.048 893.214 244.61 891.611 249.105C888.727 257.253 884.56 263.528 879.539 267.508C871.686 273.735 861.43 274.578 853.257 269.662L850.854 268.21L852.67 264.792C855.394 259.594 856.302 256.036 856.035 251.119C855.768 246.015 854.326 242.737 851.174 240.302C849.251 238.757 848.824 238.616 846.687 238.851C843.749 239.132 841.719 240.724 840.063 244.048C839.048 246.015 838.835 247.279 838.781 251.119C838.781 256.878 840.117 260.905 843.589 265.401C846.313 268.959 846.367 268.819 841.292 273.314C829.273 283.943 811.912 287.83 799.252 282.773C791.079 279.448 786.005 273.735 784.669 266.103C784.135 263.059 784.295 262.825 787.874 262.451C793.537 261.795 800.214 256.972 801.656 252.57C803.045 248.216 801.015 244.236 797.116 243.58C791.774 242.737 784.509 248.871 782.159 256.27C781.625 257.815 781.144 259.173 781.09 259.22C780.77 259.547 775.802 257.393 773.986 256.223C769.659 253.32 765.92 247.279 764.852 241.566C764.104 237.493 764.317 237.118 768.11 236.509C772.597 235.76 775.321 233.934 777.511 230.282C778.847 228.034 779.221 226.817 779.221 224.803C779.221 222.509 779.007 222.04 777.405 220.636C773.345 217.077 767.896 219.793 763.837 227.378C762.127 230.656 762.02 230.797 761.273 229.907C759.296 227.425 758.976 218.482 760.578 210.755C761.112 208.227 761.326 207.852 762.555 207.571C764.798 207.15 772.597 202.327 775.001 199.939C779.274 195.678 782.319 188.654 781.678 184.674C780.984 180.74 777.351 178.446 773.665 179.71C772.811 179.991 770.514 181.583 768.591 183.222C765.065 186.172 764.264 186.5 764.264 184.861C764.264 183.129 761.005 178.399 759.029 177.182C756.465 175.636 755.557 175.636 754.168 177.182ZM758.495 182.098C759.029 182.754 759.937 185.189 760.471 187.53C761.7 192.587 761.807 192.821 763.463 192.821C764.317 192.821 765.332 192.166 766.507 190.855C767.469 189.778 769.606 187.671 771.315 186.125C773.772 183.878 774.573 183.409 775.856 183.55C777.298 183.69 777.351 183.737 777.298 186.5C777.298 188.654 776.87 190.059 775.588 192.447C773.505 196.24 770.727 198.768 764.905 202.28L760.471 204.949L759.456 203.451C756.625 199.424 754.916 188.56 756.038 182.379C756.412 180.413 756.999 180.366 758.495 182.098ZM775.375 222.883C776.924 224.241 775.695 228.596 773.131 230.843C771.422 232.295 767.362 233.793 766.187 233.419C765.493 233.185 765.493 232.857 766.187 230.656C768.11 224.944 773.024 220.823 775.375 222.883ZM906.301 226.208C906.889 227.566 906.087 231.78 904.752 233.981C904.218 234.917 903.096 236.228 902.241 236.884C900.585 238.242 896.152 240.583 895.244 240.583C894.389 240.583 889.742 234.636 888.673 232.108C887.658 229.767 887.284 226.067 888.086 226.067C888.94 226.067 890.756 228.221 891.932 230.609C893.053 232.951 894.496 233.981 895.671 233.325C895.991 233.185 897.22 231.733 898.449 230.141C899.677 228.549 901.28 226.77 901.974 226.208C903.737 224.803 905.713 224.803 906.301 226.208ZM849.732 243.393C850.587 244.189 851.601 245.593 851.975 246.577C852.883 248.778 852.83 255.708 851.922 258.143C850.8 261.139 848.557 265.401 848.129 265.401C847.381 265.401 844.39 260.905 843.322 258.189C842.093 255.193 841.879 249.48 842.894 246.577C843.589 244.423 845.993 241.988 847.328 241.988C847.809 241.988 848.931 242.643 849.732 243.393ZM798.451 247.56C800.428 250.885 797.276 255.801 791.507 258.377C789.05 259.501 785.364 260.062 784.883 259.407C784.349 258.658 786.058 254.397 787.928 252.009C791.347 247.513 796.955 245.172 798.451 247.56Z" fill="#202020"/>
<path d="M352.949 180.506C350.492 181.302 349.477 184.065 350.813 186.266C351.454 187.343 353.751 187.811 355.139 187.155C356.742 186.406 357.864 183.784 357.223 182.286C356.849 181.396 354.552 179.944 353.857 180.225C353.804 180.225 353.377 180.366 352.949 180.506Z" fill="#202020"/>
<path d="M304.393 186.078C303.111 187.53 303.111 187.67 303.806 189.263C304.233 190.246 304.66 190.48 306.209 190.48C308.506 190.48 310.216 189.122 310.216 187.202C310.216 184.72 306.316 183.971 304.393 186.078Z" fill="#202020"/>
<path d="M332.544 185.797C330.835 186.921 330.407 188.841 331.316 190.808C331.957 192.119 332.331 192.353 333.88 192.353C337.672 192.353 340.023 188.045 337.459 185.797C336.123 184.627 334.254 184.627 332.544 185.797Z" fill="#202020"/>
<path d="M211.714 190.059C210.485 190.902 210.325 191.37 210.325 193.758C210.325 200.922 216.628 208.742 222.29 208.742C228.701 208.695 236.5 201.952 236.5 196.38C236.5 194.648 236.232 194.132 234.844 193.102C232.707 191.51 229.502 191.51 225.228 193.102L221.97 194.273L218.872 191.698C215.4 188.794 214.011 188.467 211.714 190.059ZM217.59 194.882C218.979 196.286 220.367 197.551 220.741 197.691C221.062 197.785 223.038 197.27 225.015 196.521C227.045 195.771 229.502 195.022 230.463 194.882C231.959 194.648 232.28 194.741 232.814 195.771C234.203 198.487 229.555 203.404 223.733 205.464L220.848 206.448L219.139 204.996C216.895 203.076 214.812 199.705 214.064 196.801C213.477 194.413 213.69 192.353 214.598 192.353C214.865 192.353 216.201 193.524 217.59 194.882Z" fill="#202020"/>
<path d="M487.561 193.009C484.516 194.507 479.762 204.106 478.213 211.879C477.786 214.08 477.412 217.92 477.412 220.355C477.412 224.335 477.519 224.756 478.213 224.194C478.64 223.82 479.869 220.636 480.937 217.171C482.647 211.552 483.288 210.24 486.546 205.605C490.873 199.517 491.835 197.644 491.835 195.444C491.835 193.805 490.713 192.353 489.538 192.353C489.164 192.4 488.309 192.681 487.561 193.009Z" fill="#202020"/>
<path d="M186.607 199.892C186.127 201.203 185.646 203.029 185.432 203.966C184.845 206.963 184.364 207.337 181.586 207.337C180.144 207.337 178.541 207.618 178.007 207.993C177.046 208.601 177.046 208.648 178.061 209.07C178.595 209.351 179.984 209.678 181.052 209.866C182.174 210.053 183.135 210.334 183.242 210.521C183.349 210.709 183.028 212.722 182.548 215.017C181.64 219.09 181.64 220.917 182.601 220.917C183.296 220.917 183.776 219.98 185.219 215.297L186.661 210.849L190.507 210.709C193.819 210.615 194.353 210.474 194.193 209.772C194.086 209.21 193.071 208.789 190.934 208.32C187.516 207.618 187.569 207.759 188.424 202.655C189.278 197.551 187.996 195.678 186.607 199.892Z" fill="#202020"/>
<path d="M313.528 198.253C312.032 199.143 311.978 201.39 313.421 202.655C314.703 203.778 314.97 203.778 316.519 202.842C317.32 202.374 317.694 201.671 317.694 200.547C317.694 199.424 317.32 198.721 316.519 198.253C315.878 197.832 315.183 197.504 315.023 197.504C314.863 197.504 314.169 197.832 313.528 198.253Z" fill="#202020"/>
<path d="M438.15 198.815C434.625 200.267 431.099 204.013 426.452 211.224L424.956 213.471L422.712 211.645C418.813 208.508 415.555 208.133 413.044 210.615C412.136 211.505 411.976 212.301 411.976 216.655C411.976 221.057 412.136 221.9 413.418 224.335C415.074 227.425 420.629 232.623 422.285 232.623C423.781 232.623 434.411 224.054 438.631 219.465C446.27 211.083 448.727 203.029 444.72 199.564C443.011 198.019 440.714 197.785 438.15 198.815ZM442.637 202.701C443.706 205.37 441.195 211.177 436.601 216.562C433.823 219.746 422.659 229.345 421.698 229.345C420.629 229.298 418.279 225.974 417.104 222.883C415.501 218.809 415.661 212.956 417.317 212.956C417.691 212.956 419.454 214.361 421.217 216.093C424.262 219.043 424.529 219.184 425.811 218.669C426.772 218.294 427.947 216.796 429.657 213.799C432.488 208.789 436.12 204.106 438.257 202.701C440.233 201.437 442.05 201.437 442.637 202.701Z" fill="#202020"/>
<path d="M461.387 199.845C459.197 201.765 460.319 205.839 464.004 209.351C467.263 212.441 468.278 214.829 468.331 219.278C468.331 223.445 468.865 224.709 470.094 223.773C472.177 222.275 472.605 208.648 470.735 203.966C469.026 199.658 464.058 197.504 461.387 199.845Z" fill="#202020"/>
</g>
<defs>
<clipPath id="clip0_1_1163">
<rect width="769" height="201" rx="30" fill="white"/>
</clipPath>
</defs>
</svg>
