<svg width="48" height="48" viewBox="0 0 48 48" fill="none" xmlns="http://www.w3.org/2000/svg">
<path d="M24.4633 46.6981C37.2845 46.6981 47.6781 36.3056 47.6781 23.4858C47.6781 10.666 37.2845 0.273438 24.4633 0.273438C11.6422 0.273438 1.2486 10.666 1.2486 23.4858C1.2486 36.3056 11.6422 46.6981 24.4633 46.6981Z" fill="#3968B1"/>
<path d="M47.4773 18.7527C47.1687 17.2448 46.708 15.7615 46.1082 14.3441C45.5199 12.9522 44.7909 11.61 43.9426 10.3545C43.1026 9.11092 42.1378 7.94133 41.0748 6.87879C40.0121 5.81625 38.8424 4.85147 37.5991 4.01127C36.3431 3.16294 35.0008 2.43452 33.6091 1.84583C32.1916 1.24613 30.7078 0.785853 29.1997 0.477307C27.6525 0.160646 26.0598 0 24.4663 0C22.8727 0 21.2805 0.160646 19.7329 0.477307C18.2248 0.785853 16.7414 1.24613 15.3238 1.84583C13.9317 2.43446 12.5894 3.16294 11.3338 4.01127C10.0901 4.85153 8.92034 5.8163 7.85771 6.87879C6.79507 7.94133 5.82978 9.11092 4.9899 10.3545C4.14152 11.61 3.41294 12.9522 2.82428 14.3441C2.22455 15.7615 1.7642 17.2448 1.45561 18.7527C1.13896 20.3002 0.978302 21.8923 0.978302 23.4856C0.978302 25.079 1.13896 26.6715 1.45561 28.2185C1.7642 29.7265 2.22455 31.2102 2.82428 32.6276C3.41299 34.0191 4.14152 35.3612 4.9899 36.6171C5.82978 37.8607 6.79507 39.0299 7.85771 40.0924C8.92034 41.1554 10.0901 42.1201 11.3338 42.9604C12.5894 43.8083 13.9317 44.5372 15.3238 45.1258C16.7413 45.7251 18.2248 46.1858 19.7329 46.4943C19.902 46.5287 20.0716 46.5615 20.2421 46.5925C21.6286 46.8441 23.047 46.9712 24.4663 46.9712C24.5717 46.9712 24.6767 46.9704 24.7821 46.9691C25.8804 46.9546 26.9771 46.8641 28.0571 46.6983C28.4401 46.6397 28.8213 46.5717 29.1996 46.4943C30.7077 46.1858 32.1915 45.7251 33.6091 45.1258C35.0007 44.5372 36.343 43.8083 37.5991 42.9604C38.8424 42.1201 40.0121 41.1554 41.0747 40.0924C42.1378 39.0299 43.1026 37.8607 43.9425 36.6171C44.7909 35.3612 45.5199 34.0191 46.1081 32.6276C46.7079 31.2102 47.1686 29.7265 47.4772 28.2185C47.7939 26.6715 47.9542 25.079 47.9542 23.4856C47.9542 21.8923 47.7939 20.3002 47.4773 18.7527ZM28.0571 46.1441C26.8869 46.3286 25.6874 46.4246 24.4663 46.4246C23.0249 46.4246 21.6146 46.2911 20.2464 46.0357C9.60473 44.0492 1.52493 34.6931 1.52493 23.4856C1.52493 10.8369 11.8163 0.546557 24.4663 0.546557C37.1162 0.546557 47.4076 10.8369 47.4076 23.4856C47.4076 34.9132 39.0073 44.4156 28.0571 46.1441Z" fill="#3968B1"/>
<path d="M34.5958 9.98434V15.9404H34.5953C33.6951 15.9425 32.7948 15.9383 31.8946 15.9507C31.5639 15.9549 31.2336 15.9987 30.9029 16.0246C29.3766 16.0599 28.3701 16.8555 28.1155 18.2886C28.0338 18.7494 28.078 19.2322 28.0644 19.7048C28.0649 20.7457 28.0649 21.7861 28.0649 22.8269V23.8431H34.2388C34.1066 24.7841 33.9799 25.6842 33.8537 26.584L33.8554 26.5857C33.8329 26.6775 33.8104 26.7697 33.7878 26.8619C33.6352 27.811 33.4822 28.76 33.3296 29.7091C33.2824 29.9437 33.2357 30.1779 33.1804 30.4524H28.0649V34.8546C28.0654 35.7731 28.0658 36.6911 28.0662 37.6095C28.0662 39.1702 28.0658 40.7312 28.0654 42.2919V46.8075C27.0907 46.9325 26.0969 46.9967 25.0883 46.9967C24.9889 46.9967 24.8894 46.9962 24.7904 46.9946C23.2368 46.9755 21.7202 46.8029 20.2546 46.4927V30.4295H14.4138C14.4002 30.1303 14.3892 29.8757 14.3777 29.6211V23.8227H20.2549V22.8265C20.2545 21.7555 20.2545 20.6845 20.2545 19.613C20.3046 18.5964 20.3548 17.5798 20.4045 16.5628C20.4479 16.434 20.5065 16.3082 20.5316 16.1756C20.7713 14.8984 21.3192 13.7496 22.0546 12.6977C22.3768 12.2366 22.8235 11.863 23.2137 11.4499C24.9892 10.0852 27.026 9.50932 29.2337 9.52294C30.358 9.52972 31.4831 9.62111 32.6048 9.71121C33.2641 9.76374 33.9178 9.88868 34.5958 9.98434Z" fill="white" stroke="white" stroke-width="0.0559669" stroke-miterlimit="10"/>
<path d="M25.0907 46.7109C24.9917 46.7109 24.8927 46.7104 24.7936 46.7088C23.2396 46.6892 21.7226 46.5141 20.257 46.1987C20.2565 46.2416 20.2562 46.285 20.2557 46.328C20.2544 46.4206 20.2536 46.5133 20.2527 46.6055C21.6392 46.8571 23.0576 46.9842 24.4769 46.9842C24.5823 46.9842 24.6873 46.9833 24.7927 46.9821C24.8917 46.9838 24.9912 46.9842 25.0907 46.9842C26.0993 46.9842 27.0931 46.92 28.0677 46.795V46.5188C27.0932 46.6454 26.0994 46.7109 25.0907 46.7109Z" fill="white" stroke="white" stroke-width="0.0559669" stroke-miterlimit="10"/>
</svg>
