<svg width="48" height="47" viewBox="0 0 48 47" fill="none" xmlns="http://www.w3.org/2000/svg">
<path d="M24.42 46.7006C37.2418 46.7006 47.636 36.3075 47.636 23.487C47.636 10.6665 37.2418 0.273438 24.42 0.273438C11.5982 0.273438 1.20404 10.6665 1.20404 23.487C1.20404 36.3075 11.5982 46.7006 24.42 46.7006Z" fill="url(#paint0_linear_1_853)"/>
<path d="M47.4341 18.7537C47.1255 17.2457 46.6647 15.7624 46.0649 14.3448C45.4766 12.9528 44.7476 11.6106 43.8992 10.3551C43.0592 9.11141 42.0943 7.94175 41.0312 6.87915C39.9685 5.81655 38.7987 4.85173 37.5554 4.01148C36.2993 3.16312 34.9569 2.43465 33.5652 1.84593C32.1476 1.2462 30.6637 0.785889 29.1555 0.477326C27.6082 0.160704 26.0154 0 24.4218 0C22.8282 0 21.2359 0.160648 19.6882 0.477326C18.18 0.785889 16.6965 1.2462 15.2789 1.84593C13.8867 2.43459 12.5443 3.16312 11.2887 4.01148C10.0449 4.85179 8.87508 5.81661 7.81239 6.87915C6.7497 7.94175 5.78436 9.11141 4.94443 10.3551C4.096 11.6106 3.36738 12.9528 2.77869 14.3448C2.17894 15.7623 1.71856 17.2457 1.40995 18.7537C1.09329 20.3013 0.932617 21.8934 0.932617 23.4869C0.932617 25.0803 1.09329 26.673 1.40995 28.2201C1.71856 29.7281 2.17894 31.2118 2.77869 32.6293C3.36744 34.0209 4.096 35.3631 4.94443 36.6191C5.78436 37.8628 6.7497 39.032 7.81239 40.0946C8.87508 41.1576 10.0449 42.1224 11.2887 42.9627C12.5443 43.8106 13.8867 44.5396 15.2789 45.1282C16.6965 45.7275 18.18 46.1883 19.6882 46.4968C19.8573 46.5313 20.027 46.564 20.1974 46.595C21.584 46.8466 23.0025 46.9737 24.4218 46.9737C24.5272 46.9737 24.6323 46.9729 24.7377 46.9716C25.836 46.9572 26.9328 46.8667 28.0128 46.7009C28.3958 46.6423 28.7771 46.5742 29.1554 46.4969C30.6636 46.1883 32.1475 45.7276 33.5651 45.1283C34.9568 44.5396 36.2992 43.8107 37.5553 42.9627C38.7987 42.1224 39.9685 41.1576 41.0312 40.0946C42.0943 39.032 43.0592 37.8628 43.8991 36.6192C44.7475 35.3632 45.4766 34.0209 46.0649 32.6294C46.6647 31.2119 47.1254 29.7281 47.434 28.2201C47.7507 26.673 47.911 25.0804 47.911 23.4869C47.911 21.8934 47.7508 20.3013 47.4341 18.7537ZM28.0128 46.1466C26.8426 46.3311 25.6431 46.4271 24.4218 46.4271C22.9804 46.4271 21.57 46.2936 20.2017 46.0382C9.55951 44.0516 1.47928 34.695 1.47928 23.4868C1.47928 10.8375 11.7712 0.546586 24.4218 0.546586C37.0725 0.546586 47.3644 10.8374 47.3644 23.4868C47.3644 34.9151 38.9636 44.418 28.0128 46.1466Z" fill="url(#paint1_linear_1_853)"/>
<path d="M24.4245 12.2701C28.0801 12.2701 28.5131 12.284 29.9568 12.3498C31.2917 12.4108 32.0166 12.6337 32.499 12.8212C33.1381 13.0696 33.5941 13.3663 34.0732 13.8452C34.5523 14.3243 34.849 14.7803 35.0974 15.4193C35.2849 15.9017 35.5079 16.6266 35.5688 17.9612C35.6347 19.4048 35.6486 19.8377 35.6486 23.493C35.6486 27.1483 35.6347 27.5813 35.5688 29.0248C35.5079 30.3595 35.2849 31.0844 35.0974 31.5668C34.849 32.2057 34.5523 32.6618 34.0732 33.1408C33.5941 33.6199 33.1381 33.9165 32.499 34.1648C32.0166 34.3523 31.2916 34.5753 29.9568 34.6362C28.5133 34.7021 28.0804 34.716 24.4245 34.716C20.7686 34.716 20.3356 34.702 18.8921 34.6362C17.5572 34.5753 16.8323 34.3523 16.3499 34.1648C15.7109 33.9165 15.2548 33.6199 14.7757 33.1408C14.2966 32.6618 13.9999 32.2057 13.7515 31.5668C13.5641 31.0844 13.341 30.3595 13.2801 29.0248C13.2143 27.5813 13.2003 27.1483 13.2003 23.4931C13.2003 19.8378 13.2143 19.4048 13.2801 17.9613C13.341 16.6266 13.564 15.9017 13.7515 15.4193C13.9999 14.7803 14.2966 14.3243 14.7757 13.8452C15.2547 13.3662 15.7108 13.0695 16.3499 12.8212C16.8323 12.6337 17.5573 12.4108 18.8921 12.3498C20.3358 12.284 20.7688 12.2701 24.4245 12.2701ZM24.4245 9.80347C20.7062 9.80347 20.24 9.8192 18.7797 9.88585C17.3224 9.95233 16.3272 10.1837 15.4563 10.5222C14.556 10.872 13.7925 11.3401 13.0313 12.1012C12.2702 12.8622 11.8021 13.6257 11.4522 14.5258C11.1137 15.3967 10.8823 16.3917 10.8158 17.8489C10.7492 19.309 10.7334 19.7752 10.7334 23.4931C10.7334 27.211 10.7491 27.6772 10.8158 29.1374C10.8823 30.5945 11.1137 31.5896 11.4522 32.4604C11.802 33.3606 12.2702 34.124 13.0313 34.8851C13.7925 35.6461 14.556 36.1142 15.4563 36.4641C16.3272 36.8025 17.3224 37.0339 18.7797 37.1004C20.24 37.167 20.7062 37.1828 24.4245 37.1828C28.1427 37.1828 28.609 37.167 30.0693 37.1004C31.5265 37.0339 32.5217 36.8025 33.3926 36.4641C34.2929 36.1142 35.0564 35.6461 35.8176 34.8851C36.5788 34.124 37.0469 33.3606 37.3967 32.4604C37.7352 31.5896 37.9666 30.5945 38.0331 29.1374C38.0997 27.6772 38.1155 27.211 38.1155 23.4931C38.1155 19.7752 38.0998 19.309 38.0331 17.8489C37.9666 16.3918 37.7352 15.3967 37.3967 14.5258C37.0469 13.6256 36.5787 12.8622 35.8176 12.1012C35.0565 11.3401 34.2929 10.872 33.3926 10.5222C32.5218 10.1837 31.5266 9.95233 30.0693 9.88585C28.609 9.81926 28.1427 9.80347 24.4245 9.80347Z" fill="white"/>
<path d="M24.4272 16.4531C20.5443 16.4531 17.3967 19.6005 17.3967 23.4829C17.3967 27.3653 20.5443 30.5127 24.4272 30.5127C28.31 30.5127 31.4576 27.3654 31.4576 23.4829C31.4576 19.6005 28.31 16.4531 24.4272 16.4531ZM24.4272 28.0461C21.9067 28.0461 19.8635 26.0031 19.8635 23.4829C19.8635 20.9627 21.9067 18.9196 24.4272 18.9196C26.9476 18.9196 28.9909 20.9627 28.9909 23.4829C28.9908 26.0031 26.9476 28.0461 24.4272 28.0461Z" fill="white"/>
<path d="M31.7377 17.822C32.645 17.822 33.3806 17.0866 33.3806 16.1793C33.3806 15.2721 32.645 14.5366 31.7377 14.5366C30.8303 14.5366 30.0947 15.2721 30.0947 16.1793C30.0947 17.0866 30.8303 17.822 31.7377 17.822Z" fill="white"/>
<defs>
<linearGradient id="paint0_linear_1_853" x1="4.31084" y1="35.0954" x2="44.5264" y2="11.8738" gradientUnits="userSpaceOnUse">
<stop stop-color="#F9CE34"/>
<stop offset="0.4897" stop-color="#EE2A7B"/>
<stop offset="0.5341" stop-color="#E62A81"/>
<stop offset="1" stop-color="#6228D7"/>
</linearGradient>
<linearGradient id="paint1_linear_1_853" x1="4.07629" y1="35.2319" x2="44.7647" y2="11.7372" gradientUnits="userSpaceOnUse">
<stop stop-color="#F9CE34"/>
<stop offset="0.4897" stop-color="#EE2A7B"/>
<stop offset="0.5341" stop-color="#E62A81"/>
<stop offset="1" stop-color="#6228D7"/>
</linearGradient>
</defs>
</svg>
