<svg width="48" height="47" viewBox="0 0 48 47" fill="none" xmlns="http://www.w3.org/2000/svg">
<g clip-path="url(#clip0_1_863)">
<path d="M24.4112 46.9676C37.3844 46.9676 47.9013 36.4522 47.9013 23.4808C47.9013 10.5093 37.3844 -0.00610352 24.4112 -0.00610352C11.438 -0.00610352 0.921082 10.5093 0.921082 23.4808C0.921082 36.4522 11.438 46.9676 24.4112 46.9676Z" fill="#0B69C7"/>
<path d="M19.1557 14.9425C19.1563 15.5772 18.9685 16.1978 18.6163 16.7258C18.264 17.2538 17.7629 17.6655 17.1766 17.9086C16.5902 18.1518 15.9449 18.2156 15.3223 18.0919C14.6996 17.9683 14.1277 17.6627 13.6788 17.2139C13.2299 16.7651 12.9243 16.1932 12.8006 15.5707C12.6769 14.9481 12.7407 14.3029 12.9839 13.7166C13.2272 13.1303 13.6388 12.6294 14.1669 12.2771C14.695 11.9249 15.3157 11.7372 15.9505 11.7378C16.8003 11.7386 17.6151 12.0765 18.216 12.6773C18.8169 13.2782 19.1548 14.0928 19.1557 14.9425Z" fill="white"/>
<path d="M17.6392 19.4985H14.2641C13.8254 19.4985 13.4697 19.8541 13.4697 20.2928V34.4436C13.4697 34.8822 13.8254 35.2378 14.2641 35.2378H17.6392C18.0779 35.2378 18.4336 34.8822 18.4336 34.4436V20.2928C18.4336 19.8541 18.0779 19.4985 17.6392 19.4985Z" fill="white"/>
<path d="M36.0787 27.6277V34.479C36.0787 34.6725 36.0019 34.858 35.8651 34.9948C35.7283 35.1315 35.5428 35.2084 35.3493 35.2084H31.7269C31.5334 35.2084 31.3479 35.1315 31.2111 34.9948C31.0743 34.858 30.9974 34.6725 30.9974 34.479V27.8409C30.9974 26.8489 31.2849 23.5144 28.4074 23.5144C26.1758 23.5144 25.7214 25.8075 25.6256 26.8365V34.4945C25.6216 34.6842 25.5438 34.8648 25.4088 34.9981C25.2738 35.1314 25.0921 35.2068 24.9024 35.2084H21.3974C21.3015 35.2088 21.2065 35.1902 21.1178 35.1537C21.0291 35.1172 20.9485 35.0635 20.8807 34.9957C20.8129 34.9279 20.7592 34.8473 20.7227 34.7586C20.6862 34.67 20.6676 34.5749 20.668 34.479V20.2015C20.6676 20.1055 20.6861 20.0103 20.7226 19.9215C20.7591 19.8326 20.8128 19.7518 20.8805 19.6838C20.9483 19.6157 21.0288 19.5617 21.1175 19.5249C21.2062 19.488 21.3014 19.4691 21.3974 19.4691H24.9024C24.9996 19.4674 25.0962 19.4852 25.1865 19.5212C25.2768 19.5573 25.359 19.611 25.4284 19.6792C25.4977 19.7474 25.5528 19.8287 25.5903 19.9183C25.6279 20.008 25.6473 20.1043 25.6473 20.2015V21.4377C26.4756 20.2015 27.7057 19.2373 30.3237 19.2373C36.1127 19.2342 36.0787 24.6516 36.0787 27.6277Z" fill="white"/>
</g>
<defs>
<clipPath id="clip0_1_863">
<rect width="46.9803" height="46.9737" fill="white" transform="translate(0.911011)"/>
</clipPath>
</defs>
</svg>
