<svg width="48" height="47" viewBox="0 0 48 47" fill="none" xmlns="http://www.w3.org/2000/svg">
<path d="M24.4419 46.7006C37.2637 46.7006 47.6579 36.3075 47.6579 23.487C47.6579 10.6665 37.2637 0.273438 24.4419 0.273438C11.62 0.273438 1.22589 10.6665 1.22589 23.487C1.22589 36.3075 11.62 46.7006 24.4419 46.7006Z" fill="#151515"/>
<path d="M24.4434 46.9737C22.8498 46.9737 21.2572 46.8132 19.7098 46.4966C18.2015 46.1879 16.7179 45.7275 15.3002 45.1279C13.9084 44.5392 12.5659 43.8107 11.3102 42.9623C10.0664 42.1221 8.89686 41.1573 7.834 40.0945C6.77114 39.0318 5.80618 37.8624 4.96593 36.6188C4.11755 35.3632 3.38887 34.0208 2.80018 32.6291C2.20054 31.2115 1.73999 29.7281 1.43139 28.22C1.11472 26.6727 0.954163 25.0802 0.954163 23.4868C0.954163 21.8934 1.11472 20.301 1.43139 18.7537C1.73999 17.2456 2.20054 15.7622 2.80018 14.3446C3.38887 12.9529 4.11755 11.6106 4.96593 10.355C5.80618 9.11131 6.77114 7.94194 7.834 6.87918C8.89686 5.81641 10.0664 4.85152 11.3102 4.01138C12.5659 3.16312 13.9084 2.43449 15.3002 1.84582C16.718 1.24626 18.2015 0.785775 19.7098 0.477157C21.2573 0.160534 22.8499 0 24.4434 0C26.0369 0 27.6296 0.160534 29.177 0.477157C30.6853 0.785775 32.1688 1.24626 33.5865 1.84582C34.9784 2.43449 36.3209 3.16306 37.5766 4.01138C38.8203 4.85157 39.9899 5.81647 41.0528 6.87918C42.1157 7.94194 43.0806 9.11137 43.9209 10.355C44.7692 11.6106 45.4979 12.9529 46.0866 14.3446C46.6863 15.7622 47.1468 17.2456 47.4554 18.7537C47.7721 20.3011 47.9326 21.8935 47.9326 23.4868C47.9326 25.0802 47.7721 26.6727 47.4554 28.22C47.1468 29.7281 46.6863 31.2115 46.0866 32.6291C45.4979 34.0209 44.7692 35.3632 43.9209 36.6188C43.0806 37.8624 42.1157 39.0318 41.0528 40.0945C39.9899 41.1573 38.8204 42.1222 37.5766 42.9623C36.3209 43.8106 34.9784 44.5392 33.5865 45.1279C32.1688 45.7275 30.6852 46.1879 29.177 46.4966C27.6295 46.8132 26.0369 46.9737 24.4434 46.9737ZM24.4434 0.546532C11.7928 0.546532 1.50077 10.8375 1.50077 23.4868C1.50077 36.1361 11.7928 46.4271 24.4434 46.4271C37.094 46.4271 47.386 36.1361 47.386 23.4868C47.386 10.8375 37.094 0.546532 24.4434 0.546532Z" fill="#151515"/>
<path d="M14.2952 36.2888C21.0986 27.7689 27.902 19.2491 34.7053 10.7292L14.2952 36.2888Z" fill="#151515"/>
<path d="M14.8855 36.7446L13.7084 35.8049L30.6948 14.5328L34.1185 10.2454L35.2955 11.1851L31.8719 15.4725L14.8855 36.7446Z" fill="white"/>
<path d="M11.0218 10.9124C13.0033 10.9124 14.9849 10.9124 16.9665 10.9124C23.935 19.2671 30.9034 27.6218 37.8719 35.9765C35.7913 36.0096 33.7107 36.0426 31.63 36.0756C24.7606 27.6879 17.8912 19.3001 11.0218 10.9124Z" fill="#151515"/>
<path d="M31.2784 36.8293L9.4321 10.1543H17.3194L39.4601 36.6994L31.2784 36.8293ZM12.6123 11.6603L31.9825 35.3119L36.2846 35.2436L16.6143 11.6603H12.6123Z" fill="white"/>
</svg>
