<svg width="47" height="47" viewBox="0 0 47 47" fill="none" xmlns="http://www.w3.org/2000/svg">
<path d="M23.4863 46.6968C36.3081 46.6968 46.7022 36.3038 46.7022 23.4833C46.7022 10.6628 36.3081 0.269775 23.4863 0.269775C10.6645 0.269775 0.270325 10.6628 0.270325 23.4833C0.270325 36.3038 10.6645 46.6968 23.4863 46.6968Z" fill="#FE0303"/>
<path d="M46.5014 18.7536C46.1928 17.2456 45.732 15.7623 45.1322 14.3448C44.5439 12.9528 43.8149 11.6106 42.9665 10.355C42.1265 9.11134 41.1616 7.94169 40.0985 6.87909C39.0359 5.81649 37.866 4.85167 36.6227 4.01142C35.3666 3.16305 34.0242 2.43459 32.6325 1.84587C31.2149 1.24614 29.731 0.78583 28.2228 0.477268C26.6755 0.160646 25.0828 0 23.4892 0C21.8956 0 20.3032 0.160644 18.7555 0.477322C17.2474 0.785885 15.7639 1.2462 14.3462 1.84593C12.9541 2.43459 11.6117 3.16311 10.356 4.01148C9.11227 4.85178 7.94245 5.8166 6.87976 6.87914C5.81708 7.94174 4.85173 9.1114 4.01181 10.355C3.16338 11.6106 2.43476 12.9528 1.84607 14.3448C1.24632 15.7623 0.785939 17.2457 0.477334 18.7537C0.160668 20.3012 0 21.8934 0 23.4869C0 25.0803 0.160668 26.6729 0.477334 28.22C0.785939 29.728 1.24632 31.2118 1.84607 32.6293C2.43482 34.0208 3.16338 35.3631 4.01181 36.6191C4.85173 37.8627 5.81708 39.032 6.87976 40.0946C7.94245 41.1576 9.11227 42.1224 10.356 42.9627C11.6117 43.8106 12.9541 44.5396 14.3462 45.1282C15.7638 45.7275 17.2474 46.1883 18.7555 46.4968C18.9247 46.5312 19.0943 46.564 19.2648 46.595C20.6514 46.8466 22.0699 46.9737 23.4892 46.9737C23.5946 46.9737 23.6996 46.9729 23.805 46.9716C24.9034 46.9572 26.0001 46.8666 27.0802 46.7008C27.4632 46.6422 27.8445 46.5742 28.2228 46.4968C29.7309 46.1883 31.2149 45.7275 32.6325 45.1282C34.0242 44.5396 35.3666 43.8107 36.6227 42.9627C37.866 42.1224 39.0358 41.1576 40.0985 40.0946C41.1616 39.032 42.1265 37.8627 42.9664 36.6191C43.8149 35.3631 44.5439 34.0208 45.1322 32.6293C45.732 31.2118 46.1928 29.728 46.5014 28.22C46.818 26.6729 46.9783 25.0803 46.9783 23.4869C46.9784 21.8934 46.8181 20.3012 46.5014 18.7536ZM27.0802 46.1465C25.91 46.331 24.7104 46.427 23.4892 46.427C22.0478 46.427 20.6373 46.2935 19.2691 46.0381C8.62688 44.0515 0.546661 34.6949 0.546661 23.4868C0.546661 10.8375 10.8385 0.546585 23.4892 0.546585C36.1398 0.546585 46.4317 10.8374 46.4317 23.4868C46.4317 34.9151 38.031 44.4179 27.0802 46.1465Z" fill="#FE0303"/>
<path d="M38.0094 16.2135C37.6609 14.9098 36.6341 13.8831 35.3303 13.5346C32.9671 12.9014 23.4908 12.9014 23.4908 12.9014C23.4908 12.9014 14.0145 12.9014 11.6512 13.5346C10.3474 13.883 9.32056 14.9098 8.97209 16.2135C8.33887 18.5765 8.33887 23.5067 8.33887 23.5067C8.33887 23.5067 8.33887 28.4369 8.97209 30.7999C9.32056 32.1036 10.3474 33.1303 11.6512 33.4789C14.0145 34.112 23.4908 34.112 23.4908 34.112C23.4908 34.112 32.9671 34.112 35.3303 33.4789C36.6341 33.1303 37.661 32.1036 38.0094 30.7999C38.6427 28.4369 38.6427 23.5067 38.6427 23.5067C38.6427 23.5067 38.6427 18.5765 38.0094 16.2135ZM20.4604 28.0518V18.9615L28.3332 23.5068L20.4604 28.0518Z" fill="white"/>
</svg>
