<svg xmlns="http://www.w3.org/2000/svg" width="506.771" height="196.441" viewBox="0 0 506.771 196.441">
  <g id="Nord-color-logo" transform="translate(-115.25 -37.496)">
    <path id="Path_3431" data-name="Path 3431" d="M1125.93-1087.319c-3.01,3.01-3.761,6.408-.819,9.35s13.581,13.717,16.242,16.379,6.823,2.458,9.827-.546,61.693-62.922,64.492-65.72,6.576-3.183,9.759,0,62.2,62.951,65.038,65.789a6.49,6.49,0,0,0,9.691,0l15.56-15.56c2.971-2.97,2.969-6.449-1.092-10.51s-85.865-86.753-89.129-90.016-7.1-3-10.1,0S1125.93-1087.319,1125.93-1087.319Z" transform="translate(-1008 1218)" fill="#00dd9a"/>
    <path id="Path_3432" data-name="Path 3432" d="M1188.343-1154.788c2.547-2.547,6.272-3.072,9.344,0s47.057,47.161,51.237,51.341,3.36,7.927,0,11.287-47,47.423-50.712,51.131-7.218,2.861-10.079,0-46.459-47.089-50.082-50.711-4.2-7.977,0-12.179S1188.343-1154.788,1188.343-1154.788Z" transform="translate(-980.617 1272.492)" fill="#172683"/>
    <text id="NORD" transform="translate(346.022 141.708)" fill="#172683" font-size="88" font-family="BwModelica-ExtraBold, Bw Modelica" font-weight="800" letter-spacing="-0.058em"><tspan x="0" y="0">NORD</tspan></text>
    <text id="FINANCE" transform="translate(352.639 193.274)" fill="#00dd9a" font-size="36" font-family="BwModelica-Medium, Bw Modelica" font-weight="500" letter-spacing="0.435em"><tspan x="0" y="0">FINANCE</tspan></text>
  </g>
</svg>
