<svg xmlns="http://www.w3.org/2000/svg" viewBox="0 0 145.62 172.77"><defs><style>.cls-1{fill:#fff;}</style></defs><g id="Layer_2" data-name="Layer 2"><g id="Layer_1-2" data-name="Layer 1"><path class="cls-1" d="M128.93,172.65v-9.89c1.16.08,2.3.06,3.41.25a2,2,0,0,1,1.58,2.07,49.34,49.34,0,0,1,0,5.16c-.11,1.65-1,2.39-2.71,2.41Zm1.42-1.1c1.71.25,2.14-.05,2.19-1.66s.06-3,0-4.43-.63-1.83-2.19-1.51Z"/><path class="cls-1" d="M26.44,162.85h1.12v9.72c-.55.2-.86.06-1.09-.52-.64-1.6-1.33-3.17-2-4.76a1.82,1.82,0,0,0-.53-.76v6.07H22.75v-9.69c.67-.26,1,0,1.22.58.74,1.81,1.53,3.61,2.47,5.39Z"/><path class="cls-1" d="M117.12,162.89c1,0,1.92,0,2.85,0a1.9,1.9,0,0,1,1.88,1.55,3,3,0,0,1-.68,3.11c-.11.1-.24.18-.38.29.45,1.57.88,3.11,1.32,4.64-1.19.32-1.23.3-1.53-.76s-.59-1.85-.79-2.8c-.15-.71-.46-1-1.29-.75v4.41h-1.38Zm1.41,4.16c.82.09,1.66.17,1.89-.61a3.11,3.11,0,0,0-.12-2.13c-.21-.39-1.08-.42-1.77-.65Z"/><path class="cls-1" d="M98.49,172.63H97.21v-4.46H94.7v4.41H93.32v-9.7h1.33V167h2.48v-4.13h1.36Z"/><path class="cls-1" d="M4.05,168.79l-1.2-.11v-.91H5.21v4.81c-.63.22-1,0-.86-1a2.26,2.26,0,0,1-2.83,1,2.27,2.27,0,0,1-1.46-2.31,44.59,44.59,0,0,1,0-5.17c.15-1.78,1.35-2.55,3.13-2.26,1.49.25,2.17,1.32,1.89,3.09H4c0-.26-.06-.55-.08-.84-.07-.79-.42-1.21-1.28-1.18a1.08,1.08,0,0,0-1.18,1.2c0,1.75,0,3.51,0,5.27a1.15,1.15,0,0,0,1.25,1.25A1.19,1.19,0,0,0,4,170.39C4,169.89,4,169.38,4.05,168.79Z"/><path class="cls-1" d="M108.54,162.91c.68,3.18,1.38,6.4,2.08,9.69h-1.28c-.16-.78-.32-1.57-.53-2.58-.71.19-1.58.16-2,.57s-.33,1.3-.48,2h-1.27c.49-2.31,1-4.55,1.44-6.79a16.45,16.45,0,0,0,.4-1.95C107,162.81,107.59,162.64,108.54,162.91Zm-1.47,6.22h1.61l-.74-3.87h-.16Z"/><path class="cls-1" d="M81.77,169.91l1.08-.29c.09.35.16.67.25,1a1.19,1.19,0,1,0,2.16-.8,4.57,4.57,0,0,0-.91-1.11c-.59-.56-1.25-1.05-1.83-1.62a2.83,2.83,0,0,1-.48-3.27,2.56,2.56,0,0,1,3-.81c1.07.39,1.36,1.27,1.46,2.36l-1.06.29a2.59,2.59,0,0,0-.23-.74c-.28-.35-.58-.79-1-.91s-1,.13-1.07.35a2.17,2.17,0,0,0,.09,1.51,6.67,6.67,0,0,0,1.29,1.25A15.69,15.69,0,0,1,86,168.56a2.73,2.73,0,0,1,.27,3.21,2.55,2.55,0,0,1-2.84.86C82.41,172.32,81.82,171.42,81.77,169.91Z"/><path class="cls-1" d="M69.62,165.35l-1.06.28a2.48,2.48,0,0,0-.24-.7c-.3-.36-.61-.81-1-1s-1,.17-1,.38a2.3,2.3,0,0,0,.19,1.58A13.15,13.15,0,0,0,68,167.42a8.39,8.39,0,0,1,1.49,1.79,2.38,2.38,0,0,1-1.14,3.36A2.5,2.5,0,0,1,65,171c-.32-1-.24-1.13,1-1.24a11.31,11.31,0,0,0,.31,1.1,1.15,1.15,0,0,0,1.52.78,1,1,0,0,0,.66-1.39,2.56,2.56,0,0,0-.66-1.15c-.67-.69-1.44-1.29-2.14-2a2.83,2.83,0,0,1-.5-3.34,2.59,2.59,0,0,1,3-.76C69.21,163.38,69.48,164.26,69.62,165.35Z"/><path class="cls-1" d="M46,169.71c.11.36.18.75.32,1.1a1.16,1.16,0,0,0,1.52.78,1,1,0,0,0,.66-1.4A2.65,2.65,0,0,0,47.8,169c-.68-.68-1.46-1.28-2.15-1.95a2.8,2.8,0,0,1-.49-3.33,2.59,2.59,0,0,1,3-.77c.84.31,1.24.95,1.4,2.29a3.13,3.13,0,0,1-.45.22c-.17.05-.35.06-.58.11a2.26,2.26,0,0,0-.23-.68,2.9,2.9,0,0,0-1-1c-.28-.1-1,.18-1,.39a2.37,2.37,0,0,0,.19,1.58,10,10,0,0,0,1.45,1.36,9.12,9.12,0,0,1,1.57,1.84,2.36,2.36,0,0,1-1.09,3.43A2.49,2.49,0,0,1,45,171C44.66,169.92,44.74,169.82,46,169.71Z"/><path class="cls-1" d="M144.36,165.63a2.67,2.67,0,0,0-.23-.75c-.28-.34-.58-.8-.95-.9a1.21,1.21,0,0,0-1.12.43,1.76,1.76,0,0,0,.12,1.42,8.52,8.52,0,0,0,1.36,1.32,14.46,14.46,0,0,1,1.46,1.47,2.73,2.73,0,0,1,.17,3.22,2.57,2.57,0,0,1-2.79.79c-1-.31-1.65-1.24-1.69-2.7l1.06-.32c.11.4.18.74.29,1.08a1.21,1.21,0,0,0,1.62.88c.78-.3.78-1,.56-1.59a3.52,3.52,0,0,0-.89-1.23c-.6-.59-1.28-1.1-1.89-1.69a2.82,2.82,0,0,1-.49-3.26,2.55,2.55,0,0,1,3-.82c.89.31,1.33,1,1.42,2.38Z"/><path class="cls-1" d="M16,162.9v.91H13.63v3.25l1.85.09.06.92H13.65v3.55h2.29l.07,1h-3.8v-9.7Z"/><path class="cls-1" d="M38.49,171.65l.06.94H34.76V162.9H38.5l0,.91H36.18v3.24l1.84.1.08.91H36.2v3.59Z"/><path class="cls-1" d="M56.7,162.85h1.2v9.75H56.7Z"/><circle class="cls-1" cx="104.53" cy="64.79" r="16.18"/><path class="cls-1" d="M123,20.07A72.82,72.82,0,0,0,20.07,22.61,74.09,74.09,0,0,0,12,32.75l-.17.27q-1.23,1.89-2.34,3.83l-.16.29C8.6,38.41,7.93,39.7,7.3,41l-.15.31C6.54,42.59,6,43.87,5.43,45.17c0,.11-.09.22-.14.34-.51,1.26-1,2.54-1.42,3.83l-.12.36c-.42,1.27-.81,2.54-1.16,3.83,0,.13-.08.26-.11.39-.34,1.26-.64,2.53-.91,3.8,0,.14-.05.28-.08.41C1.23,59.4,1,60.68.81,62c0,.15-.05.3-.07.45C.56,63.67.41,65,.3,66.24c0,.16,0,.32,0,.47C.15,68,.08,69.3,0,70.59c0,.17,0,.34,0,.51,0,1.37,0,2.75,0,4.13,0,.18,0,.36,0,.55.06,1.29.14,2.58.26,3.86l.06.6c.14,1.41.33,2.81.55,4.2,0,.22.07.44.11.66.25,1.47.55,2.94.89,4.4.06.24.11.48.17.72q.59,2.36,1.32,4.68c.08.27.17.54.26.81q.84,2.55,1.88,5c.12.3.25.61.38.91.8,1.86,1.69,3.69,2.65,5.49.18.34.36.68.55,1a69.27,69.27,0,0,0,3.65,5.89l.75,1.07A73.54,73.54,0,0,0,18.21,121l1,1.1q1.64,1.77,3.41,3.47c.92.88,1.87,1.73,2.82,2.55l1.42,1.19a73.29,73.29,0,0,0,8.35,5.88c.7.43,1.41.83,2.12,1.23a72.1,72.1,0,0,0,11.47,5.16c1,.36,2.07.7,3.11,1a73,73,0,0,0,59.77-8.17c.84-.54,1.68-1.09,2.51-1.66l1.56-1.11c.66-.48,1.32-1,2-1.5l.73-.57.44-.36.28-.24.57-.47.3-.25h0l.31-.27.22-.19.33-.29.44-.39.34-.3h0l0,0,.28-.26.37-.34.39-.36.1-.09.64-.63.15-.14.1-.1.28-.28h0l.07-.07.21-.21,0,0,0,0,.12-.13h0l0,0,0,0,.17-.18.06-.06,0,0,.23-.24,0,0,0-.06.06-.05h0l.32-.33.09-.1c.14-.14.27-.28.4-.43A72.81,72.81,0,0,0,123,20.07ZM12.75,33.22c21.1,4.66,29.82,22.9,39,42A203.89,203.89,0,0,0,62.93,96.49c-3.83-5.79-7.13-12-10.38-18.18C44.76,63.58,37.4,49.68,23.85,42A44.11,44.11,0,0,0,10.4,37C11.14,35.74,11.93,34.47,12.75,33.22Zm105.31,95.51H118l.12,0Zm-1.83-.4,1.07-.3.35.07-1,.32Zm-1.8-.41,1-.25.35.07-1,.27Zm-1.81-.43,1-.2.33.07-1,.22Zm-1.83-.45,1-.15.3.06-.94.17Zm-1.84-.48.93-.1.26.06-.88.12Zm-1.86-.49L108,126l.2,0-.82.08Zm-1.86-.53h.82l.13,0-.75,0Zm-1.88-.55.72,0h-.6Zm-1.88-.57h0Zm17.68,2.39-.9.25-.19,0,1-.24Zm-2.66.75-.3-.06,1.07-.26.24,0Zm-2.08-.42,1-.22.22,0-1,.23Zm-1.79-.38,1-.17.17,0c-.31.07-.62.13-.94.18Zm-1.81-.4.94-.12.11,0-.87.14Zm-1.82-.43.88-.06h0l-.8.09Zm-1.82-.44h.35l-.32,0Zm10.14,1.07-.85.21-.14,0,.9-.19Zm-2.74-.13.84-.14h0l-.78.16Zm-1.76-.32.19,0-.17,0Zm-20-4.44.71.28-.29-.06-1.52-.35Zm25.37,4.66h0Zm-28-5.59.71.12.47.2c-1.11-.15-2.18-.34-3.23-.57q-1.16-.37-2.28-.81A38.57,38.57,0,0,0,90.18,120.74Zm-2.39.12,1.3.41c1.32.4,2.68.76,4.08,1.06l1.94.39-.36-.06a50.75,50.75,0,0,1-8.43-2.16Q87,120.7,87.79,120.86Zm30.48,7-.31-.06,1.11-.31.25,0Zm1.71-1.34h-.06l.78-.2h0Zm1.56-2.74c-1.14.1-2.27.19-3.41.27l-3.45.11c-1.28,0-2.56,0-3.83-.08q-3.93-.23-7.69-.65c-2.12-.42-4.19-.88-6.18-1.39q3,.26,6.06.42c6.12.61,12.63,1,19.35,1.22ZM10.24,37.32a43.88,43.88,0,0,1,13.46,5c13.47,7.64,20.81,21.5,28.57,36.18C56.59,86.63,61,95,66.6,102.19,61.47,95.79,57.22,88.55,53,81.43,45.2,68.05,37.09,54.21,23.36,46.58A49.76,49.76,0,0,0,8.2,41.17C8.84,39.86,9.52,38.58,10.24,37.32ZM8.05,41.48a49.42,49.42,0,0,1,15.15,5.4C36.84,54.46,44.93,68.25,52.76,81.6c5.16,8.8,10.43,17.78,17.34,25.14-6.39-6.59-11.53-14.48-16.57-22.24C45.29,71.82,36.76,58.71,22.87,51.17A56.12,56.12,0,0,0,6.33,45.32C6.87,44,7.44,42.74,8.05,41.48ZM5.51,47.4c.22-.58.44-1.16.68-1.74A55.88,55.88,0,0,1,22.7,51.48C36.51,59,45,72.05,53.23,84.7c6.66,10.23,13.48,20.72,23.14,28.14C67.48,106.24,60.86,97.06,54,87.51c-8.63-12-17.56-24.33-31.58-31.75A63.41,63.41,0,0,0,4.75,49.51C5,48.8,5.24,48.1,5.51,47.4Zm-.88,2.47A63.28,63.28,0,0,1,22.2,56.09c14,7.39,22.85,19.72,31.46,31.65,9.79,13.56,19,26.37,35,32.19l.56.2a39.12,39.12,0,0,1-11.67-4.52l-.36-.22-.42-.25-1.09-.69,0,0-.8-.53c-8.43-5.79-15-14.41-21.77-23.36-8.63-11.38-17.56-23.15-31.2-30.19A72.9,72.9,0,0,0,3.46,53.7C3.81,52.42,4.2,51.14,4.63,49.87ZM3.35,54.09A72.83,72.83,0,0,1,21.7,60.7c13.56,7,22.45,18.74,31.06,30.08,4.63,6.11,9.15,12.06,14.24,17.08-2.33-2-4.6-4.12-6.85-6.31-2.31-2.59-4.59-5.29-6.89-8C44.3,82.84,35,71.81,21.39,64.93a84,84,0,0,0-18.95-7C2.71,56.63,3,55.36,3.35,54.09Zm79.8,65c-6.93-2.54-12.7-7-18.05-12.25A70.44,70.44,0,0,0,83.15,119ZM2.35,58.33a83.6,83.6,0,0,1,18.85,7C34.76,72.15,44,83.15,52.94,93.79c1.08,1.3,2.17,2.58,3.25,3.86-.53-.53-1.06-1.07-1.6-1.6C45,86.42,35,76.46,20.9,69.52A100.05,100.05,0,0,0,1.67,62.17C1.86,60.89,2.09,59.61,2.35,58.33ZM1.6,62.62a98.56,98.56,0,0,1,19.1,7.3c14,6.91,24,16.84,33.58,26.44,1.93,1.93,3.84,3.85,5.76,5.71a95.26,95.26,0,0,0,8.84,8.8c-4.95-3.68-9.66-7.88-14.48-12.18-9.85-8.79-20-17.88-34-24.58A125.09,125.09,0,0,0,1.16,66.48C1.28,65.19,1.42,63.9,1.6,62.62ZM1.12,67A124.68,124.68,0,0,1,20.2,74.53C34.1,81.2,44.26,90.27,54.09,99c10.63,9.48,20.74,18.51,34.11,22.57a50.47,50.47,0,0,0,6.47,1.51c1.15.19,2.32.36,3.5.52h0l-2-.22c-16.94-2-28.72-11.39-42.36-22.22-10-7.92-20.3-16.11-34-22.51a161.74,161.74,0,0,0-19-7.83C1,69.56,1,68.26,1.12,67ZM.91,74.59c0-1.07,0-2.14,0-3.21a162,162,0,0,1,18.81,7.76c13.61,6.38,23.91,14.55,33.86,22.46C64.65,110.39,74.5,118.21,86.88,122a55.08,55.08,0,0,0,9.3,2c1.33.16,2.68.29,4,.4l.14.05c-.89-.05-1.77-.1-2.64-.17-17.44-1.31-30.14-10.26-44.86-20.62-10-7-20.26-14.27-33.45-20.3-5-2.26-11.21-5-18.47-7.72C.93,75.23.92,74.91.91,74.59ZM1,76.11c7.16,2.67,13.34,5.4,18.24,7.64C32.36,89.76,42.64,97,52.58,104c11.11,7.82,21.08,14.85,32.82,18.41a56.45,56.45,0,0,0,12.29,2.31c1.5.11,3,.19,4.56.24l.23.07c-1.09,0-2.18,0-3.27,0-18.13-.58-32-9.21-48-19.21C41.9,100,31.38,93.42,18.93,87.87c-1.6-.71-3.25-1.47-5-2.27C10.05,83.8,5.84,81.86,1.25,80,1.12,78.72,1,77.42,1,76.11Zm.34,4.51c4.48,1.81,8.6,3.71,12.41,5.46,1.74.81,3.39,1.57,5,2.28,12.42,5.54,22.47,11.8,32.19,17.86,11.15,7,21.25,13.24,32.47,16.65a60.41,60.41,0,0,0,15.83,2.64c1.67,0,3.35.07,5,0l.28.08c-1.28.06-2.56.09-3.83.11-19.11.22-34.46-8.25-52.24-18-8.76-4.84-18.7-10.32-30-15.24-2.45-1.07-5-2.28-7.79-3.57S5,86.23,1.9,84.86C1.66,83.46,1.47,82,1.31,80.62ZM2,85.53c3,1.31,5.77,2.63,8.4,3.86s5.35,2.51,7.8,3.58c11.3,4.91,20.8,10.15,30,15.21C59.4,114.37,69.65,120,80.5,123.32a66.41,66.41,0,0,0,20.2,3c1.83,0,3.67-.09,5.51-.19l.33.09c-1.46.13-2.91.23-4.36.31-20.5,1.1-37.07-7-58-17.28-8.15-4-16.57-8.11-26.2-12.2-3.28-1.39-6.87-3.13-10.66-5L3,90C2.59,88.51,2.28,87,2,85.53Zm1.13,5.19L7,92.59c3.8,1.85,7.39,3.59,10.69,5,9.61,4.08,18,8.2,26.16,12.18,11.73,5.75,22.09,10.82,32.53,14a73.51,73.51,0,0,0,25.8,3.35c2-.1,4-.26,5.93-.46l.37.1c-1.61.22-3.23.4-4.84.56-22.57,2.15-42-6.38-66.52-17.19-6.24-2.74-12.69-5.58-19.7-8.48-3.93-1.62-8.3-3.82-12.92-6.17C4,93.9,3.55,92.31,3.14,90.72Zm1.67,5.56c4.43,2.24,8.61,4.34,12.41,5.91,7,2.9,13.45,5.73,19.69,8.48C49,116,59.88,120.77,70.49,124c11,3.34,21.68,5,33.24,3.91,2.11-.2,4.21-.46,6.31-.76l.41.11c-1.76.3-3.53.58-5.3.82-25.75,3.51-48.43-5.7-79.82-18.46L17,106.22C13.82,105,10.4,103.28,6.8,101.4,6.07,99.71,5.41,98,4.81,96.28Zm2.39,6c3.37,1.74,6.56,3.3,9.52,4.49l8.38,3.39c13.74,5.59,25.81,10.49,37.22,14,14.72,4.47,28.31,6.53,42.92,4.54q3.36-.47,6.69-1.08l.42.11q-2.84.61-5.72,1.13c-28.32,5-55.24-4.32-90.17-18C14.39,110,12.23,109,10,107.87Q8.48,105.16,7.2,102.31Zm3.37,6.57c1.95,1,3.83,1.81,5.66,2.53,12.7,5,24.35,9.4,35.39,12.76,19.41,5.89,37,8.53,55.13,5.31q3.56-.63,7-1.42l.43.1c-2,.53-4,1-6.1,1.46C79,135.94,50.22,128.5,16,115.39c-.53-.2-1.07-.42-1.61-.65Q12.32,111.91,10.57,108.88Zm4.54,6.89.62.25c8.8,3.37,17.25,6.36,25.43,8.85,23.76,7.22,45.32,10.13,67.1,5.41q3.73-.81,7.38-1.79l.43.1c-2.13.64-4.29,1.25-6.47,1.81-26,6.68-53.82,4-89.61-8.78A71.32,71.32,0,0,1,15.11,115.77Zm8.12,9.14c-.75-.71-1.48-1.44-2.19-2.18q5.9,2.07,11.53,3.79c29.91,9.08,54.23,10.44,77.2,4.55q3.89-1,7.68-2.18l.32.07-.17.13c-2.14.74-4.32,1.43-6.52,2.08-25.81,7.64-52.6,6.91-83.44-2.39Q25.36,126.94,23.23,124.91Zm77.45,14.22a72.24,72.24,0,0,1-44.26,3.72c2.34.12,4.68.18,7,.17a143.79,143.79,0,0,0,42.35-6.65l1.83-.59A68.94,68.94,0,0,1,100.68,139.13Zm-47.86,2.79A72.22,72.22,0,0,1,40.38,137c25.17,4.88,49,3.43,72.3-4.34-.7.46-1.4.92-2.11,1.36A141.48,141.48,0,0,1,52.82,141.92Zm62.08-10.77c-.77.27-1.55.54-2.34.8-24,8-48.51,9.31-74.5,3.85a73.51,73.51,0,0,1-8.9-5.82c30.25,8.85,56.66,9.41,82.13,1.88q2.31-.69,4.59-1.44C115.56,130.67,115.23,130.91,114.9,131.15Zm9.06-7.78c-3.89-.12-7.72-.29-11.44-.52,3.87.08,7.85.1,11.87.07Zm1-1a.47.47,0,0,0-.1.1c-7.73,0-15.25,0-22.28-.45-3.53-.36-6.92-.8-10.15-1.34l-1.75-.61c-1.66-.64-3.24-1.31-4.75-2-.54-.26-1.07-.53-1.58-.81a47.49,47.49,0,0,1-6.1-3.88C65.75,103.9,58.75,89.29,52,75.11,42.81,56,34.07,37.67,12.93,33a72.69,72.69,0,0,1,7.78-9.72,71.91,71.91,0,0,1,101.68-2.51,71.88,71.88,0,0,1,2.52,101.68Z"/></g></g></svg>